Involve-Bold.ufo
<glyph name="exclam" format="2">
	<unicode hex="0021"/>
	<advance width="321"/>
	<outline>
		<contour>
			<point x="94" y="188" type="line"/>
			<point x="227" y="188" type="line"/>
			<point x="227" y="739" type="line"/>
			<point x="94" y="739" type="line"/>
		</contour>
		<contour>
			<point x="94" y="0" type="line"/>
			<point x="227" y="0" type="line"/>
			<point x="227" y="128" type="line"/>
			<point x="94" y="128" type="line"/>
		</contour>
	</outline>
</glyph>
<glyph name="quotedbl" format="2">
	<unicode hex="0022"/>
	<advance width="337"/>
	<outline>
		<contour>
			<point x="197" y="513" type="line"/>
			<point x="273" y="513" type="line"/>
			<point x="273" y="739" type="line"/>
			<point x="197" y="739" type="line"/>
		</contour>
		<contour>
			<point x="64" y="513" type="line"/>
			<point x="140" y="513" type="line"/>
			<point x="140" y="739" type="line"/>
			<point x="64" y="739" type="line"/>
		</contour>
	</outline>
</glyph>
<glyph name="quotesingle" format="2">
	<unicode hex="0027"/>
	<advance width="204"/>
	<outline>
		<contour>
			<point x="64" y="513" type="line"/>
			<point x="140" y="513" type="line"/>
			<point x="140" y="739" type="line"/>
			<point x="64" y="739" type="line"/>
		</contour>
	</outline>
</glyph>
<glyph name="parenright" format="2">
	<unicode hex="0029"/>
	<advance width="357"/>
	<outline>
		<contour>
			<point x="46" y="-137" type="line"/>
			<point x="217.601" y="-62.976"/>
			<point x="321" y="102.086"/>
			<point x="321" y="302" type="curve" smooth="yes"/>
			<point x="321" y="499.595"/>
			<point x="204.028" y="685.475"/>
			<point x="46" y="739" type="curve"/>
			<point x="46" y="594" type="line"/>
			<point x="127.643" y="541.231"/>
			<point x="186" y="419.514"/>
			<point x="186" y="302" type="curve" smooth="yes"/>
			<point x="186" y="180.625"/>
			<point x="136.72" y="76.784"/>
			<point x="46" y="7" type="curve"/>
		</contour>
	</outline>
</glyph>
<glyph name="plus" format="2">
	<unicode hex="002B"/>
	<advance width="600"/>
	<outline>
		<contour>
			<point x="240" y="117" type="line"/>
			<point x="360" y="117" type="line"/>
			<point x="360" y="312" type="line"/>
			<point x="552" y="312" type="line"/>
			<point x="552" y="430" type="line"/>
			<point x="360" y="430" type="line"/>
			<point x="360" y="625" type="line"/>
			<point x="240" y="625" type="line"/>
			<point x="240" y="430" type="line"/>
			<point x="48" y="430" type="line"/>
			<point x="48" y="312" type="line"/>
			<point x="240" y="312" type="line"/>
		</contour>
	</outline>
</glyph>
<glyph name="comma" format="2">
	<unicode hex="002C"/>
	<advance width="233"/>
	<outline>
		<contour>
			<point x="50" y="0" type="line"/>
			<point x="108.5" y="0" type="line"/>
			<point x="108.5" y="-18" type="line" smooth="yes"/>
			<point x="108.5" y="-49.244"/>
			<point x="91.675" y="-65.062"/>
			<point x="50" y="-73" type="curve"/>
			<point x="50" y="-140" type="line"/>
			<point x="132.996" y="-140"/>
			<point x="183" y="-89.996"/>
			<point x="183" y="-7" type="curve" smooth="yes"/>
			<point x="183" y="128" type="line"/>
			<point x="50" y="128" type="line"/>
		</contour>
	</outline>
</glyph>
<glyph name="zero" format="2">
	<unicode hex="0030"/>
	<advance width="560"/>
	<outline>
		<contour>
			<point x="36" y="247" type="line" smooth="yes"/>
			<point x="36" y="85.362"/>
			<point x="132.092" y="-13"/>
			<point x="290" y="-13" type="curve" smooth="yes"/>
			<point x="442.008" y="-13"/>
			<point x="531" y="83.008"/>
			<point x="531" y="247" type="curve" smooth="yes"/>
			<point x="531" y="505" type="line" smooth="yes"/>
			<point x="531" y="655"/>
			<point x="434" y="752"/>
			<point x="284" y="752" type="curve" smooth="yes"/>
			<point x="131.843" y="752"/>
			<point x="36" y="653.839"/>
			<point x="36" y="498" type="curve" smooth="yes"/>
		</contour>
		<contour>
			<point x="169" y="251" type="curve" smooth="yes"/>
			<point x="169" y="498" type="line" smooth="yes"/>
			<point x="169" y="579.966"/>
			<point x="212.97" y="630"/>
			<point x="285" y="630" type="curve" smooth="yes"/>
			<point x="357.383" y="630"/>
			<point x="398" y="582.553"/>
			<point x="398" y="498" type="curve" smooth="yes"/>
			<point x="398" y="248" type="line" smooth="yes"/>
			<point x="398" y="154.96"/>
			<point x="360.968" y="109"/>
			<point x="286" y="109" type="curve" smooth="yes"/>
			<point x="210.099" y="109"/>
			<point x="169" y="158.88"/>
		</contour>
	</outline>
	<anchor name="Anchor-0" x="280" y="805"/>
</glyph>
<glyph name="three" format="2">
	<unicode hex="0033"/>
	<advance width="560"/>
	<outline>
		<contour>
			<point x="22" y="224" type="line"/>
			<point x="30.013" y="84.782"/>
			<point x="135.222" y="-13"/>
			<point x="277" y="-13" type="curve" smooth="yes"/>
			<point x="420" y="-13"/>
			<point x="525" y="92"/>
			<point x="525" y="235" type="curve" smooth="yes"/>
			<point x="525" y="327.943"/>
			<point x="487.047" y="390.979"/>
			<point x="410" y="426" type="curve"/>
			<point x="452.97" y="456.978"/>
			<point x="472" y="495.96"/>
			<point x="472" y="553" type="curve" smooth="yes"/>
			<point x="472" y="667"/>
			<point x="387" y="752"/>
			<point x="273" y="752" type="curve" smooth="yes"/>
			<point x="161.027" y="752"/>
			<point x="86.442" y="680.079"/>
			<point x="77" y="563" type="curve"/>
			<point x="212" y="563" type="line"/>
			<point x="218.036" y="609.272"/>
			<point x="237.216" y="630"/>
			<point x="274" y="630" type="curve" smooth="yes"/>
			<point x="312.036" y="630"/>
			<point x="339" y="600.962"/>
			<point x="339" y="560" type="curve" smooth="yes"/>
			<point x="339" y="511.006"/>
			<point x="302.377" y="484.175"/>
			<point x="235.506" y="484.175" type="curve" smooth="yes"/>
			<point x="225" y="484.175" type="line"/>
			<point x="225" y="356" type="line"/>
			<point x="247" y="356" type="line" smooth="yes"/>
			<point x="335.351" y="356"/>
			<point x="392" y="307.555"/>
			<point x="392" y="232" type="curve" smooth="yes"/>
			<point x="392" y="160.978"/>
			<point x="342.98" y="109"/>
			<point x="276" y="109" type="curve" smooth="yes"/>
			<point x="211.478" y="109"/>
			<point x="165.067" y="153.477"/>
			<point x="156" y="224" type="curve"/>
		</contour>
	</outline>
	<anchor name="Anchor-0" x="280" y="805"/>
</glyph>
<glyph name="four" format="2">
	<unicode hex="0034"/>
	<advance width="560"/>
	<outline>
		<contour>
			<point x="10" y="111" type="line"/>
			<point x="329" y="111" type="line"/>
			<point x="329" y="0" type="line"/>
			<point x="462" y="0" type="line"/>
			<point x="462" y="111" type="line"/>
			<point x="540" y="111" type="line"/>
			<point x="540" y="230" type="line"/>
			<point x="462" y="230" type="line"/>
			<point x="462" y="739" type="line"/>
			<point x="350" y="739" type="line"/>
			<point x="10" y="219" type="line"/>
		</contour>
		<contour>
			<point x="145" y="230" type="line"/>
			<point x="329" y="515" type="line"/>
			<point x="329" y="230" type="line"/>
		</contour>
	</outline>
	<anchor name="Anchor-0" x="280" y="805"/>
</glyph>
<glyph name="five" format="2">
	<unicode hex="0035"/>
	<advance width="560"/>
	<outline>
		<contour>
			<point x="21" y="221" type="line"/>
			<point x="27.973" y="88.513"/>
			<point x="139.464" y="-13"/>
			<point x="278" y="-13" type="curve" smooth="yes"/>
			<point x="421.921" y="-13"/>
			<point x="529" y="97.918"/>
			<point x="529" y="247" type="curve" smooth="yes"/>
			<point x="529" y="392.192"/>
			<point x="429.821" y="499"/>
			<point x="295" y="499" type="curve" smooth="yes"/>
			<point x="260.81" y="499"/>
			<point x="237.789" y="493.911"/>
			<point x="200" y="478" type="curve"/>
			<point x="224" y="614" type="line"/>
			<point x="458" y="614" type="line"/>
			<point x="458" y="739" type="line"/>
			<point x="124" y="739" type="line"/>
			<point x="55" y="353" type="line"/>
			<point x="173" y="321" type="line"/>
			<point x="205.84" y="361.801"/>
			<point x="233.795" y="377"/>
			<point x="276" y="377" type="curve" smooth="yes"/>
			<point x="344.591" y="377"/>
			<point x="396" y="320.45"/>
			<point x="396" y="245" type="curve" smooth="yes"/>
			<point x="396" y="164.869"/>
			<point x="345.882" y="109"/>
			<point x="274" y="109" type="curve" smooth="yes"/>
			<point x="210.429" y="109"/>
			<point x="168.095" y="148.511"/>
			<point x="154" y="221" type="curve"/>
		</contour>
	</outline>
	<anchor name="Anchor-0" x="280" y="805"/>
</glyph>
<glyph name="six" format="2">
	<unicode hex="0036"/>
	<advance width="560"/>
	<outline>
		<contour>
			<point x="290" y="739" type="line"/>
			<point x="97" y="449" type="line" smooth="yes"/>
			<point x="43.251" y="368.237"/>
			<point x="24" y="313.649"/>
			<point x="24" y="242" type="curve" smooth="yes"/>
			<point x="24" y="95.151"/>
			<point x="133.847" y="-13"/>
			<point x="283" y="-13" type="curve" smooth="yes"/>
			<point x="430.991" y="-13"/>
			<point x="536" y="96.99"/>
			<point x="536" y="252" type="curve" smooth="yes"/>
			<point x="536" y="387.676"/>
			<point x="450.282" y="486"/>
			<point x="332" y="486" type="curve" smooth="yes"/>
			<point x="307.5" y="486"/>
			<point x="294.54" y="483.84"/>
			<point x="272" y="476" type="curve"/>
			<point x="449" y="739" type="line"/>
		</contour>
		<contour>
			<point x="284" y="109" type="curve" smooth="yes"/>
			<point x="209.377" y="109"/>
			<point x="157" y="162.614"/>
			<point x="157" y="239" type="curve" smooth="yes"/>
			<point x="157" y="315.208"/>
			<point x="207.191" y="370"/>
			<point x="277" y="370" type="curve" smooth="yes"/>
			<point x="351.531" y="370"/>
			<point x="403" y="316.488"/>
			<point x="403" y="239" type="curve" smooth="yes"/>
			<point x="403" y="162.265"/>
			<point x="354.242" y="109"/>
		</contour>
	</outline>
	<anchor name="Anchor-0" x="280" y="805"/>
</glyph>
<glyph name="seven" format="2">
	<unicode hex="0037"/>
	<advance width="560"/>
	<outline>
		<contour>
			<point x="80" y="0" type="line"/>
			<point x="230" y="0" type="line"/>
			<point x="500" y="614" type="line"/>
			<point x="500" y="739" type="line"/>
			<point x="65" y="739" type="line"/>
			<point x="65" y="614" type="line"/>
			<point x="360" y="614" type="line"/>
		</contour>
	</outline>
	<anchor name="Anchor-0" x="280" y="805"/>
</glyph>
<glyph name="eight" format="2">
	<unicode hex="0038"/>
	<advance width="560"/>
	<outline>
		<contour>
			<point x="34" y="231" type="curve" smooth="yes"/>
			<point x="34" y="92.85"/>
			<point x="141.152" y="-13"/>
			<point x="281" y="-13" type="curve" smooth="yes"/>
			<point x="421" y="-13"/>
			<point x="526" y="92"/>
			<point x="526" y="232" type="curve" smooth="yes"/>
			<point x="526" y="315.791"/>
			<point x="496.737" y="366.158"/>
			<point x="422" y="411" type="curve"/>
			<point x="464.626" y="444.704"/>
			<point x="484" y="488.452"/>
			<point x="484" y="551" type="curve" smooth="yes"/>
			<point x="484" y="666.213"/>
			<point x="397.786" y="752"/>
			<point x="282" y="752" type="curve" smooth="yes"/>
			<point x="169" y="752"/>
			<point x="79" y="662"/>
			<point x="79" y="549" type="curve" smooth="yes"/>
			<point x="79" y="493.967"/>
			<point x="94.027" y="459.971"/>
			<point x="140" y="411" type="curve"/>
			<point x="67.957" y="370.741"/>
			<point x="34" y="313.077"/>
		</contour>
		<contour>
			<point x="282" y="469" type="curve" smooth="yes"/>
			<point x="239.625" y="469"/>
			<point x="206" y="504.395"/>
			<point x="206" y="549" type="curve" smooth="yes"/>
			<point x="206" y="594.18"/>
			<point x="239.167" y="630"/>
			<point x="281" y="630" type="curve" smooth="yes"/>
			<point x="324.146" y="630"/>
			<point x="357" y="595.849"/>
			<point x="357" y="551" type="curve" smooth="yes"/>
			<point x="357" y="505.04"/>
			<point x="324.037" y="469"/>
		</contour>
		<contour>
			<point x="167" y="225" type="curve" smooth="yes"/>
			<point x="167" y="289.107"/>
			<point x="217.103" y="341"/>
			<point x="279" y="341" type="curve" smooth="yes"/>
			<point x="343.217" y="341"/>
			<point x="393" y="290.781"/>
			<point x="393" y="226" type="curve" smooth="yes"/>
			<point x="393" y="159.297"/>
			<point x="345.282" y="109"/>
			<point x="282" y="109" type="curve" smooth="yes"/>
			<point x="217.28" y="109"/>
			<point x="167" y="159.717"/>
		</contour>
	</outline>
	<anchor name="Anchor-0" x="280" y="805"/>
</glyph>
<glyph name="colon" format="2">
	<unicode hex="003A"/>
	<advance width="281"/>
	<outline>
		<contour>
			<point x="74" y="0" type="line"/>
			<point x="207" y="0" type="line"/>
			<point x="207" y="128" type="line"/>
			<point x="74" y="128" type="line"/>
		</contour>
		<contour>
			<point x="74" y="369" type="line"/>
			<point x="207" y="369" type="line"/>
			<point x="207" y="502" type="line"/>
			<point x="74" y="502" type="line"/>
		</contour>
	</outline>
</glyph>
<glyph name="semicolon" format="2">
	<unicode hex="003B"/>
	<advance width="281"/>
	<outline>
		<contour>
			<point x="74" y="0" type="line"/>
			<point x="133" y="0" type="line"/>
			<point x="133" y="-15" type="line" smooth="yes"/>
			<point x="133" y="-49.136"/>
			<point x="116.83" y="-65.032"/>
			<point x="74" y="-73" type="curve"/>
			<point x="74" y="-140" type="line"/>
			<point x="156.237" y="-140"/>
			<point x="207" y="-89.237"/>
			<point x="207" y="-7" type="curve" smooth="yes"/>
			<point x="207" y="128" type="line"/>
			<point x="74" y="128" type="line"/>
		</contour>
		<contour>
			<point x="74" y="369" type="line"/>
			<point x="207" y="369" type="line"/>
			<point x="207" y="502" type="line"/>
			<point x="74" y="502" type="line"/>
		</contour>
	</outline>
</glyph>
<glyph name="less" format="2">
	<unicode hex="003C"/>
	<advance width="600"/>
	<outline>
		<contour>
			<point x="44" y="258" type="line"/>
			<point x="553" y="33" type="line"/>
			<point x="553" y="149" type="line"/>
			<point x="212" y="308" type="line"/>
			<point x="553" y="465" type="line"/>
			<point x="553" y="582" type="line"/>
			<point x="44" y="356" type="line"/>
		</contour>
	</outline>
</glyph>
<glyph name="question" format="2">
	<unicode hex="003F"/>
	<advance width="519"/>
	<outline>
		<contour>
			<point x="317" y="187" type="line"/>
			<point x="317" y="271.964"/>
			<point x="326.496" y="294.9"/>
			<point x="382" y="344" type="curve" smooth="yes"/>
			<point x="459.493" y="412.552"/>
			<point x="484" y="455.559"/>
			<point x="484" y="523" type="curve" smooth="yes"/>
			<point x="484" y="654.147"/>
			<point x="387.856" y="752"/>
			<point x="259" y="752" type="curve" smooth="yes"/>
			<point x="129.122" y="752"/>
			<point x="41.503" y="662.844"/>
			<point x="31" y="520" type="curve"/>
			<point x="164" y="520" type="line"/>
			<point x="173.037" y="588.279"/>
			<point x="202.22" y="620"/>
			<point x="256" y="620" type="curve" smooth="yes"/>
			<point x="311.081" y="620"/>
			<point x="351" y="580.921"/>
			<point x="351" y="527" type="curve" smooth="yes"/>
			<point x="351" y="495.943"/>
			<point x="335.056" y="465.826"/>
			<point x="306" y="442" type="curve" smooth="yes"/>
			<point x="207.187" y="360.974"/>
			<point x="184" y="312.508"/>
			<point x="184" y="187" type="curve"/>
		</contour>
		<contour>
			<point x="184" y="0" type="line"/>
			<point x="317" y="0" type="line"/>
			<point x="317" y="128" type="line"/>
			<point x="184" y="128" type="line"/>
		</contour>
	</outline>
</glyph>
<glyph name="at" format="2">
	<unicode hex="0040"/>
	<advance width="878"/>
	<outline>
		<contour>
			<point x="615" y="107" type="line"/>
			<point x="570.233" y="74.171"/>
			<point x="525.309" y="60"/>
			<point x="466" y="60" type="curve" smooth="yes"/>
			<point x="275.094" y="60"/>
			<point x="139" y="191.1"/>
			<point x="139" y="375" type="curve" smooth="yes"/>
			<point x="139" y="558.364"/>
			<point x="273.361" y="694"/>
			<point x="455" y="694" type="curve" smooth="yes"/>
			<point x="622.797" y="694"/>
			<point x="737" y="580.202"/>
			<point x="737" y="413" type="curve" smooth="yes"/>
			<point x="737" y="324.025"/>
			<point x="696.723" y="260.989"/>
			<point x="639.873" y="260.989" type="curve" smooth="yes"/>
			<point x="619.014" y="260.989"/>
			<point x="608.067" y="270.626"/>
			<point x="608.067" y="288.989" type="curve" smooth="yes"/>
			<point x="608.067" y="306.17"/>
			<point x="609.012" y="322.948"/>
			<point x="610.603" y="334" type="curve" smooth="yes"/>
			<point x="645" y="573" type="line"/>
			<point x="540" y="573" type="line"/>
			<point x="533" y="519" type="line"/>
			<point x="500.146" y="561.809"/>
			<point x="469.241" y="577"/>
			<point x="415" y="577" type="curve" smooth="yes"/>
			<point x="299.348" y="577"/>
			<point x="213" y="477.401"/>
			<point x="213" y="344" type="curve" smooth="yes"/>
			<point x="213" y="227.848"/>
			<point x="277.132" y="154"/>
			<point x="378" y="154" type="curve" smooth="yes"/>
			<point x="432.87" y="154"/>
			<point x="482.799" y="176.881"/>
			<point x="507.409" y="213.304" type="curve"/>
			<point x="520.264" y="177.705"/>
			<point x="564.52" y="154"/>
			<point x="618.124" y="154" type="curve" smooth="yes"/>
			<point x="763.342" y="154"/>
			<point x="850" y="245.641"/>
			<point x="850" y="399.21" type="curve" smooth="yes"/>
			<point x="850" y="644.387"/>
			<point x="697.234" y="797.995"/>
			<point x="453.402" y="797.995" type="curve" smooth="yes"/>
			<point x="208.939" y="797.995"/>
			<point x="28" y="618.953"/>
			<point x="28" y="377.054" type="curve" smooth="yes"/>
			<point x="28" y="130.696"/>
			<point x="210.013" y="-43.995"/>
			<point x="466.695" y="-43.995" type="curve" smooth="yes"/>
			<point x="557.05" y="-43.995"/>
			<point x="629.531" y="-21.961"/>
			<point x="680.5" y="21" type="curve"/>
		</contour>
		<contour>
			<point x="412" y="260" type="curve" smooth="yes"/>
			<point x="362.968" y="260"/>
			<point x="333" y="296.038"/>
			<point x="333" y="355" type="curve" smooth="yes"/>
			<point x="333" y="414.95"/>
			<point x="378.955" y="465"/>
			<point x="434" y="465" type="curve" smooth="yes"/>
			<point x="483.038" y="465"/>
			<point x="511" y="431.955"/>
			<point x="511" y="374" type="curve" smooth="yes"/>
			<point x="511" y="307.106"/>
			<point x="470.092" y="260"/>
		</contour>
	</outline>
</glyph>
<glyph name="B" format="2">
	<unicode hex="0042"/>
	<advance width="587"/>
	<outline>
		<contour>
			<point x="71" y="0" type="line"/>
			<point x="268" y="0" type="line" smooth="yes"/>
			<point x="447.886" y="0"/>
			<point x="551" y="80.159"/>
			<point x="551" y="220" type="curve" smooth="yes"/>
			<point x="551" y="313.309"/>
			<point x="514.358" y="366.527"/>
			<point x="425" y="403" type="curve"/>
			<point x="484.422" y="434.222"/>
			<point x="507" y="472.494"/>
			<point x="507" y="542" type="curve" smooth="yes"/>
			<point x="507" y="676.562"/>
			<point x="416.987" y="739"/>
			<point x="223" y="739" type="curve" smooth="yes"/>
			<point x="71" y="739" type="line"/>
		</contour>
		<contour>
			<point x="208" y="131" type="line"/>
			<point x="208" y="320" type="line"/>
			<point x="317.207" y="320" type="line" smooth="yes"/>
			<point x="375.006" y="320"/>
			<point x="413" y="281.924"/>
			<point x="413" y="224" type="curve" smooth="yes"/>
			<point x="413" y="158.916"/>
			<point x="371.876" y="131"/>
			<point x="276" y="131" type="curve" smooth="yes"/>
		</contour>
		<contour>
			<point x="208" y="454" type="line"/>
			<point x="208" y="605" type="line"/>
			<point x="264" y="605" type="line" smooth="yes"/>
			<point x="335.54" y="605"/>
			<point x="370" y="580.618"/>
			<point x="370" y="530" type="curve" smooth="yes"/>
			<point x="370" y="482.506"/>
			<point x="342.322" y="454"/>
			<point x="296.207" y="454" type="curve" smooth="yes"/>
		</contour>
	</outline>
	<anchor name="Anchor-0" x="281" y="805"/>
</glyph>
<glyph name="C" format="2">
	<unicode hex="0043"/>
	<advance width="802"/>
	<outline>
		<contour>
			<point x="605" y="206" type="line"/>
			<point x="544.221" y="143.228"/>
			<point x="493.259" y="119"/>
			<point x="422" y="119" type="curve" smooth="yes"/>
			<point x="285.595" y="119"/>
			<point x="174" y="232.395"/>
			<point x="174" y="371" type="curve" smooth="yes"/>
			<point x="174" y="513.167"/>
			<point x="279.117" y="620"/>
			<point x="419" y="620" type="curve" smooth="yes"/>
			<point x="504.796" y="620"/>
			<point x="562.881" y="592.155"/>
			<point x="613" y="527" type="curve"/>
			<point x="766" y="527" type="line"/>
			<point x="701.876" y="668.988"/>
			<point x="572.747" y="752"/>
			<point x="416" y="752" type="curve" smooth="yes"/>
			<point x="207" y="752"/>
			<point x="36" y="581"/>
			<point x="36" y="372" type="curve" smooth="yes"/>
			<point x="36" y="158.111"/>
			<point x="208.888" y="-13"/>
			<point x="425" y="-13" type="curve" smooth="yes"/>
			<point x="577.103" y="-13"/>
			<point x="708.039" y="71.091"/>
			<point x="766" y="206" type="curve"/>
		</contour>
	</outline>
	<anchor name="Anchor-0" x="420" y="805"/>
</glyph>
<glyph name="D" format="2">
	<unicode hex="0044"/>
	<advance width="699"/>
	<outline>
		<contour>
			<point x="71" y="0" type="line"/>
			<point x="243" y="0" type="line" smooth="yes"/>
			<point x="352.789" y="0"/>
			<point x="417.675" y="10.582"/>
			<point x="476" y="38" type="curve" smooth="yes"/>
			<point x="593.591" y="93.278"/>
			<point x="663" y="215.765"/>
			<point x="663" y="368" type="curve" smooth="yes"/>
			<point x="663" y="504.67"/>
			<point x="607.919" y="617.353"/>
			<point x="510" y="681" type="curve" smooth="yes"/>
			<point x="450.136" y="719.911"/>
			<point x="361.276" y="739"/>
			<point x="240" y="739" type="curve" smooth="yes"/>
			<point x="71" y="739" type="line"/>
		</contour>
		<contour>
			<point x="208" y="131" type="line"/>
			<point x="208" y="608" type="line"/>
			<point x="235" y="608" type="line" smooth="yes"/>
			<point x="322.17" y="608"/>
			<point x="366.296" y="601.073"/>
			<point x="407" y="581" type="curve" smooth="yes"/>
			<point x="480.468" y="544.769"/>
			<point x="525" y="464.386"/>
			<point x="525" y="368" type="curve" smooth="yes"/>
			<point x="525" y="278.125"/>
			<point x="483.604" y="199.202"/>
			<point x="418" y="164" type="curve" smooth="yes"/>
			<point x="376.222" y="141.582"/>
			<point x="318.5" y="131"/>
			<point x="238" y="131" type="curve" smooth="yes"/>
		</contour>
	</outline>
	<anchor name="Anchor-0" x="341" y="805"/>
</glyph>
<glyph name="E" format="2">
	<unicode hex="0045"/>
	<advance width="524"/>
	<outline>
		<contour>
			<point x="71" y="0" type="line"/>
			<point x="468" y="0" type="line"/>
			<point x="468" y="131" type="line"/>
			<point x="208" y="131" type="line"/>
			<point x="208" y="303" type="line"/>
			<point x="457" y="303" type="line"/>
			<point x="457" y="434" type="line"/>
			<point x="208" y="434" type="line"/>
			<point x="208" y="608" type="line"/>
			<point x="468" y="608" type="line"/>
			<point x="468" y="739" type="line"/>
			<point x="71" y="739" type="line"/>
		</contour>
	</outline>
	<anchor name="Anchor-0" x="269" y="805"/>
</glyph>
<glyph name="F" format="2">
	<unicode hex="0046"/>
	<advance width="495"/>
	<outline>
		<contour>
			<point x="71" y="0" type="line"/>
			<point x="208" y="0" type="line"/>
			<point x="208" y="303" type="line"/>
			<point x="436" y="303" type="line"/>
			<point x="436" y="434" type="line"/>
			<point x="208" y="434" type="line"/>
			<point x="208" y="608" type="line"/>
			<point x="447" y="608" type="line"/>
			<point x="447" y="739" type="line"/>
			<point x="71" y="739" type="line"/>
		</contour>
	</outline>
	<anchor name="Anchor-0" x="259" y="805"/>
</glyph>
<glyph name="G" format="2">
	<unicode hex="0047"/>
	<advance width="857"/>
	<outline>
		<contour>
			<point x="341" y="249" type="line"/>
			<point x="647" y="249" type="line"/>
			<point x="606.768" y="166.525"/>
			<point x="527.438" y="119"/>
			<point x="430" y="119" type="curve" smooth="yes"/>
			<point x="284.796" y="119"/>
			<point x="174" y="227.199"/>
			<point x="174" y="369" type="curve" smooth="yes"/>
			<point x="174" y="513.476"/>
			<point x="279.251" y="620"/>
			<point x="422" y="620" type="curve" smooth="yes"/>
			<point x="508.286" y="620"/>
			<point x="579.152" y="585.789"/>
			<point x="625" y="522" type="curve"/>
			<point x="786" y="522" type="line"/>
			<point x="738.195" y="655.454"/>
			<point x="586.661" y="752"/>
			<point x="425" y="752" type="curve" smooth="yes"/>
			<point x="207.764" y="752"/>
			<point x="36" y="583.769"/>
			<point x="36" y="371" type="curve" smooth="yes"/>
			<point x="36" y="154.082"/>
			<point x="210.914" y="-13"/>
			<point x="438" y="-13" type="curve" smooth="yes"/>
			<point x="661.682" y="-13"/>
			<point x="824" y="151"/>
			<point x="824" y="377" type="curve"/>
			<point x="341" y="377" type="line"/>
		</contour>
	</outline>
	<anchor name="Anchor-0" x="428" y="805"/>
</glyph>
<glyph name="J" format="2">
	<unicode hex="004A"/>
	<advance width="494"/>
	<outline>
		<contour>
			<point x="18" y="175" type="line"/>
			<point x="28.2" y="58.72"/>
			<point x="106.406" y="-13"/>
			<point x="223" y="-13" type="curve" smooth="yes"/>
			<point x="346.778" y="-13"/>
			<point x="423" y="72.75"/>
			<point x="423" y="212" type="curve" smooth="yes"/>
			<point x="423" y="739" type="line"/>
			<point x="286" y="739" type="line"/>
			<point x="286" y="216" type="line" smooth="yes"/>
			<point x="286" y="151.167"/>
			<point x="264.113" y="119"/>
			<point x="220" y="119" type="curve" smooth="yes"/>
			<point x="186.027" y="119"/>
			<point x="164.007" y="137.971"/>
			<point x="155" y="175" type="curve"/>
		</contour>
	</outline>
	<anchor name="Anchor-0" x="354" y="805"/>
</glyph>
<glyph name="K" format="2">
	<unicode hex="004B"/>
	<advance width="614"/>
	<outline>
		<contour>
			<point x="71" y="0" type="line"/>
			<point x="208" y="0" type="line"/>
			<point x="208" y="236.342" type="line"/>
			<point x="240.819" y="278.867" type="line"/>
			<point x="437" y="0" type="line"/>
			<point x="602" y="0" type="line"/>
			<point x="324" y="376" type="line"/>
			<point x="602" y="739" type="line"/>
			<point x="437" y="739" type="line"/>
			<point x="208" y="420" type="line"/>
			<point x="208" y="739" type="line"/>
			<point x="71" y="739" type="line"/>
		</contour>
	</outline>
	<anchor name="Anchor-0" x="323" y="805"/>
</glyph>
<glyph name="L" format="2">
	<unicode hex="004C"/>
	<advance width="454"/>
	<outline>
		<contour>
			<point x="71" y="0" type="line"/>
			<point x="434" y="0" type="line"/>
			<point x="434" y="131" type="line"/>
			<point x="208" y="131" type="line"/>
			<point x="208" y="739" type="line"/>
			<point x="71" y="739" type="line"/>
		</contour>
	</outline>
	<anchor name="Anchor-0" x="139" y="805"/>
</glyph>
<glyph name="N" format="2">
	<unicode hex="004E"/>
	<advance width="741"/>
	<outline>
		<contour>
			<point x="71" y="0" type="line"/>
			<point x="208" y="0" type="line"/>
			<point x="208" y="537" type="line"/>
			<point x="517" y="0" type="line"/>
			<point x="670" y="0" type="line"/>
			<point x="670" y="739" type="line"/>
			<point x="533" y="739" type="line"/>
			<point x="533" y="201" type="line"/>
			<point x="227" y="739" type="line"/>
			<point x="71" y="739" type="line"/>
		</contour>
	</outline>
	<anchor name="Anchor-0" x="370" y="805"/>
</glyph>
<glyph name="O" format="2">
	<unicode hex="004F"/>
	<advance width="842"/>
	<outline>
		<contour>
			<point x="36" y="369" type="curve" smooth="yes"/>
			<point x="36" y="155.452"/>
			<point x="207.539" y="-13"/>
			<point x="425" y="-13" type="curve" smooth="yes"/>
			<point x="639.936" y="-13"/>
			<point x="806" y="153.936"/>
			<point x="806" y="370" type="curve" smooth="yes"/>
			<point x="806" y="581.331"/>
			<point x="636.671" y="752"/>
			<point x="427" y="752" type="curve" smooth="yes"/>
			<point x="206.244" y="752"/>
			<point x="36" y="585.239"/>
		</contour>
		<contour>
			<point x="174" y="370" type="curve" smooth="yes"/>
			<point x="174" y="508.66"/>
			<point x="282.668" y="620"/>
			<point x="418" y="620" type="curve" smooth="yes"/>
			<point x="561.925" y="620"/>
			<point x="668" y="513.076"/>
			<point x="668" y="368" type="curve" smooth="yes"/>
			<point x="668" y="225.066"/>
			<point x="564.064" y="119"/>
			<point x="424" y="119" type="curve" smooth="yes"/>
			<point x="283.781" y="119"/>
			<point x="174" y="229.22"/>
		</contour>
	</outline>
	<anchor name="Anchor-0" x="421" y="805"/>
</glyph>
<glyph name="S" format="2">
	<unicode hex="0053"/>
	<advance width="524"/>
	<outline>
		<contour>
			<point x="19" y="211" type="line"/>
			<point x="28.607" y="76.505"/>
			<point x="125.704" y="-13"/>
			<point x="262" y="-13" type="curve" smooth="yes"/>
			<point x="395.217" y="-13"/>
			<point x="498" y="90.218"/>
			<point x="498" y="224" type="curve" smooth="yes"/>
			<point x="498" y="332.959"/>
			<point x="439.825" y="400.272"/>
			<point x="307" y="445" type="curve" smooth="yes"/>
			<point x="209.842" y="477.717"/>
			<point x="184" y="498.727"/>
			<point x="184" y="545" type="curve" smooth="yes"/>
			<point x="184" y="589.204"/>
			<point x="215.207" y="620"/>
			<point x="260" y="620" type="curve" smooth="yes"/>
			<point x="306" y="620"/>
			<point x="334" y="592"/>
			<point x="338" y="542" type="curve"/>
			<point x="480" y="542" type="line"/>
			<point x="472.992" y="668.147"/>
			<point x="385.545" y="752"/>
			<point x="261" y="752" type="curve" smooth="yes"/>
			<point x="141.107" y="752"/>
			<point x="46" y="659.105"/>
			<point x="46" y="542" type="curve" smooth="yes"/>
			<point x="46" y="448.568"/>
			<point x="100.376" y="377.597"/>
			<point x="200" y="341" type="curve" smooth="yes"/>
			<point x="265.619" y="316.895"/>
			<point x="362" y="296.826"/>
			<point x="362" y="209" type="curve" smooth="yes"/>
			<point x="362" y="155.95"/>
			<point x="320.944" y="119"/>
			<point x="262" y="119" type="curve" smooth="yes"/>
			<point x="200.804" y="119"/>
			<point x="167.981" y="149.198"/>
			<point x="162" y="211" type="curve"/>
		</contour>
	</outline>
	<anchor name="Anchor-0" x="261" y="805"/>
</glyph>
<glyph name="T" format="2">
	<unicode hex="0054"/>
	<advance width="425"/>
	<outline>
		<contour>
			<point x="144" y="0" type="line"/>
			<point x="281" y="0" type="line"/>
			<point x="281" y="608" type="line"/>
			<point x="418" y="608" type="line"/>
			<point x="418" y="739" type="line"/>
			<point x="7" y="739" type="line"/>
			<point x="7" y="608" type="line"/>
			<point x="144" y="608" type="line"/>
		</contour>
	</outline>
	<anchor name="Anchor-0" x="212" y="805"/>
</glyph>
<glyph name="U" format="2">
	<unicode hex="0055"/>
	<advance width="641"/>
	<outline>
		<contour>
			<point x="71" y="739" type="line"/>
			<point x="71" y="271" type="line" smooth="yes"/>
			<point x="71" y="94.106"/>
			<point x="164.906" y="-13"/>
			<point x="320" y="-13" type="curve" smooth="yes"/>
			<point x="476.065" y="-13"/>
			<point x="570" y="93.71"/>
			<point x="570" y="271" type="curve" smooth="yes"/>
			<point x="570" y="739" type="line"/>
			<point x="433" y="739" type="line"/>
			<point x="433" y="271" type="line" smooth="yes"/>
			<point x="433" y="167.393"/>
			<point x="397.024" y="119"/>
			<point x="320" y="119" type="curve" smooth="yes"/>
			<point x="243.989" y="119"/>
			<point x="208" y="167.842"/>
			<point x="208" y="271" type="curve" smooth="yes"/>
			<point x="208" y="739" type="line"/>
		</contour>
	</outline>
	<anchor name="Anchor-0" x="320" y="805"/>
</glyph>
<glyph name="V" format="2">
	<unicode hex="0056"/>
	<advance width="694"/>
	<outline>
		<contour>
			<point x="292" y="0" type="line"/>
			<point x="404" y="0" type="line"/>
			<point x="690" y="739" type="line"/>
			<point x="546" y="739" type="line"/>
			<point x="347" y="177" type="line"/>
			<point x="148" y="739" type="line"/>
			<point x="4" y="739" type="line"/>
		</contour>
	</outline>
	<anchor name="Anchor-0" x="347" y="805"/>
</glyph>
<glyph name="Z" format="2">
	<unicode hex="005A"/>
	<advance width="522"/>
	<outline>
		<contour>
			<point x="30" y="0" type="line"/>
			<point x="492" y="0" type="line"/>
			<point x="492" y="131" type="line"/>
			<point x="195" y="131" type="line"/>
			<point x="473" y="616" type="line"/>
			<point x="473" y="739" type="line"/>
			<point x="45" y="739" type="line"/>
			<point x="45" y="608" type="line"/>
			<point x="310" y="608" type="line"/>
			<point x="30" y="116" type="line"/>
		</contour>
	</outline>
	<anchor name="Anchor-0" x="259" y="805"/>
</glyph>
<glyph name="bracketleft" format="2">
	<unicode hex="005B"/>
	<advance width="313"/>
	<outline>
		<contour>
			<point x="276" y="10" type="line"/>
			<point x="216.894" y="33.642"/>
			<point x="193" y="77.976"/>
			<point x="193" y="164" type="curve" smooth="yes"/>
			<point x="193" y="419" type="line" smooth="yes"/>
			<point x="193" y="521.516"/>
			<point x="214.528" y="566.386"/>
			<point x="276" y="592" type="curve"/>
			<point x="276" y="739" type="line"/>
			<point x="127.696" y="696.627"/>
			<point x="58" y="602.953"/>
			<point x="58" y="446" type="curve" smooth="yes"/>
			<point x="58" y="187" type="line" smooth="yes"/>
			<point x="58" y="3.196"/>
			<point x="130.588" y="-104.686"/>
			<point x="276" y="-137" type="curve"/>
		</contour>
	</outline>
</glyph>
<glyph name="bracketright" format="2">
	<unicode hex="005D"/>
	<advance width="313"/>
	<outline>
		<contour>
			<point x="37" y="-137" type="line"/>
			<point x="186.111" y="-94.397"/>
			<point x="255" y="-1.808"/>
			<point x="255" y="156" type="curve" smooth="yes"/>
			<point x="255" y="415" type="line" smooth="yes"/>
			<point x="255" y="598.804"/>
			<point x="182.412" y="706.686"/>
			<point x="37" y="739" type="curve"/>
			<point x="37" y="592" type="line"/>
			<point x="96.106" y="568.358"/>
			<point x="120" y="524.024"/>
			<point x="120" y="438" type="curve" smooth="yes"/>
			<point x="120" y="183" type="line" smooth="yes"/>
			<point x="120" y="80.484"/>
			<point x="98.472" y="35.614"/>
			<point x="37" y="10" type="curve"/>
		</contour>
	</outline>
</glyph>
<glyph name="asciicircum" format="2">
	<unicode hex="005E"/>
	<advance width="600"/>
	<outline>
		<contour>
			<point x="37.366" y="313.456" type="line"/>
			<point x="164" y="313" type="line"/>
			<point x="300" y="589" type="line"/>
			<point x="436" y="313" type="line"/>
			<point x="563.803" y="313" type="line"/>
			<point x="361" y="739" type="line"/>
			<point x="239" y="739" type="line"/>
		</contour>
	</outline>
</glyph>
<glyph name="grave" format="2">
	<unicode hex="0060"/>
	<advance width="407"/>
	<outline>
		<contour>
			<point x="64" y="737" type="line"/>
			<point x="290" y="613" type="line"/>
			<point x="343" y="692" type="line"/>
			<point x="121" y="825" type="line"/>
		</contour>
	</outline>
</glyph>
<glyph name="b" format="2">
	<unicode hex="0062"/>
	<advance width="666"/>
	<outline>
		<contour>
			<point x="54" y="0" type="line"/>
			<point x="176" y="0" type="line"/>
			<point x="176" y="71" type="line"/>
			<point x="232.852" y="10.159"/>
			<point x="285.786" y="-13"/>
			<point x="368" y="-13" type="curve" smooth="yes"/>
			<point x="524.231" y="-13"/>
			<point x="638" y="110.882"/>
			<point x="638" y="281" type="curve" smooth="yes"/>
			<point x="638" y="449.014"/>
			<point x="518.986" y="574"/>
			<point x="359" y="574" type="curve" smooth="yes"/>
			<point x="286.725" y="574"/>
			<point x="239.527" y="554.517"/>
			<point x="187" y="503" type="curve"/>
			<point x="187" y="739" type="line"/>
			<point x="54" y="739" type="line"/>
		</contour>
		<contour>
			<point x="343" y="109" type="curve" smooth="yes"/>
			<point x="247.247" y="109"/>
			<point x="179" y="179.744"/>
			<point x="179" y="279" type="curve" smooth="yes"/>
			<point x="179" y="380.094"/>
			<point x="245.087" y="452"/>
			<point x="338" y="452" type="curve" smooth="yes"/>
			<point x="435.936" y="452"/>
			<point x="504" y="381.066"/>
			<point x="504" y="279" type="curve" smooth="yes"/>
			<point x="504" y="178.345"/>
			<point x="438.326" y="109"/>
		</contour>
	</outline>
	<anchor name="Anchor-0" x="328" y="805"/>
</glyph>
<glyph name="c" format="2">
	<unicode hex="0063"/>
	<advance width="625"/>
	<outline>
		<contour>
			<point x="449" y="182" type="line"/>
			<point x="416.008" y="131.013"/>
			<point x="378.014" y="109"/>
			<point x="323" y="109" type="curve" smooth="yes"/>
			<point x="230.796" y="109"/>
			<point x="162" y="181.214"/>
			<point x="162" y="278" type="curve" smooth="yes"/>
			<point x="162" y="376.149"/>
			<point x="227.141" y="445"/>
			<point x="320" y="445" type="curve" smooth="yes"/>
			<point x="380.632" y="445"/>
			<point x="422.278" y="420.464"/>
			<point x="449" y="369" type="curve"/>
			<point x="599" y="369" type="line"/>
			<point x="555.078" y="493.832"/>
			<point x="451.977" y="567"/>
			<point x="320" y="567" type="curve" smooth="yes"/>
			<point x="155.938" y="567"/>
			<point x="28" y="439.938"/>
			<point x="28" y="277" type="curve" smooth="yes"/>
			<point x="28" y="116.162"/>
			<point x="159.834" y="-13"/>
			<point x="324" y="-13" type="curve" smooth="yes"/>
			<point x="453.436" y="-13"/>
			<point x="552.799" y="57.457"/>
			<point x="599" y="182" type="curve"/>
		</contour>
	</outline>
	<anchor name="Anchor-0" x="320" y="630"/>
</glyph>
<glyph name="d" format="2">
	<unicode hex="0064"/>
	<advance width="665"/>
	<outline>
		<contour>
			<point x="28" y="278" type="curve" smooth="yes"/>
			<point x="28" y="113.329"/>
			<point x="148.686" y="-13"/>
			<point x="306" y="-13" type="curve" smooth="yes"/>
			<point x="381.088" y="-13"/>
			<point x="435.063" y="12.07"/>
			<point x="489" y="72" type="curve"/>
			<point x="489" y="0" type="line"/>
			<point x="611" y="0" type="line"/>
			<point x="611" y="739" type="line"/>
			<point x="478" y="739" type="line"/>
			<point x="478" y="505" type="line"/>
			<point x="438.663" y="548.371"/>
			<point x="374.406" y="574"/>
			<point x="305" y="574" type="curve" smooth="yes"/>
			<point x="149.828" y="574"/>
			<point x="28" y="443.816"/>
		</contour>
		<contour>
			<point x="162" y="282" type="curve" smooth="yes"/>
			<point x="162" y="377.813"/>
			<point x="231.824" y="452"/>
			<point x="322" y="452" type="curve" smooth="yes"/>
			<point x="417.977" y="452"/>
			<point x="488" y="379.024"/>
			<point x="488" y="279" type="curve" smooth="yes"/>
			<point x="488" y="183.984"/>
			<point x="416.985" y="109"/>
			<point x="327" y="109" type="curve" smooth="yes"/>
			<point x="234.743" y="109"/>
			<point x="162" y="185.27"/>
		</contour>
	</outline>
	<anchor name="Anchor-0" x="324" y="805"/>
</glyph>
<glyph name="f" format="2">
	<unicode hex="0066"/>
	<advance width="294"/>
	<outline>
		<contour>
			<point x="68" y="0" type="line"/>
			<point x="201" y="0" type="line"/>
			<point x="201" y="433" type="line"/>
			<point x="276" y="433" type="line"/>
			<point x="276" y="544" type="line"/>
			<point x="201" y="544" type="line"/>
			<point x="202.005" y="594.251"/>
			<point x="219.254" y="611"/>
			<point x="270" y="611" type="curve" smooth="yes"/>
			<point x="284" y="611" type="line"/>
			<point x="284" y="737" type="line"/>
			<point x="268" y="739"/>
			<point x="260" y="739"/>
			<point x="251" y="739" type="curve" smooth="yes"/>
			<point x="142.41" y="739"/>
			<point x="80.55" y="673.083"/>
			<point x="68" y="544" type="curve"/>
			<point x="20" y="544" type="line"/>
			<point x="20" y="433" type="line"/>
			<point x="68" y="433" type="line"/>
		</contour>
	</outline>
	<anchor name="Anchor-0" x="171" y="805"/>
</glyph>
<glyph name="g" format="2">
	<unicode hex="0067"/>
	<advance width="663"/>
	<outline>
		<contour>
			<point x="37" y="-45" type="line"/>
			<point x="82.21" y="-156.517"/>
			<point x="186.628" y="-221"/>
			<point x="322" y="-221" type="curve" smooth="yes"/>
			<point x="511.235" y="-221"/>
			<point x="609" y="-109.95"/>
			<point x="609" y="105" type="curve" smooth="yes"/>
			<point x="609" y="554" type="line"/>
			<point x="482" y="554" type="line"/>
			<point x="482" y="484" type="line"/>
			<point x="440.032" y="539.958"/>
			<point x="381.06" y="567"/>
			<point x="301" y="567" type="curve" smooth="yes"/>
			<point x="144.227" y="567"/>
			<point x="28" y="445.238"/>
			<point x="28" y="281" type="curve" smooth="yes"/>
			<point x="28" y="110.11"/>
			<point x="141.898" y="-13"/>
			<point x="300" y="-13" type="curve" smooth="yes"/>
			<point x="377.522" y="-13"/>
			<point x="429.607" y="11.621"/>
			<point x="481.93" y="73" type="curve"/>
			<point x="481.93" y="55.075" type="line" smooth="yes"/>
			<point x="481.93" y="-46.779"/>
			<point x="426.2" y="-104"/>
			<point x="327" y="-104" type="curve" smooth="yes"/>
			<point x="264.847" y="-104"/>
			<point x="226.905" y="-87.895"/>
			<point x="188" y="-45" type="curve"/>
		</contour>
		<contour>
			<point x="318" y="109" type="curve" smooth="yes"/>
			<point x="223.042" y="109"/>
			<point x="162" y="173.955"/>
			<point x="162" y="275" type="curve" smooth="yes"/>
			<point x="162" y="376.888"/>
			<point x="222.9" y="445"/>
			<point x="314" y="445" type="curve" smooth="yes"/>
			<point x="410.714" y="445"/>
			<point x="476" y="377.296"/>
			<point x="476" y="277" type="curve" smooth="yes"/>
			<point x="476" y="174.962"/>
			<point x="413.964" y="109"/>
		</contour>
	</outline>
	<anchor name="Anchor-0" x="347" y="630"/>
</glyph>
<glyph name="h" format="2">
	<unicode hex="0068"/>
	<advance width="597"/>
	<outline>
		<contour>
			<point x="54" y="0" type="line"/>
			<point x="187" y="0" type="line"/>
			<point x="187" y="281" type="line" smooth="yes"/>
			<point x="187" y="392.784"/>
			<point x="224.251" y="445"/>
			<point x="304" y="445" type="curve" smooth="yes"/>
			<point x="382" y="445"/>
			<point x="412" y="400"/>
			<point x="412" y="283" type="curve" smooth="yes"/>
			<point x="412" y="0" type="line"/>
			<point x="545" y="0" type="line"/>
			<point x="545" y="313" type="line" smooth="yes"/>
			<point x="545" y="481.828"/>
			<point x="471.67" y="568"/>
			<point x="328" y="568" type="curve" smooth="yes"/>
			<point x="270.192" y="568"/>
			<point x="227.134" y="552.12"/>
			<point x="187" y="516" type="curve"/>
			<point x="187" y="739" type="line"/>
			<point x="54" y="739" type="line"/>
		</contour>
	</outline>
	<anchor name="Anchor-0" x="294" y="805"/>
</glyph>
<glyph name="k" format="2">
	<unicode hex="006B"/>
	<advance width="557"/>
	<outline>
		<contour>
			<point x="54" y="0" type="line"/>
			<point x="187" y="0" type="line"/>
			<point x="187" y="94.121" type="line"/>
			<point x="246.847" y="176.033" type="line"/>
			<point x="376" y="0" type="line"/>
			<point x="555" y="0" type="line"/>
			<point x="325" y="283" type="line"/>
			<point x="523" y="554" type="line"/>
			<point x="364" y="554" type="line"/>
			<point x="187" y="293" type="line"/>
			<point x="187" y="739" type="line"/>
			<point x="54" y="739" type="line"/>
		</contour>
	</outline>
	<anchor name="Anchor-0" x="270" y="805"/>
</glyph>
<glyph name="l" format="2">
	<unicode hex="006C"/>
	<advance width="241"/>
	<outline>
		<contour>
			<point x="54" y="0" type="line"/>
			<point x="187" y="0" type="line"/>
			<point x="187" y="739" type="line"/>
			<point x="54" y="739" type="line"/>
		</contour>
	</outline>
	<anchor name="Anchor-0" x="120" y="805"/>
</glyph>
<glyph name="m" format="2">
	<unicode hex="006D"/>
	<advance width="937"/>
	<outline>
		<contour>
			<point x="54" y="0" type="line"/>
			<point x="187" y="0" type="line"/>
			<point x="187" y="273" type="line" smooth="yes"/>
			<point x="187" y="395.525"/>
			<point x="218.353" y="445"/>
			<point x="296" y="445" type="curve" smooth="yes"/>
			<point x="370.365" y="445"/>
			<point x="403" y="401.995"/>
			<point x="403" y="304" type="curve" smooth="yes"/>
			<point x="403" y="0" type="line"/>
			<point x="536" y="0" type="line"/>
			<point x="536" y="273" type="line" smooth="yes"/>
			<point x="536" y="391.494"/>
			<point x="570.841" y="445"/>
			<point x="648" y="445" type="curve" smooth="yes"/>
			<point x="718.749" y="445"/>
			<point x="752" y="399.919"/>
			<point x="752" y="304" type="curve" smooth="yes"/>
			<point x="752" y="0" type="line"/>
			<point x="885" y="0" type="line"/>
			<point x="885" y="320" type="line" smooth="yes"/>
			<point x="885" y="483.025"/>
			<point x="808.505" y="567"/>
			<point x="660" y="567" type="curve" smooth="yes"/>
			<point x="581.756" y="567"/>
			<point x="527.86" y="540.813"/>
			<point x="483" y="481" type="curve"/>
			<point x="445.151" y="541.758"/>
			<point x="397.308" y="567"/>
			<point x="320" y="567" type="curve" smooth="yes"/>
			<point x="254.938" y="567"/>
			<point x="214.963" y="548.956"/>
			<point x="176" y="502" type="curve"/>
			<point x="176" y="554" type="line"/>
			<point x="54" y="554" type="line"/>
		</contour>
	</outline>
	<anchor name="Anchor-0" x="469" y="630"/>
</glyph>
<glyph name="n" format="2">
	<unicode hex="006E"/>
	<advance width="598"/>
	<outline>
		<contour>
			<point x="54" y="0" type="line"/>
			<point x="187" y="0" type="line"/>
			<point x="187" y="261" type="line" smooth="yes"/>
			<point x="187" y="389.2"/>
			<point x="223.391" y="445"/>
			<point x="307" y="445" type="curve" smooth="yes"/>
			<point x="382.637" y="445"/>
			<point x="413" y="395.159"/>
			<point x="413" y="271" type="curve" smooth="yes"/>
			<point x="413" y="0" type="line"/>
			<point x="546" y="0" type="line"/>
			<point x="546" y="297" type="line" smooth="yes"/>
			<point x="546" y="483.497"/>
			<point x="480.126" y="567"/>
			<point x="333" y="567" type="curve" smooth="yes"/>
			<point x="268.773" y="567"/>
			<point x="225.827" y="548.831"/>
			<point x="177" y="501" type="curve"/>
			<point x="177" y="554" type="line"/>
			<point x="54" y="554" type="line"/>
		</contour>
	</outline>
	<anchor name="Anchor-0" x="300" y="630"/>
</glyph>
<glyph name="o" format="2">
	<unicode hex="006F"/>
	<advance width="645"/>
	<outline>
		<contour>
			<point x="28" y="276" type="curve" smooth="yes"/>
			<point x="28" y="116.658"/>
			<point x="160.349" y="-13"/>
			<point x="323" y="-13" type="curve" smooth="yes"/>
			<point x="484.875" y="-13"/>
			<point x="617" y="116.878"/>
			<point x="617" y="276" type="curve" smooth="yes"/>
			<point x="617" y="436.224"/>
			<point x="485.775" y="567"/>
			<point x="325" y="567" type="curve" smooth="yes"/>
			<point x="159.33" y="567"/>
			<point x="28" y="438.323"/>
		</contour>
		<contour>
			<point x="322" y="109" type="curve" smooth="yes"/>
			<point x="233.714" y="109"/>
			<point x="162" y="184.3"/>
			<point x="162" y="277" type="curve" smooth="yes"/>
			<point x="162" y="368.722"/>
			<point x="233.738" y="445"/>
			<point x="320" y="445" type="curve" smooth="yes"/>
			<point x="411.314" y="445"/>
			<point x="483" y="370.675"/>
			<point x="483" y="276" type="curve" smooth="yes"/>
			<point x="483" y="183.842"/>
			<point x="410.847" y="109"/>
		</contour>
	</outline>
	<anchor name="Anchor-0" x="322" y="630"/>
</glyph>
<glyph name="p" format="2">
	<unicode hex="0070"/>
	<advance width="662"/>
	<outline>
		<contour>
			<point x="54" y="-185" type="line"/>
			<point x="187" y="-185" type="line"/>
			<point x="187" y="52" type="line"/>
			<point x="238.5" y="6.559"/>
			<point x="289.654" y="-13"/>
			<point x="357" y="-13" type="curve" smooth="yes"/>
			<point x="516.685" y="-13"/>
			<point x="634" y="110.668"/>
			<point x="634" y="279" type="curve" smooth="yes"/>
			<point x="634" y="445.978"/>
			<point x="518.021" y="567"/>
			<point x="358" y="567" type="curve" smooth="yes"/>
			<point x="282.5" y="567"/>
			<point x="218.717" y="539.664"/>
			<point x="176" y="489" type="curve"/>
			<point x="176" y="554" type="line"/>
			<point x="54" y="554" type="line"/>
		</contour>
		<contour>
			<point x="342" y="109" type="curve" smooth="yes"/>
			<point x="249.849" y="109"/>
			<point x="179" y="181.153"/>
			<point x="179" y="275" type="curve" smooth="yes"/>
			<point x="179" y="371.613"/>
			<point x="247.638" y="445"/>
			<point x="338" y="445" type="curve" smooth="yes"/>
			<point x="431.491" y="445"/>
			<point x="500" y="373.531"/>
			<point x="500" y="276" type="curve" smooth="yes"/>
			<point x="500" y="181.965"/>
			<point x="430.967" y="109"/>
		</contour>
	</outline>
	<anchor name="Anchor-0" x="328" y="630"/>
</glyph>
<glyph name="q" format="2">
	<unicode hex="0071"/>
	<advance width="663"/>
	<outline>
		<contour>
			<point x="476" y="-185" type="line"/>
			<point x="609" y="-185" type="line"/>
			<point x="609" y="554" type="line"/>
			<point x="487" y="554" type="line"/>
			<point x="487" y="483" type="line"/>
			<point x="442.804" y="541.258"/>
			<point x="387.643" y="567"/>
			<point x="307" y="567" type="curve" smooth="yes"/>
			<point x="151.016" y="567"/>
			<point x="28" y="440.016"/>
			<point x="28" y="279" type="curve" smooth="yes"/>
			<point x="28" y="113.888"/>
			<point x="150.108" y="-13"/>
			<point x="309" y="-13" type="curve" smooth="yes"/>
			<point x="376.667" y="-13"/>
			<point x="431.782" y="8.782"/>
			<point x="476" y="53" type="curve"/>
		</contour>
		<contour>
			<point x="325" y="109" type="curve" smooth="yes"/>
			<point x="231.15" y="109"/>
			<point x="162" y="179.847"/>
			<point x="162" y="276" type="curve" smooth="yes"/>
			<point x="162" y="371.031"/>
			<point x="232.03" y="445"/>
			<point x="322" y="445" type="curve" smooth="yes"/>
			<point x="416.671" y="445"/>
			<point x="484" y="374.346"/>
			<point x="484" y="275" type="curve" smooth="yes"/>
			<point x="484" y="179.497"/>
			<point x="416.476" y="109"/>
		</contour>
	</outline>
	<anchor name="Anchor-0" x="347" y="630"/>
</glyph>
<glyph name="u" format="2">
	<unicode hex="0075"/>
	<advance width="599"/>
	<outline>
		<contour>
			<point x="422" y="0" type="line"/>
			<point x="545" y="0" type="line"/>
			<point x="545" y="554" type="line"/>
			<point x="412" y="554" type="line"/>
			<point x="412" y="293" type="line" smooth="yes"/>
			<point x="412" y="159.748"/>
			<point x="378.352" y="109"/>
			<point x="290" y="109" type="curve" smooth="yes"/>
			<point x="215.603" y="109"/>
			<point x="185" y="159.714"/>
			<point x="185" y="283" type="curve" smooth="yes"/>
			<point x="185" y="554" type="line"/>
			<point x="52" y="554" type="line"/>
			<point x="52" y="257" type="line" smooth="yes"/>
			<point x="52" y="78.652"/>
			<point x="123.625" y="-13"/>
			<point x="263" y="-13" type="curve" smooth="yes"/>
			<point x="330.023" y="-13"/>
			<point x="371.017" y="4.017"/>
			<point x="422" y="53" type="curve"/>
		</contour>
	</outline>
	<anchor name="Anchor-0" x="298" y="630"/>
</glyph>
<glyph name="v" format="2">
	<unicode hex="0076"/>
	<advance width="558"/>
	<outline>
		<contour>
			<point x="226" y="0" type="line"/>
			<point x="332" y="0" type="line"/>
			<point x="555" y="554" type="line"/>
			<point x="405" y="554" type="line"/>
			<point x="279" y="187" type="line"/>
			<point x="151" y="554" type="line"/>
			<point x="3" y="554" type="line"/>
		</contour>
	</outline>
	<anchor name="Anchor-0" x="279" y="630"/>
</glyph>
<glyph name="y" format="2">
	<unicode hex="0079"/>
	<advance width="568"/>
	<outline>
		<contour>
			<point x="102" y="-185" type="line"/>
			<point x="245" y="-185" type="line"/>
			<point x="565" y="554" type="line"/>
			<point x="412" y="554" type="line"/>
			<point x="278" y="195" type="line"/>
			<point x="155" y="554" type="line"/>
			<point x="3" y="554" type="line"/>
			<point x="206" y="52" type="line"/>
		</contour>
	</outline>
	<anchor name="Anchor-0" x="284" y="630"/>
</glyph>
<glyph name="exclamdown" format="2">
	<unicode hex="00A1"/>
	<advance width="321"/>
	<outline>
		<contour>
			<point x="94" y="-185" type="line"/>
			<point x="227" y="-185" type="line"/>
			<point x="227" y="366" type="line"/>
			<point x="94" y="366" type="line"/>
		</contour>
		<contour>
			<point x="94" y="426" type="line"/>
			<point x="227" y="426" type="line"/>
			<point x="227" y="554" type="line"/>
			<point x="94" y="554" type="line"/>
		</contour>
	</outline>
</glyph>
<glyph name="sterling" format="2">
	<unicode hex="00A3"/>
	<advance width="560"/>
	<outline>
		<contour>
			<point x="41" y="0" type="line"/>
			<point x="301" y="0" type="line" smooth="yes"/>
			<point x="465.126" y="0"/>
			<point x="563" y="82.932"/>
			<point x="563" y="222" type="curve" smooth="yes"/>
			<point x="563" y="239.409"/>
			<point x="560.281" y="252.262"/>
			<point x="552" y="274" type="curve"/>
			<point x="420" y="274" type="line"/>
			<point x="427.736" y="249.824"/>
			<point x="430" y="237.6"/>
			<point x="430" y="220" type="curve" smooth="yes"/>
			<point x="430" y="161.514"/>
			<point x="390.145" y="125.051"/>
			<point x="326.217" y="125.051" type="curve" smooth="yes"/>
			<point x="320" y="125.051" type="line"/>
			<point x="327.978" y="148.985"/>
			<point x="333" y="177.939"/>
			<point x="333" y="200" type="curve" smooth="yes"/>
			<point x="333" y="236.25"/>
			<point x="324.836" y="264.315"/>
			<point x="301" y="310" type="curve"/>
			<point x="408" y="310" type="line"/>
			<point x="408" y="435" type="line"/>
			<point x="201" y="435" type="line"/>
			<point x="182.447" y="456.482"/>
			<point x="174" y="480.259"/>
			<point x="174" y="511" type="curve" smooth="yes"/>
			<point x="174" y="577.864"/>
			<point x="220.878" y="630"/>
			<point x="281" y="630" type="curve" smooth="yes"/>
			<point x="329.382" y="630"/>
			<point x="365.11" y="597.553"/>
			<point x="379" y="541" type="curve"/>
			<point x="514" y="541" type="line"/>
			<point x="502.984" y="666.183"/>
			<point x="407.813" y="752"/>
			<point x="280" y="752" type="curve" smooth="yes"/>
			<point x="146.161" y="752"/>
			<point x="41" y="648.159"/>
			<point x="41" y="516" type="curve" smooth="yes"/>
			<point x="41" y="485.412"/>
			<point x="45.836" y="462.368"/>
			<point x="58" y="435" type="curve"/>
			<point x="0" y="435" type="line"/>
			<point x="0" y="310" type="line"/>
			<point x="142" y="310" type="line"/>
			<point x="184.087" y="269.918"/>
			<point x="200" y="238.914"/>
			<point x="200" y="197" type="curve" smooth="yes"/>
			<point x="200" y="171.6"/>
			<point x="193.315" y="147.532"/>
			<point x="180" y="125" type="curve"/>
			<point x="41" y="125" type="line"/>
		</contour>
	</outline>
</glyph>
<glyph name="currency" format="2">
	<unicode hex="00A4"/>
	<advance width="560"/>
	<outline>
		<contour>
			<point x="106" y="148" type="line"/>
			<point x="150" y="190" type="line"/>
			<point x="190.012" y="165.993"/>
			<point x="236.014" y="153"/>
			<point x="281" y="153" type="curve" smooth="yes"/>
			<point x="325.486" y="153"/>
			<point x="370.521" y="165.72"/>
			<point x="412" y="190" type="curve"/>
			<point x="456" y="148" type="line"/>
			<point x="533" y="228" type="line"/>
			<point x="491" y="271" type="line"/>
			<point x="519.808" y="316.696"/>
			<point x="529" y="347.658"/>
			<point x="529" y="399" type="curve" smooth="yes"/>
			<point x="529" y="450.446"/>
			<point x="520.751" y="479.43"/>
			<point x="492" y="529" type="curve"/>
			<point x="534" y="572" type="line"/>
			<point x="457" y="653" type="line"/>
			<point x="412" y="610" type="line"/>
			<point x="369.736" y="634.572"/>
			<point x="327.833" y="646"/>
			<point x="280" y="646" type="curve" smooth="yes"/>
			<point x="233.056" y="646"/>
			<point x="194.05" y="635.03"/>
			<point x="152" y="610" type="curve"/>
			<point x="107" y="654" type="line"/>
			<point x="27" y="574" type="line"/>
			<point x="69" y="529" type="line"/>
			<point x="39.37" y="471.783"/>
			<point x="33" y="448.958"/>
			<point x="33" y="400" type="curve" smooth="yes"/>
			<point x="33" y="351.444"/>
			<point x="39.732" y="327.508"/>
			<point x="69" y="272" type="curve"/>
			<point x="27" y="229" type="line"/>
		</contour>
		<contour>
			<point x="153" y="401" type="curve" smooth="yes"/>
			<point x="153" y="469.18"/>
			<point x="211.184" y="526"/>
			<point x="281" y="526" type="curve" smooth="yes"/>
			<point x="351.938" y="526"/>
			<point x="407" y="470.063"/>
			<point x="407" y="398" type="curve" smooth="yes"/>
			<point x="407" y="328.778"/>
			<point x="350.776" y="273"/>
			<point x="281" y="273" type="curve" smooth="yes"/>
			<point x="210.5" y="273"/>
			<point x="153" y="330.5"/>
		</contour>
	</outline>
</glyph>
<glyph name="section" format="2">
	<unicode hex="00A7"/>
	<advance width="560"/>
	<outline>
		<contour>
			<point x="55" y="55" type="line"/>
			<point x="66.22" y="-77.395"/>
			<point x="152.208" y="-157"/>
			<point x="284" y="-157" type="curve" smooth="yes"/>
			<point x="409.899" y="-157"/>
			<point x="499" y="-79.088"/>
			<point x="499" y="31" type="curve" smooth="yes"/>
			<point x="499" y="79.84"/>
			<point x="484.391" y="114.609"/>
			<point x="449" y="150" type="curve"/>
			<point x="497.052" y="186.039"/>
			<point x="524" y="237.06"/>
			<point x="524" y="292" type="curve" smooth="yes"/>
			<point x="524" y="350.712"/>
			<point x="490.191" y="404.729"/>
			<point x="437" y="431" type="curve" smooth="yes"/>
			<point x="273" y="512" type="line" smooth="yes"/>
			<point x="232.744" y="531.883"/>
			<point x="212" y="555.347"/>
			<point x="212" y="581" type="curve" smooth="yes"/>
			<point x="212" y="611.632"/>
			<point x="237.49" y="630"/>
			<point x="280" y="630" type="curve" smooth="yes"/>
			<point x="331.164" y="630"/>
			<point x="357.029" y="609.85"/>
			<point x="366" y="563" type="curve"/>
			<point x="492" y="563" type="line"/>
			<point x="475.943" y="687.44"/>
			<point x="405.577" y="752"/>
			<point x="286" y="752" type="curve" smooth="yes"/>
			<point x="167.169" y="752"/>
			<point x="85" y="684.139"/>
			<point x="85" y="586" type="curve" smooth="yes"/>
			<point x="85" y="549.786"/>
			<point x="93.118" y="522.824"/>
			<point x="113" y="493" type="curve"/>
			<point x="57.977" y="451.983"/>
			<point x="35" y="408.974"/>
			<point x="35" y="347" type="curve" smooth="yes"/>
			<point x="35" y="274.381"/>
			<point x="68.057" y="222.014"/>
			<point x="136" y="187" type="curve" smooth="yes"/>
			<point x="299" y="103" type="line" smooth="yes"/>
			<point x="358.336" y="72.422"/>
			<point x="372" y="58.758"/>
			<point x="372" y="30" type="curve" smooth="yes"/>
			<point x="372" y="-7.678"/>
			<point x="335.431" y="-35"/>
			<point x="285" y="-35" type="curve" smooth="yes"/>
			<point x="221.677" y="-35"/>
			<point x="189" y="-4.365"/>
			<point x="189" y="55" type="curve"/>
		</contour>
		<contour>
			<point x="363" y="215" type="curve"/>
			<point x="212" y="291" type="line" smooth="yes"/>
			<point x="169.393" y="312.444"/>
			<point x="152" y="330.707"/>
			<point x="152" y="354" type="curve" smooth="yes"/>
			<point x="152" y="374.679"/>
			<point x="162.559" y="390.654"/>
			<point x="191" y="413" type="curve"/>
			<point x="340" y="339" type="line" smooth="yes"/>
			<point x="387.317" y="315.5"/>
			<point x="400" y="302.606"/>
			<point x="400" y="278" type="curve" smooth="yes"/>
			<point x="400" y="254.919"/>
			<point x="385.919" y="230.944"/>
		</contour>
	</outline>
</glyph>
<glyph name="dieresis" format="2">
	<unicode hex="00A8"/>
	<advance width="471"/>
	<outline>
		<contour>
			<point x="64" y="630" type="line"/>
			<point x="197" y="630" type="line"/>
			<point x="197" y="763" type="line"/>
			<point x="64" y="763" type="line"/>
		</contour>
		<contour>
			<point x="274" y="630" type="line"/>
			<point x="407" y="630" type="line"/>
			<point x="407" y="763" type="line"/>
			<point x="274" y="763" type="line"/>
		</contour>
	</outline>
</glyph>
<glyph name="copyright" format="2">
	<unicode hex="00A9"/>
	<advance width="791"/>
	<outline>
		<contour>
			<point x="183" y="372" type="curve" smooth="yes"/>
			<point x="183" y="251.839"/>
			<point x="279.163" y="157"/>
			<point x="401" y="157" type="curve" smooth="yes"/>
			<point x="502.328" y="157"/>
			<point x="586.077" y="222.316"/>
			<point x="610" y="320" type="curve"/>
			<point x="499" y="320" type="line"/>
			<point x="476.928" y="273.85"/>
			<point x="442.857" y="250"/>
			<point x="399" y="250" type="curve" smooth="yes"/>
			<point x="336.366" y="250"/>
			<point x="288" y="303.595"/>
			<point x="288" y="373" type="curve" smooth="yes"/>
			<point x="288" y="441.838"/>
			<point x="335.851" y="494"/>
			<point x="399" y="494" type="curve" smooth="yes"/>
			<point x="444.056" y="494"/>
			<point x="483.02" y="465.946"/>
			<point x="499" y="422" type="curve"/>
			<point x="610" y="422" type="line"/>
			<point x="594.028" y="514.835"/>
			<point x="502.182" y="587"/>
			<point x="400" y="587" type="curve" smooth="yes"/>
			<point x="277.937" y="587"/>
			<point x="183" y="492.938"/>
		</contour>
		<contour>
			<point x="10" y="369" type="curve" smooth="yes"/>
			<point x="10" y="158.104"/>
			<point x="182.895" y="-13"/>
			<point x="396" y="-13" type="curve" smooth="yes"/>
			<point x="608.329" y="-13"/>
			<point x="781" y="158.326"/>
			<point x="781" y="369" type="curve" smooth="yes"/>
			<point x="781" y="579.049"/>
			<point x="608.952" y="752"/>
			<point x="400" y="752" type="curve" smooth="yes"/>
			<point x="182.044" y="752"/>
			<point x="10" y="583.044"/>
		</contour>
		<contour>
			<point x="90" y="370" type="curve" smooth="yes"/>
			<point x="90" y="536.82"/>
			<point x="226.821" y="675"/>
			<point x="392" y="675" type="curve" smooth="yes"/>
			<point x="564.838" y="675"/>
			<point x="701" y="540.16"/>
			<point x="701" y="369" type="curve" smooth="yes"/>
			<point x="701" y="202.605"/>
			<point x="563.599" y="67"/>
			<point x="395" y="67" type="curve" smooth="yes"/>
			<point x="226.949" y="67"/>
			<point x="90" y="203.051"/>
		</contour>
	</outline>
</glyph>
<glyph name="registered" format="2">
	<unicode hex="00AE"/>
	<advance width="791"/>
	<outline>
		<contour>
			<point x="251" y="166" type="line"/>
			<point x="352" y="166" type="line"/>
			<point x="352" y="300" type="line"/>
			<point x="448" y="166" type="line"/>
			<point x="569" y="166" type="line"/>
			<point x="457" y="307" type="line"/>
			<point x="518.991" y="317.998"/>
			<point x="559" y="368.99"/>
			<point x="559" y="437" type="curve" smooth="yes"/>
			<point x="559" y="531.596"/>
			<point x="499.912" y="579"/>
			<point x="382" y="579" type="curve" smooth="yes"/>
			<point x="251" y="579" type="line"/>
		</contour>
		<contour>
			<point x="352" y="372" type="line"/>
			<point x="352" y="486" type="line"/>
			<point x="390" y="486" type="line" smooth="yes"/>
			<point x="433.857" y="486"/>
			<point x="458" y="466.118"/>
			<point x="458" y="430" type="curve" smooth="yes"/>
			<point x="458" y="393.007"/>
			<point x="433.009" y="372"/>
			<point x="389" y="372" type="curve" smooth="yes"/>
		</contour>
		<contour>
			<point x="10" y="369" type="curve" smooth="yes"/>
			<point x="10" y="158.104"/>
			<point x="182.895" y="-13"/>
			<point x="396" y="-13" type="curve" smooth="yes"/>
			<point x="608.329" y="-13"/>
			<point x="781" y="158.326"/>
			<point x="781" y="369" type="curve" smooth="yes"/>
			<point x="781" y="579.049"/>
			<point x="608.952" y="752"/>
			<point x="400" y="752" type="curve" smooth="yes"/>
			<point x="182.044" y="752"/>
			<point x="10" y="583.044"/>
		</contour>
		<contour>
			<point x="90" y="370" type="curve" smooth="yes"/>
			<point x="90" y="536.82"/>
			<point x="226.821" y="675"/>
			<point x="392" y="675" type="curve" smooth="yes"/>
			<point x="564.838" y="675"/>
			<point x="701" y="540.16"/>
			<point x="701" y="369" type="curve" smooth="yes"/>
			<point x="701" y="202.605"/>
			<point x="563.599" y="67"/>
			<point x="395" y="67" type="curve" smooth="yes"/>
			<point x="226.949" y="67"/>
			<point x="90" y="203.051"/>
		</contour>
	</outline>
</glyph>
<glyph name="macron" format="2">
	<unicode hex="00AF"/>
	<advance width="405"/>
	<outline>
		<contour>
			<point x="64" y="648" type="line"/>
			<point x="341" y="648" type="line"/>
			<point x="341" y="748" type="line"/>
			<point x="64" y="748" type="line"/>
		</contour>
	</outline>
</glyph>
<glyph name="threesuperior" format="2">
	<unicode hex="00B3"/>
	<advance width="336"/>
	<outline>
		<contour>
			<point x="3" y="435" type="line"/>
			<point x="8.02" y="347.648"/>
			<point x="75.378" y="288"/>
			<point x="169" y="288" type="curve" smooth="yes"/>
			<point x="261.881" y="288"/>
			<point x="330" y="351.888"/>
			<point x="330" y="439" type="curve" smooth="yes"/>
			<point x="330" y="490.636"/>
			<point x="306.298" y="530.858"/>
			<point x="264" y="551" type="curve"/>
			<point x="286.398" y="568.308"/>
			<point x="298" y="593.559"/>
			<point x="298" y="625" type="curve" smooth="yes"/>
			<point x="298" y="694.833"/>
			<point x="242.182" y="746"/>
			<point x="166" y="746" type="curve" smooth="yes"/>
			<point x="91.152" y="746"/>
			<point x="43.272" y="702.54"/>
			<point x="36" y="628" type="curve"/>
			<point x="125" y="628" type="line"/>
			<point x="130.054" y="657.313"/>
			<point x="141.275" y="668"/>
			<point x="167" y="668" type="curve" smooth="yes"/>
			<point x="191.947" y="668"/>
			<point x="210" y="652.047"/>
			<point x="210" y="630" type="curve" smooth="yes"/>
			<point x="210" y="600.32"/>
			<point x="188.104" y="588.039"/>
			<point x="135.187" y="588.039" type="curve" smooth="yes"/>
			<point x="127" y="588.039" type="line"/>
			<point x="127" y="506" type="line"/>
			<point x="148" y="506" type="line" smooth="yes"/>
			<point x="206.179" y="506"/>
			<point x="243" y="478.868"/>
			<point x="243" y="436" type="curve" smooth="yes"/>
			<point x="243" y="395.953"/>
			<point x="211.949" y="367"/>
			<point x="169" y="367" type="curve" smooth="yes"/>
			<point x="125.838" y="367"/>
			<point x="96.978" y="392.161"/>
			<point x="91" y="435" type="curve"/>
		</contour>
	</outline>
</glyph>
<glyph name="acute" format="2">
	<unicode hex="00B4"/>
	<advance width="406"/>
	<outline>
		<contour>
			<point x="115" y="613" type="line"/>
			<point x="342" y="733" type="line"/>
			<point x="288" y="825" type="line"/>
			<point x="64" y="691" type="line"/>
		</contour>
	</outline>
</glyph>
<glyph name="mu" format="2">
	<unicode hex="00B5"/>
	<advance width="601"/>
	<outline>
		<contour>
			<point x="54" y="-185" type="line"/>
			<point x="187" y="-185" type="line"/>
			<point x="187" y="52" type="line"/>
			<point x="220.011" y="5.985"/>
			<point x="253.015" y="-13"/>
			<point x="300" y="-13" type="curve" smooth="yes"/>
			<point x="350.591" y="-13"/>
			<point x="383.674" y="4.609"/>
			<point x="424" y="53" type="curve"/>
			<point x="424" y="0" type="line"/>
			<point x="547" y="0" type="line"/>
			<point x="547" y="554" type="line"/>
			<point x="414" y="554" type="line"/>
			<point x="414" y="293" type="line" smooth="yes"/>
			<point x="414" y="223.765"/>
			<point x="409.314" y="187.654"/>
			<point x="397" y="162" type="curve"/>
			<point x="380.142" y="129.275"/>
			<point x="345.33" y="109"/>
			<point x="306" y="109" type="curve" smooth="yes"/>
			<point x="268.632" y="109"/>
			<point x="234.944" y="127.794"/>
			<point x="211" y="162" type="curve" smooth="yes"/>
			<point x="190.326" y="191.535"/>
			<point x="187" y="209.688"/>
			<point x="187" y="293" type="curve" smooth="yes"/>
			<point x="187" y="554" type="line"/>
			<point x="54" y="554" type="line"/>
		</contour>
	</outline>
</glyph>
<glyph name="cedilla" format="2">
	<unicode hex="00B8"/>
	<advance width="324"/>
	<outline>
		<contour>
			<point x="64" y="-166" type="line"/>
			<point x="72.014" y="-216.087"/>
			<point x="113.088" y="-251"/>
			<point x="164" y="-251" type="curve" smooth="yes"/>
			<point x="221.106" y="-251"/>
			<point x="260" y="-210.891"/>
			<point x="260" y="-152" type="curve" smooth="yes"/>
			<point x="260" y="-96.753"/>
			<point x="218.777" y="-51"/>
			<point x="169" y="-51" type="curve" smooth="yes"/>
			<point x="160.643" y="-51"/>
			<point x="154.083" y="-52.583"/>
			<point x="140" y="-58" type="curve"/>
			<point x="161" y="0" type="line"/>
			<point x="109" y="0" type="line"/>
			<point x="73" y="-107" type="line"/>
			<point x="125" y="-133" type="line"/>
			<point x="139.052" y="-112.925"/>
			<point x="149.056" y="-106"/>
			<point x="164" y="-106" type="curve" smooth="yes"/>
			<point x="184.864" y="-106"/>
			<point x="202" y="-125.842"/>
			<point x="202" y="-150" type="curve" smooth="yes"/>
			<point x="202" y="-175.474"/>
			<point x="184.598" y="-196"/>
			<point x="163" y="-196" type="curve" smooth="yes"/>
			<point x="146.333" y="-196"/>
			<point x="134.184" y="-186.408"/>
			<point x="125" y="-166" type="curve"/>
		</contour>
	</outline>
</glyph>
<glyph name="onesuperior" format="2">
	<unicode hex="00B9"/>
	<advance width="336"/>
	<outline>
		<contour>
			<point x="140" y="296" type="line"/>
			<point x="228" y="296" type="line"/>
			<point x="228" y="739" type="line"/>
			<point x="81" y="739" type="line"/>
			<point x="81" y="659" type="line"/>
			<point x="140" y="659" type="line"/>
		</contour>
	</outline>
</glyph>
<glyph name="ordmasculine" format="2">
	<unicode hex="00BA"/>
	<advance width="367"/>
	<outline>
		<contour>
			<point x="184" y="442" type="curve" smooth="yes"/>
			<point x="268.945" y="442"/>
			<point x="337" y="510.944"/>
			<point x="337" y="597" type="curve" smooth="yes"/>
			<point x="337" y="681.05"/>
			<point x="268.951" y="750"/>
			<point x="186" y="750" type="curve" smooth="yes"/>
			<point x="98.882" y="750"/>
			<point x="30" y="682.885"/>
			<point x="30" y="598" type="curve" smooth="yes"/>
			<point x="30" y="511.948"/>
			<point x="99.051" y="442"/>
		</contour>
		<contour>
			<point x="184" y="516" type="curve" smooth="yes"/>
			<point x="137.287" y="516"/>
			<point x="103" y="550.71"/>
			<point x="103" y="598" type="curve" smooth="yes"/>
			<point x="103" y="642.816"/>
			<point x="138.823" y="680"/>
			<point x="182" y="680" type="curve" smooth="yes"/>
			<point x="227" y="680"/>
			<point x="264" y="643"/>
			<point x="264" y="598" type="curve" smooth="yes"/>
			<point x="264" y="550.925"/>
			<point x="229.927" y="516"/>
		</contour>
		<contour>
			<point x="30" y="311" type="line"/>
			<point x="337" y="311" type="line"/>
			<point x="337" y="381" type="line"/>
			<point x="30" y="381" type="line"/>
		</contour>
	</outline>
</glyph>
<glyph name="onequarter" format="2">
	<unicode hex="00BC"/>
	<advance width="840"/>
	<outline>
		<contour>
			<point x="110" y="296" type="line"/>
			<point x="198" y="296" type="line"/>
			<point x="198" y="739" type="line"/>
			<point x="51" y="739" type="line"/>
			<point x="51" y="659" type="line"/>
			<point x="110" y="659" type="line"/>
		</contour>
		<contour>
			<point x="177" y="0" type="line"/>
			<point x="272" y="0" type="line"/>
			<point x="578" y="739" type="line"/>
			<point x="483" y="739" type="line"/>
		</contour>
		<contour>
			<point x="463" y="66" type="line"/>
			<point x="657" y="66" type="line"/>
			<point x="657" y="0" type="line"/>
			<point x="745" y="0" type="line"/>
			<point x="745" y="66" type="line"/>
			<point x="793" y="66" type="line"/>
			<point x="793" y="142" type="line"/>
			<point x="745" y="142" type="line"/>
			<point x="745" y="443" type="line"/>
			<point x="671" y="443" type="line"/>
			<point x="463" y="133" type="line"/>
		</contour>
		<contour>
			<point x="555" y="142" type="line"/>
			<point x="657" y="296" type="line"/>
			<point x="657" y="142" type="line"/>
		</contour>
	</outline>
</glyph>
<glyph name="threequarters" format="2">
	<unicode hex="00BE"/>
	<advance width="840"/>
	<outline>
		<contour>
			<point x="6" y="435" type="line"/>
			<point x="11.02" y="347.648"/>
			<point x="78.378" y="288"/>
			<point x="172" y="288" type="curve" smooth="yes"/>
			<point x="264.881" y="288"/>
			<point x="333" y="351.888"/>
			<point x="333" y="439" type="curve" smooth="yes"/>
			<point x="333" y="490.636"/>
			<point x="309.298" y="530.858"/>
			<point x="267" y="551" type="curve"/>
			<point x="289.398" y="568.308"/>
			<point x="301" y="593.559"/>
			<point x="301" y="625" type="curve" smooth="yes"/>
			<point x="301" y="694.833"/>
			<point x="245.182" y="746"/>
			<point x="169" y="746" type="curve" smooth="yes"/>
			<point x="94.127" y="746"/>
			<point x="46.275" y="702.565"/>
			<point x="39" y="628" type="curve"/>
			<point x="128" y="628" type="line"/>
			<point x="133.054" y="657.313"/>
			<point x="144.275" y="668"/>
			<point x="170" y="668" type="curve" smooth="yes"/>
			<point x="194.947" y="668"/>
			<point x="213" y="652.047"/>
			<point x="213" y="630" type="curve" smooth="yes"/>
			<point x="213" y="600.228"/>
			<point x="190.996" y="588.083"/>
			<point x="137.053" y="588.083" type="curve" smooth="yes"/>
			<point x="130" y="588.083" type="line"/>
			<point x="130" y="506" type="line"/>
			<point x="151" y="506" type="line" smooth="yes"/>
			<point x="209.179" y="506"/>
			<point x="246" y="478.868"/>
			<point x="246" y="436" type="curve" smooth="yes"/>
			<point x="246" y="395.953"/>
			<point x="214.949" y="367"/>
			<point x="172" y="367" type="curve" smooth="yes"/>
			<point x="128.838" y="367"/>
			<point x="99.978" y="392.161"/>
			<point x="94" y="435" type="curve"/>
		</contour>
		<contour>
			<point x="252" y="0" type="line"/>
			<point x="347" y="0" type="line"/>
			<point x="653" y="739" type="line"/>
			<point x="558" y="739" type="line"/>
		</contour>
		<contour>
			<point x="508" y="66" type="line"/>
			<point x="702" y="66" type="line"/>
			<point x="702" y="0" type="line"/>
			<point x="790" y="0" type="line"/>
			<point x="790" y="66" type="line"/>
			<point x="838" y="66" type="line"/>
			<point x="838" y="142" type="line"/>
			<point x="790" y="142" type="line"/>
			<point x="790" y="443" type="line"/>
			<point x="716" y="443" type="line"/>
			<point x="508" y="133" type="line"/>
		</contour>
		<contour>
			<point x="600" y="142" type="line"/>
			<point x="702" y="296" type="line"/>
			<point x="702" y="142" type="line"/>
		</contour>
	</outline>
</glyph>
<glyph name="questiondown" format="2">
	<unicode hex="00BF"/>
	<advance width="519"/>
	<outline>
		<contour>
			<point x="355" y="34" type="line"/>
			<point x="346.973" y="-33.225"/>
			<point x="316.82" y="-66"/>
			<point x="263" y="-66" type="curve" smooth="yes"/>
			<point x="207.919" y="-66"/>
			<point x="168" y="-26.921"/>
			<point x="168" y="27" type="curve" smooth="yes"/>
			<point x="168" y="58.11"/>
			<point x="182.923" y="86.298"/>
			<point x="213" y="112" type="curve" smooth="yes"/>
			<point x="311.536" y="196.204"/>
			<point x="335" y="242.362"/>
			<point x="335" y="352" type="curve" smooth="yes"/>
			<point x="335" y="367" type="line"/>
			<point x="202" y="367" type="line"/>
			<point x="202" y="354" type="line" smooth="yes"/>
			<point x="202" y="282.749"/>
			<point x="190.481" y="257.23"/>
			<point x="137" y="210" type="curve" smooth="yes"/>
			<point x="60.073" y="142.065"/>
			<point x="35" y="98.064"/>
			<point x="35" y="31" type="curve" smooth="yes"/>
			<point x="35" y="-100.147"/>
			<point x="131.144" y="-198"/>
			<point x="260" y="-198" type="curve" smooth="yes"/>
			<point x="389.829" y="-198"/>
			<point x="475.397" y="-110.931"/>
			<point x="488" y="34" type="curve"/>
		</contour>
		<contour>
			<point x="202" y="426" type="line"/>
			<point x="335" y="426" type="line"/>
			<point x="335" y="554" type="line"/>
			<point x="202" y="554" type="line"/>
		</contour>
	</outline>
</glyph>
<glyph name="Agrave" format="2">
	<unicode hex="00C0"/>
	<advance width="740"/>
	<outline>
		<contour>
			<point x="7" y="0" type="line"/>
			<point x="158" y="0" type="line"/>
			<point x="240" y="191" type="line"/>
			<point x="503" y="191" type="line"/>
			<point x="582" y="0" type="line"/>
			<point x="733" y="0" type="line"/>
			<point x="423" y="739" type="line"/>
			<point x="315" y="739" type="line"/>
		</contour>
		<contour>
			<point x="290" y="322" type="line"/>
			<point x="369" y="546" type="line"/>
			<point x="448" y="322" type="line"/>
		</contour>
		<contour>
			<point x="197" y="912" type="line"/>
			<point x="423" y="788" type="line"/>
			<point x="476" y="867" type="line"/>
			<point x="254" y="1000" type="line"/>
		</contour>
	</outline>
	<anchor name="Anchor-0" x="370" y="1015"/>
</glyph>
<glyph name="Atilde" format="2">
	<unicode hex="00C3"/>
	<advance width="740"/>
	<outline>
		<contour>
			<point x="7" y="0" type="line"/>
			<point x="158" y="0" type="line"/>
			<point x="240" y="191" type="line"/>
			<point x="503" y="191" type="line"/>
			<point x="582" y="0" type="line"/>
			<point x="733" y="0" type="line"/>
			<point x="423" y="739" type="line"/>
			<point x="315" y="739" type="line"/>
		</contour>
		<contour>
			<point x="290" y="322" type="line"/>
			<point x="369" y="546" type="line"/>
			<point x="448" y="322" type="line"/>
		</contour>
		<contour>
			<point x="259" y="811" type="line"/>
			<point x="296.712" y="833.826"/>
			<point x="302.8" y="836"/>
			<point x="329" y="836" type="curve" smooth="yes"/>
			<point x="345.126" y="836"/>
			<point x="354.084" y="834.009"/>
			<point x="383" y="824" type="curve" smooth="yes"/>
			<point x="409.135" y="814.953"/>
			<point x="427.077" y="811"/>
			<point x="442" y="811" type="curve" smooth="yes"/>
			<point x="476.827" y="811"/>
			<point x="503.841" y="826.806"/>
			<point x="536" y="866" type="curve"/>
			<point x="482" y="947" type="line"/>
			<point x="461.117" y="923.134"/>
			<point x="441.147" y="913"/>
			<point x="415" y="913" type="curve" smooth="yes"/>
			<point x="400.36" y="913"/>
			<point x="387.062" y="916.112"/>
			<point x="368" y="924" type="curve" smooth="yes"/>
			<point x="339.277" y="935.885"/>
			<point x="330.214" y="938"/>
			<point x="308" y="938" type="curve" smooth="yes"/>
			<point x="266.149" y="938"/>
			<point x="240.125" y="926.125"/>
			<point x="205" y="891" type="curve"/>
		</contour>
	</outline>
	<anchor name="Anchor-0" x="370" y="1015"/>
</glyph>
<glyph name="AE" format="2">
	<unicode hex="00C6"/>
	<advance width="884"/>
	<outline>
		<contour>
			<point x="2" y="0" type="line"/>
			<point x="167" y="0" type="line"/>
			<point x="279" y="191" type="line"/>
			<point x="473" y="191" type="line"/>
			<point x="473" y="0" type="line"/>
			<point x="828" y="0" type="line"/>
			<point x="828" y="131" type="line"/>
			<point x="610" y="131" type="line"/>
			<point x="610" y="303" type="line"/>
			<point x="817" y="303" type="line"/>
			<point x="817" y="434" type="line"/>
			<point x="610" y="434" type="line"/>
			<point x="610" y="608" type="line"/>
			<point x="828" y="608" type="line"/>
			<point x="828" y="739" type="line"/>
			<point x="489" y="739" type="line"/>
		</contour>
		<contour>
			<point x="358" y="322" type="line"/>
			<point x="473" y="513" type="line"/>
			<point x="473" y="322" type="line"/>
		</contour>
	</outline>
	<anchor name="Anchor-0" x="470" y="805"/>
</glyph>
<glyph name="Ccedilla" format="2">
	<unicode hex="00C7"/>
	<advance width="802"/>
	<outline>
		<contour>
			<point x="313" y="-166" type="line"/>
			<point x="321.014" y="-216.087"/>
			<point x="362.088" y="-251"/>
			<point x="413" y="-251" type="curve" smooth="yes"/>
			<point x="470.106" y="-251"/>
			<point x="509" y="-210.891"/>
			<point x="509" y="-152" type="curve" smooth="yes"/>
			<point x="509" y="-96.753"/>
			<point x="467.777" y="-51"/>
			<point x="418" y="-51" type="curve" smooth="yes"/>
			<point x="409.643" y="-51"/>
			<point x="403.083" y="-52.583"/>
			<point x="389" y="-58" type="curve"/>
			<point x="405" y="-13" type="line"/>
			<point x="575.612" y="-13"/>
			<point x="704.27" y="65.051"/>
			<point x="766" y="206" type="curve"/>
			<point x="605" y="206" type="line"/>
			<point x="544.221" y="143.228"/>
			<point x="493.259" y="119"/>
			<point x="422" y="119" type="curve" smooth="yes"/>
			<point x="285.595" y="119"/>
			<point x="174" y="232.395"/>
			<point x="174" y="371" type="curve" smooth="yes"/>
			<point x="174" y="513.167"/>
			<point x="279.117" y="620"/>
			<point x="419" y="620" type="curve" smooth="yes"/>
			<point x="504.796" y="620"/>
			<point x="562.881" y="592.155"/>
			<point x="613" y="527" type="curve"/>
			<point x="766" y="527" type="line"/>
			<point x="701.876" y="668.988"/>
			<point x="572.747" y="752"/>
			<point x="416" y="752" type="curve" smooth="yes"/>
			<point x="207" y="752"/>
			<point x="36" y="581"/>
			<point x="36" y="372" type="curve" smooth="yes"/>
			<point x="36" y="186.166"/>
			<point x="175.84" y="20.024"/>
			<point x="355" y="-7" type="curve"/>
			<point x="322" y="-107" type="line"/>
			<point x="375" y="-133" type="line"/>
			<point x="387.936" y="-113.098"/>
			<point x="397.926" y="-106"/>
			<point x="413" y="-106" type="curve" smooth="yes"/>
			<point x="433.864" y="-106"/>
			<point x="451" y="-125.842"/>
			<point x="451" y="-150" type="curve" smooth="yes"/>
			<point x="451" y="-175.974"/>
			<point x="434.022" y="-196"/>
			<point x="412" y="-196" type="curve" smooth="yes"/>
			<point x="395.167" y="-196"/>
			<point x="383.08" y="-186.2"/>
			<point x="375" y="-166" type="curve"/>
		</contour>
	</outline>
	<anchor name="Anchor-0" x="420" y="805"/>
</glyph>
<glyph name="Ecircumflex" format="2">
	<unicode hex="00CA"/>
	<advance width="524"/>
	<outline>
		<contour>
			<point x="71" y="0" type="line"/>
			<point x="468" y="0" type="line"/>
			<point x="468" y="131" type="line"/>
			<point x="208" y="131" type="line"/>
			<point x="208" y="303" type="line"/>
			<point x="457" y="303" type="line"/>
			<point x="457" y="434" type="line"/>
			<point x="208" y="434" type="line"/>
			<point x="208" y="608" type="line"/>
			<point x="468" y="608" type="line"/>
			<point x="468" y="739" type="line"/>
			<point x="71" y="739" type="line"/>
		</contour>
		<contour>
			<point x="67" y="805" type="line"/>
			<point x="214" y="805" type="line"/>
			<point x="268" y="869" type="line"/>
			<point x="321" y="805" type="line"/>
			<point x="466" y="805" type="line"/>
			<point x="321" y="943" type="line"/>
			<point x="214" y="943" type="line"/>
		</contour>
	</outline>
	<anchor name="Anchor-0" x="269" y="1015"/>
</glyph>
<glyph name="Eth" format="2">
	<unicode hex="00D0"/>
	<advance width="744"/>
	<outline>
		<contour>
			<point x="116" y="0" type="line"/>
			<point x="288" y="0" type="line" smooth="yes"/>
			<point x="566.401" y="0"/>
			<point x="708" y="124.067"/>
			<point x="708" y="368" type="curve" smooth="yes"/>
			<point x="708" y="612.656"/>
			<point x="563.947" y="739"/>
			<point x="285" y="739" type="curve" smooth="yes"/>
			<point x="116" y="739" type="line"/>
			<point x="116" y="422" type="line"/>
			<point x="20" y="422" type="line"/>
			<point x="20" y="315" type="line"/>
			<point x="116" y="315" type="line"/>
		</contour>
		<contour>
			<point x="253" y="131" type="line"/>
			<point x="253" y="315" type="line"/>
			<point x="407" y="315" type="line"/>
			<point x="407" y="422" type="line"/>
			<point x="253" y="422" type="line"/>
			<point x="253" y="608" type="line"/>
			<point x="280" y="608" type="line" smooth="yes"/>
			<point x="476.416" y="608"/>
			<point x="570" y="530.552"/>
			<point x="570" y="368" type="curve" smooth="yes"/>
			<point x="570" y="208.977"/>
			<point x="475.572" y="131"/>
			<point x="283" y="131" type="curve" smooth="yes"/>
		</contour>
	</outline>
	<anchor name="Anchor-0" x="360" y="805"/>
</glyph>
<glyph name="Ntilde" format="2">
	<unicode hex="00D1"/>
	<advance width="741"/>
	<outline>
		<contour>
			<point x="71" y="0" type="line"/>
			<point x="208" y="0" type="line"/>
			<point x="208" y="537" type="line"/>
			<point x="517" y="0" type="line"/>
			<point x="670" y="0" type="line"/>
			<point x="670" y="739" type="line"/>
			<point x="533" y="739" type="line"/>
			<point x="533" y="201" type="line"/>
			<point x="227" y="739" type="line"/>
			<point x="71" y="739" type="line"/>
		</contour>
		<contour>
			<point x="266" y="811" type="line"/>
			<point x="303.712" y="833.826"/>
			<point x="309.8" y="836"/>
			<point x="336" y="836" type="curve" smooth="yes"/>
			<point x="352.126" y="836"/>
			<point x="361.084" y="834.009"/>
			<point x="390" y="824" type="curve" smooth="yes"/>
			<point x="416.135" y="814.953"/>
			<point x="434.077" y="811"/>
			<point x="449" y="811" type="curve" smooth="yes"/>
			<point x="483.827" y="811"/>
			<point x="510.841" y="826.806"/>
			<point x="543" y="866" type="curve"/>
			<point x="489" y="947" type="line"/>
			<point x="468.117" y="923.134"/>
			<point x="448.147" y="913"/>
			<point x="422" y="913" type="curve" smooth="yes"/>
			<point x="407.36" y="913"/>
			<point x="394.062" y="916.112"/>
			<point x="375" y="924" type="curve" smooth="yes"/>
			<point x="346.277" y="935.885"/>
			<point x="337.214" y="938"/>
			<point x="315" y="938" type="curve" smooth="yes"/>
			<point x="273.149" y="938"/>
			<point x="247.125" y="926.125"/>
			<point x="212" y="891" type="curve"/>
		</contour>
	</outline>
	<anchor name="Anchor-0" x="370" y="1015"/>
</glyph>
<glyph name="Ograve" format="2">
	<unicode hex="00D2"/>
	<advance width="842"/>
	<outline>
		<component base="O"/>
		<contour>
			<point x="282" y="912" type="line"/>
			<point x="508" y="788" type="line"/>
			<point x="561" y="867" type="line"/>
			<point x="339" y="1000" type="line"/>
		</contour>
	</outline>
	<anchor name="Anchor-0" x="421" y="1015"/>
</glyph>
<glyph name="Oacute" format="2">
	<unicode hex="00D3"/>
	<advance width="842"/>
	<outline>
		<component base="O"/>
		<contour>
			<point x="333" y="788" type="line"/>
			<point x="560" y="908" type="line"/>
			<point x="506" y="1000" type="line"/>
			<point x="282" y="866" type="line"/>
		</contour>
	</outline>
	<anchor name="Anchor-0" x="421" y="1015"/>
</glyph>
<glyph name="Ocircumflex" format="2">
	<unicode hex="00D4"/>
	<advance width="842"/>
	<outline>
		<component base="O"/>
		<contour>
			<point x="222" y="805" type="line"/>
			<point x="369" y="805" type="line"/>
			<point x="423" y="869" type="line"/>
			<point x="476" y="805" type="line"/>
			<point x="621" y="805" type="line"/>
			<point x="476" y="943" type="line"/>
			<point x="369" y="943" type="line"/>
		</contour>
	</outline>
	<anchor name="Anchor-0" x="421" y="1015"/>
</glyph>
<glyph name="Otilde" format="2">
	<unicode hex="00D5"/>
	<advance width="842"/>
	<outline>
		<component base="O"/>
		<contour>
			<point x="310" y="811" type="line"/>
			<point x="347.712" y="833.826"/>
			<point x="353.8" y="836"/>
			<point x="380" y="836" type="curve" smooth="yes"/>
			<point x="396.126" y="836"/>
			<point x="405.084" y="834.009"/>
			<point x="434" y="824" type="curve" smooth="yes"/>
			<point x="460.135" y="814.953"/>
			<point x="478.077" y="811"/>
			<point x="493" y="811" type="curve" smooth="yes"/>
			<point x="527.827" y="811"/>
			<point x="554.841" y="826.806"/>
			<point x="587" y="866" type="curve"/>
			<point x="533" y="947" type="line"/>
			<point x="512.117" y="923.134"/>
			<point x="492.147" y="913"/>
			<point x="466" y="913" type="curve" smooth="yes"/>
			<point x="451.36" y="913"/>
			<point x="438.062" y="916.112"/>
			<point x="419" y="924" type="curve" smooth="yes"/>
			<point x="390.277" y="935.885"/>
			<point x="381.214" y="938"/>
			<point x="359" y="938" type="curve" smooth="yes"/>
			<point x="317.149" y="938"/>
			<point x="291.125" y="926.125"/>
			<point x="256" y="891" type="curve"/>
		</contour>
	</outline>
	<anchor name="Anchor-0" x="421" y="1015"/>
</glyph>
<glyph name="Odieresis" format="2">
	<unicode hex="00D6"/>
	<advance width="842"/>
	<outline>
		<component base="O"/>
		<contour>
			<point x="250" y="805" type="line"/>
			<point x="383" y="805" type="line"/>
			<point x="383" y="938" type="line"/>
			<point x="250" y="938" type="line"/>
		</contour>
		<contour>
			<point x="460" y="805" type="line"/>
			<point x="593" y="805" type="line"/>
			<point x="593" y="938" type="line"/>
			<point x="460" y="938" type="line"/>
		</contour>
	</outline>
	<anchor name="Anchor-0" x="421" y="1015"/>
</glyph>
<glyph name="multiply" format="2">
	<unicode hex="00D7"/>
	<advance width="600"/>
	<outline>
		<contour>
			<point x="48" y="196" type="line"/>
			<point x="130" y="114" type="line"/>
			<point x="300" y="284" type="line"/>
			<point x="470" y="114" type="line"/>
			<point x="552" y="196" type="line"/>
			<point x="382" y="366" type="line"/>
			<point x="552" y="536" type="line"/>
			<point x="470" y="618" type="line"/>
			<point x="300" y="448" type="line"/>
			<point x="130" y="618" type="line"/>
			<point x="48" y="536" type="line"/>
			<point x="218" y="366" type="line"/>
		</contour>
	</outline>
</glyph>
<glyph name="Ugrave" format="2">
	<unicode hex="00D9"/>
	<advance width="641"/>
	<outline>
		<component base="U"/>
		<contour>
			<point x="141" y="912" type="line"/>
			<point x="367" y="788" type="line"/>
			<point x="420" y="867" type="line"/>
			<point x="198" y="1000" type="line"/>
		</contour>
	</outline>
	<anchor name="Anchor-0" x="320" y="1015"/>
</glyph>
<glyph name="Uacute" format="2">
	<unicode hex="00DA"/>
	<advance width="641"/>
	<outline>
		<component base="U"/>
		<contour>
			<point x="273" y="788" type="line"/>
			<point x="500" y="908" type="line"/>
			<point x="446" y="1000" type="line"/>
			<point x="222" y="866" type="line"/>
		</contour>
	</outline>
	<anchor name="Anchor-0" x="320" y="1015"/>
</glyph>
<glyph name="Ucircumflex" format="2">
	<unicode hex="00DB"/>
	<advance width="641"/>
	<outline>
		<component base="U"/>
		<contour>
			<point x="121" y="805" type="line"/>
			<point x="268" y="805" type="line"/>
			<point x="322" y="869" type="line"/>
			<point x="375" y="805" type="line"/>
			<point x="520" y="805" type="line"/>
			<point x="375" y="943" type="line"/>
			<point x="268" y="943" type="line"/>
		</contour>
	</outline>
	<anchor name="Anchor-0" x="320" y="1015"/>
</glyph>
<glyph name="Yacute" format="2">
	<unicode hex="00DD"/>
	<advance width="637"/>
	<outline>
		<contour>
			<point x="250" y="0" type="line"/>
			<point x="387" y="0" type="line"/>
			<point x="387" y="273" type="line"/>
			<point x="630" y="739" type="line"/>
			<point x="482" y="739" type="line"/>
			<point x="319" y="399" type="line"/>
			<point x="155" y="739" type="line"/>
			<point x="7" y="739" type="line"/>
			<point x="250" y="273" type="line"/>
		</contour>
		<contour>
			<point x="271" y="788" type="line"/>
			<point x="498" y="908" type="line"/>
			<point x="444" y="1000" type="line"/>
			<point x="220" y="866" type="line"/>
		</contour>
	</outline>
	<anchor name="Anchor-0" x="318" y="1015"/>
</glyph>
<glyph name="Thorn" format="2">
	<unicode hex="00DE"/>
	<advance width="576"/>
	<outline>
		<contour>
			<point x="71" y="0" type="line"/>
			<point x="208" y="0" type="line"/>
			<point x="208" y="149" type="line"/>
			<point x="252" y="149" type="line" smooth="yes"/>
			<point x="352.753" y="149"/>
			<point x="400.098" y="156.555"/>
			<point x="440" y="179" type="curve" smooth="yes"/>
			<point x="504.038" y="215.022"/>
			<point x="543" y="291.053"/>
			<point x="543" y="380" type="curve" smooth="yes"/>
			<point x="543" y="463.309"/>
			<point x="509.155" y="531.72"/>
			<point x="449" y="570" type="curve" smooth="yes"/>
			<point x="404.71" y="598.185"/>
			<point x="354.342" y="608"/>
			<point x="254" y="608" type="curve" smooth="yes"/>
			<point x="208" y="608" type="line"/>
			<point x="208" y="739" type="line"/>
			<point x="71" y="739" type="line"/>
		</contour>
		<contour>
			<point x="208" y="280" type="line"/>
			<point x="208" y="477" type="line"/>
			<point x="254" y="477" type="line" smooth="yes"/>
			<point x="297.071" y="477"/>
			<point x="319.016" y="475.234"/>
			<point x="341" y="470" type="curve"/>
			<point x="380.947" y="459.015"/>
			<point x="405" y="424.063"/>
			<point x="405" y="377" type="curve" smooth="yes"/>
			<point x="405" y="334.071"/>
			<point x="381.065" y="301.018"/>
			<point x="342" y="290" type="curve"/>
			<point x="320.954" y="283.304"/>
			<point x="289.9" y="280"/>
			<point x="248" y="280" type="curve" smooth="yes"/>
		</contour>
	</outline>
	<anchor name="Anchor-0" x="280" y="805"/>
</glyph>
<glyph name="germandbls" format="2">
	<unicode hex="00DF"/>
	<advance width="616"/>
	<outline>
		<contour>
			<point x="54" y="0" type="line"/>
			<point x="176" y="0" type="line"/>
			<point x="176" y="79" type="line"/>
			<point x="212.936" y="17.106"/>
			<point x="270.859" y="-13"/>
			<point x="353" y="-13" type="curve" smooth="yes"/>
			<point x="489.963" y="-13"/>
			<point x="587" y="81.964"/>
			<point x="587" y="216" type="curve" smooth="yes"/>
			<point x="587" y="315.538"/>
			<point x="527.753" y="382.848"/>
			<point x="418" y="408" type="curve"/>
			<point x="469.735" y="436.852"/>
			<point x="493" y="479.66"/>
			<point x="493" y="546" type="curve" smooth="yes"/>
			<point x="493" y="663.087"/>
			<point x="398.908" y="752"/>
			<point x="275" y="752" type="curve" smooth="yes"/>
			<point x="137.354" y="752"/>
			<point x="54" y="652.051"/>
			<point x="54" y="487" type="curve" smooth="yes"/>
		</contour>
		<contour>
			<point x="187" y="189" type="line"/>
			<point x="187" y="503" type="line" smooth="yes"/>
			<point x="187" y="587.833"/>
			<point x="215.886" y="630"/>
			<point x="274" y="630" type="curve" smooth="yes"/>
			<point x="325.771" y="630"/>
			<point x="359" y="593.253"/>
			<point x="359" y="536" type="curve" smooth="yes"/>
			<point x="359" y="476.744"/>
			<point x="320.777" y="433"/>
			<point x="269" y="433" type="curve" smooth="yes"/>
			<point x="258" y="433" type="line"/>
			<point x="258" y="315" type="line"/>
			<point x="261.251" y="315"/>
			<point x="267.535" y="315"/>
			<point x="269" y="315" type="curve" smooth="yes"/>
			<point x="397.077" y="315"/>
			<point x="453" y="281.568"/>
			<point x="453" y="205" type="curve" smooth="yes"/>
			<point x="453" y="150.3"/>
			<point x="414.281" y="109"/>
			<point x="363" y="109" type="curve" smooth="yes"/>
			<point x="317.475" y="109"/>
			<point x="278.095" y="142.515"/>
			<point x="269" y="189" type="curve"/>
		</contour>
	</outline>
	<anchor name="Anchor-0" x="277" y="805"/>
</glyph>
<glyph name="aacute" format="2">
	<unicode hex="00E1"/>
	<advance width="667"/>
	<outline>
		<component base="a"/>
		<contour>
			<point x="293" y="613" type="line"/>
			<point x="520" y="733" type="line"/>
			<point x="466" y="825" type="line"/>
			<point x="242" y="691" type="line"/>
		</contour>
	</outline>
	<anchor name="Anchor-0" x="347" y="840"/>
</glyph>
<glyph name="acircumflex" format="2">
	<unicode hex="00E2"/>
	<advance width="667"/>
	<outline>
		<component base="a"/>
		<contour>
			<point x="144" y="630" type="line"/>
			<point x="291" y="630" type="line"/>
			<point x="345" y="694" type="line"/>
			<point x="398" y="630" type="line"/>
			<point x="543" y="630" type="line"/>
			<point x="398" y="768" type="line"/>
			<point x="291" y="768" type="line"/>
		</contour>
	</outline>
	<anchor name="Anchor-0" x="347" y="840"/>
</glyph>
<glyph name="atilde" format="2">
	<unicode hex="00E3"/>
	<advance width="667"/>
	<outline>
		<component base="a"/>
		<contour>
			<point x="232" y="636" type="line"/>
			<point x="269.712" y="658.826"/>
			<point x="275.8" y="661"/>
			<point x="302" y="661" type="curve" smooth="yes"/>
			<point x="318.126" y="661"/>
			<point x="327.084" y="659.009"/>
			<point x="356" y="649" type="curve" smooth="yes"/>
			<point x="382.135" y="639.953"/>
			<point x="400.077" y="636"/>
			<point x="415" y="636" type="curve" smooth="yes"/>
			<point x="449.827" y="636"/>
			<point x="476.841" y="651.806"/>
			<point x="509" y="691" type="curve"/>
			<point x="455" y="772" type="line"/>
			<point x="434.117" y="748.134"/>
			<point x="414.147" y="738"/>
			<point x="388" y="738" type="curve" smooth="yes"/>
			<point x="373.36" y="738"/>
			<point x="360.062" y="741.112"/>
			<point x="341" y="749" type="curve" smooth="yes"/>
			<point x="312.277" y="760.885"/>
			<point x="303.214" y="763"/>
			<point x="281" y="763" type="curve" smooth="yes"/>
			<point x="239.149" y="763"/>
			<point x="213.125" y="751.125"/>
			<point x="178" y="716" type="curve"/>
		</contour>
	</outline>
	<anchor name="Anchor-0" x="347" y="840"/>
</glyph>
<glyph name="adieresis" format="2">
	<unicode hex="00E4"/>
	<advance width="667"/>
	<outline>
		<component base="a"/>
		<contour>
			<point x="172" y="630" type="line"/>
			<point x="305" y="630" type="line"/>
			<point x="305" y="763" type="line"/>
			<point x="172" y="763" type="line"/>
		</contour>
		<contour>
			<point x="382" y="630" type="line"/>
			<point x="515" y="630" type="line"/>
			<point x="515" y="763" type="line"/>
			<point x="382" y="763" type="line"/>
		</contour>
	</outline>
	<anchor name="Anchor-0" x="345" y="840"/>
</glyph>
<glyph name="aring" format="2">
	<unicode hex="00E5"/>
	<advance width="667"/>
	<outline>
		<component base="a"/>
		<contour>
			<point x="344" y="610" type="curve" smooth="yes"/>
			<point x="401" y="610"/>
			<point x="447" y="656"/>
			<point x="447" y="713" type="curve" smooth="yes"/>
			<point x="447" y="769.275"/>
			<point x="400.728" y="816"/>
			<point x="345" y="816" type="curve" smooth="yes"/>
			<point x="287.223" y="816"/>
			<point x="241" y="770.221"/>
			<point x="241" y="713" type="curve" smooth="yes"/>
			<point x="241" y="656"/>
			<point x="287" y="610"/>
		</contour>
		<contour>
			<point x="308" y="713" type="curve" smooth="yes"/>
			<point x="308" y="732.771"/>
			<point x="323.778" y="749"/>
			<point x="343" y="749" type="curve" smooth="yes"/>
			<point x="363.778" y="749"/>
			<point x="380" y="733.216"/>
			<point x="380" y="713" type="curve" smooth="yes"/>
			<point x="380" y="693"/>
			<point x="364" y="677"/>
			<point x="344" y="677" type="curve" smooth="yes"/>
			<point x="324" y="677"/>
			<point x="308" y="693"/>
		</contour>
	</outline>
	<anchor name="Anchor-0" x="345" y="840"/>
</glyph>
<glyph name="eacute" format="2">
	<unicode hex="00E9"/>
	<advance width="634"/>
	<outline>
		<component base="e"/>
		<contour>
			<point x="276" y="613" type="line"/>
			<point x="503" y="733" type="line"/>
			<point x="449" y="825" type="line"/>
			<point x="225" y="691" type="line"/>
		</contour>
	</outline>
	<anchor name="Anchor-0" x="324" y="840"/>
</glyph>
<glyph name="ecircumflex" format="2">
	<unicode hex="00EA"/>
	<advance width="634"/>
	<outline>
		<component base="e"/>
		<contour>
			<point x="124" y="630" type="line"/>
			<point x="271" y="630" type="line"/>
			<point x="325" y="694" type="line"/>
			<point x="378" y="630" type="line"/>
			<point x="523" y="630" type="line"/>
			<point x="378" y="768" type="line"/>
			<point x="271" y="768" type="line"/>
		</contour>
	</outline>
	<anchor name="Anchor-0" x="324" y="840"/>
</glyph>
<glyph name="edieresis" format="2">
	<unicode hex="00EB"/>
	<advance width="634"/>
	<outline>
		<component base="e"/>
		<contour>
			<point x="153" y="630" type="line"/>
			<point x="286" y="630" type="line"/>
			<point x="286" y="763" type="line"/>
			<point x="153" y="763" type="line"/>
		</contour>
		<contour>
			<point x="363" y="630" type="line"/>
			<point x="496" y="630" type="line"/>
			<point x="496" y="763" type="line"/>
			<point x="363" y="763" type="line"/>
		</contour>
	</outline>
	<anchor name="Anchor-0" x="324" y="840"/>
</glyph>
<glyph name="igrave" format="2">
	<unicode hex="00EC"/>
	<advance width="241"/>
	<outline>
		<contour>
			<point x="54" y="0" type="line"/>
			<point x="187" y="0" type="line"/>
			<point x="187" y="554" type="line"/>
			<point x="54" y="554" type="line"/>
		</contour>
		<contour>
			<point x="-16" y="737" type="line"/>
			<point x="210" y="613" type="line"/>
			<point x="263" y="692" type="line"/>
			<point x="41" y="825" type="line"/>
		</contour>
	</outline>
	<anchor name="Anchor-0" x="120" y="840"/>
</glyph>
<glyph name="icircumflex" format="2">
	<unicode hex="00EE"/>
	<advance width="241"/>
	<outline>
		<contour>
			<point x="54" y="0" type="line"/>
			<point x="187" y="0" type="line"/>
			<point x="187" y="554" type="line"/>
			<point x="54" y="554" type="line"/>
		</contour>
		<contour>
			<point x="-79" y="630" type="line"/>
			<point x="68" y="630" type="line"/>
			<point x="122" y="694" type="line"/>
			<point x="175" y="630" type="line"/>
			<point x="320" y="630" type="line"/>
			<point x="175" y="768" type="line"/>
			<point x="68" y="768" type="line"/>
		</contour>
	</outline>
	<anchor name="Anchor-0" x="120" y="840"/>
</glyph>
<glyph name="idieresis" format="2">
	<unicode hex="00EF"/>
	<advance width="241"/>
	<outline>
		<contour>
			<point x="54" y="0" type="line"/>
			<point x="187" y="0" type="line"/>
			<point x="187" y="554" type="line"/>
			<point x="54" y="554" type="line"/>
		</contour>
		<contour>
			<point x="-51" y="630" type="line"/>
			<point x="82" y="630" type="line"/>
			<point x="82" y="763" type="line"/>
			<point x="-51" y="763" type="line"/>
		</contour>
		<contour>
			<point x="159" y="630" type="line"/>
			<point x="292" y="630" type="line"/>
			<point x="292" y="763" type="line"/>
			<point x="159" y="763" type="line"/>
		</contour>
	</outline>
	<anchor name="Anchor-0" x="120" y="840"/>
</glyph>
<glyph name="odieresis" format="2">
	<unicode hex="00F6"/>
	<advance width="645"/>
	<outline>
		<contour>
			<point x="28" y="276" type="curve" smooth="yes"/>
			<point x="28" y="116.658"/>
			<point x="160.349" y="-13"/>
			<point x="323" y="-13" type="curve" smooth="yes"/>
			<point x="484.875" y="-13"/>
			<point x="617" y="116.878"/>
			<point x="617" y="276" type="curve" smooth="yes"/>
			<point x="617" y="436.224"/>
			<point x="485.775" y="567"/>
			<point x="325" y="567" type="curve" smooth="yes"/>
			<point x="159.33" y="567"/>
			<point x="28" y="438.323"/>
		</contour>
		<contour>
			<point x="322" y="109" type="curve" smooth="yes"/>
			<point x="233.714" y="109"/>
			<point x="162" y="184.3"/>
			<point x="162" y="277" type="curve" smooth="yes"/>
			<point x="162" y="368.722"/>
			<point x="233.738" y="445"/>
			<point x="320" y="445" type="curve" smooth="yes"/>
			<point x="411.314" y="445"/>
			<point x="483" y="370.675"/>
			<point x="483" y="276" type="curve" smooth="yes"/>
			<point x="483" y="183.842"/>
			<point x="410.847" y="109"/>
		</contour>
		<contour>
			<point x="151" y="630" type="line"/>
			<point x="284" y="630" type="line"/>
			<point x="284" y="763" type="line"/>
			<point x="151" y="763" type="line"/>
		</contour>
		<contour>
			<point x="361" y="630" type="line"/>
			<point x="494" y="630" type="line"/>
			<point x="494" y="763" type="line"/>
			<point x="361" y="763" type="line"/>
		</contour>
	</outline>
	<anchor name="Anchor-0" x="322" y="840"/>
</glyph>
<glyph name="oslash" format="2">
	<unicode hex="00F8"/>
	<advance width="646"/>
	<outline>
		<contour>
			<point x="57" y="-10" type="line"/>
			<point x="142" y="-67" type="line"/>
			<point x="198" y="15" type="line"/>
			<point x="238.77" y="-3.893"/>
			<point x="279.75" y="-13"/>
			<point x="324" y="-13" type="curve" smooth="yes"/>
			<point x="486.103" y="-13"/>
			<point x="618" y="117.102"/>
			<point x="618" y="277" type="curve" smooth="yes"/>
			<point x="618" y="359.928"/>
			<point x="585.056" y="432.949"/>
			<point x="521" y="492" type="curve"/>
			<point x="571" y="565" type="line"/>
			<point x="485" y="623" type="line"/>
			<point x="433" y="546" type="line"/>
			<point x="395.855" y="560.445"/>
			<point x="361.833" y="567"/>
			<point x="324" y="567" type="curve" smooth="yes"/>
			<point x="160.345" y="567"/>
			<point x="28" y="437.338"/>
			<point x="28" y="277" type="curve" smooth="yes"/>
			<point x="28" y="200.087"/>
			<point x="58.938" y="127.06"/>
			<point x="114" y="74" type="curve"/>
		</contour>
		<contour>
			<point x="189" y="185" type="line"/>
			<point x="170.719" y="215.469"/>
			<point x="162" y="245.5"/>
			<point x="162" y="278" type="curve" smooth="yes"/>
			<point x="162" y="370.158"/>
			<point x="234.153" y="445"/>
			<point x="323" y="445" type="curve" smooth="yes"/>
			<point x="337.7" y="445"/>
			<point x="346.682" y="443.818"/>
			<point x="361" y="440" type="curve"/>
		</contour>
		<contour>
			<point x="448" y="383" type="line"/>
			<point x="472.203" y="350.729"/>
			<point x="484" y="315.667"/>
			<point x="484" y="276" type="curve" smooth="yes"/>
			<point x="484" y="183.842"/>
			<point x="411.847" y="109"/>
			<point x="323" y="109" type="curve" smooth="yes"/>
			<point x="304.1" y="109"/>
			<point x="288.101" y="111.963"/>
			<point x="269" y="119" type="curve"/>
		</contour>
	</outline>
	<anchor name="Anchor-0" x="323" y="630"/>
</glyph>
<glyph name="ugrave" format="2">
	<unicode hex="00F9"/>
	<advance width="599"/>
	<outline>
		<component base="u"/>
		<contour>
			<point x="119" y="737" type="line"/>
			<point x="345" y="613" type="line"/>
			<point x="398" y="692" type="line"/>
			<point x="176" y="825" type="line"/>
		</contour>
	</outline>
	<anchor name="Anchor-0" x="298" y="840"/>
</glyph>
<glyph name="uacute" format="2">
	<unicode hex="00FA"/>
	<advance width="599"/>
	<outline>
		<component base="u"/>
		<contour>
			<point x="251" y="613" type="line"/>
			<point x="478" y="733" type="line"/>
			<point x="424" y="825" type="line"/>
			<point x="200" y="691" type="line"/>
		</contour>
	</outline>
	<anchor name="Anchor-0" x="298" y="840"/>
</glyph>
<glyph name="ucircumflex" format="2">
	<unicode hex="00FB"/>
	<advance width="599"/>
	<outline>
		<component base="u"/>
		<contour>
			<point x="99" y="630" type="line"/>
			<point x="246" y="630" type="line"/>
			<point x="300" y="694" type="line"/>
			<point x="353" y="630" type="line"/>
			<point x="498" y="630" type="line"/>
			<point x="353" y="768" type="line"/>
			<point x="246" y="768" type="line"/>
		</contour>
	</outline>
	<anchor name="Anchor-0" x="298" y="840"/>
</glyph>
<glyph name="udieresis" format="2">
	<unicode hex="00FC"/>
	<advance width="599"/>
	<outline>
		<component base="u"/>
		<contour>
			<point x="127" y="630" type="line"/>
			<point x="260" y="630" type="line"/>
			<point x="260" y="763" type="line"/>
			<point x="127" y="763" type="line"/>
		</contour>
		<contour>
			<point x="337" y="630" type="line"/>
			<point x="470" y="630" type="line"/>
			<point x="470" y="763" type="line"/>
			<point x="337" y="763" type="line"/>
		</contour>
	</outline>
	<anchor name="Anchor-0" x="298" y="840"/>
</glyph>
<glyph name="yacute" format="2">
	<unicode hex="00FD"/>
	<advance width="568"/>
	<outline>
		<contour>
			<point x="102" y="-185" type="line"/>
			<point x="245" y="-185" type="line"/>
			<point x="565" y="554" type="line"/>
			<point x="412" y="554" type="line"/>
			<point x="278" y="195" type="line"/>
			<point x="155" y="554" type="line"/>
			<point x="3" y="554" type="line"/>
			<point x="206" y="52" type="line"/>
		</contour>
		<contour>
			<point x="202" y="613" type="line"/>
			<point x="429" y="733" type="line"/>
			<point x="375" y="825" type="line"/>
			<point x="151" y="691" type="line"/>
		</contour>
	</outline>
	<anchor name="Anchor-0" x="284" y="840"/>
</glyph>
<glyph name="thorn" format="2">
	<unicode hex="00FE"/>
	<advance width="662"/>
	<outline>
		<contour>
			<point x="54" y="-185" type="line"/>
			<point x="187" y="-185" type="line"/>
			<point x="187" y="59" type="line"/>
			<point x="229.5" y="11.558"/>
			<point x="288.167" y="-13"/>
			<point x="359" y="-13" type="curve" smooth="yes"/>
			<point x="519.129" y="-13"/>
			<point x="634" y="108.136"/>
			<point x="634" y="277" type="curve" smooth="yes"/>
			<point x="634" y="445.864"/>
			<point x="519.129" y="567"/>
			<point x="359" y="567" type="curve" smooth="yes"/>
			<point x="288.167" y="567"/>
			<point x="229.5" y="542.442"/>
			<point x="187" y="495" type="curve"/>
			<point x="187" y="739" type="line"/>
			<point x="54" y="739" type="line"/>
		</contour>
		<contour>
			<point x="341" y="109" type="curve" smooth="yes"/>
			<point x="248.214" y="109"/>
			<point x="179" y="180.778"/>
			<point x="179" y="277" type="curve" smooth="yes"/>
			<point x="179" y="372.047"/>
			<point x="248.045" y="445"/>
			<point x="338" y="445" type="curve" smooth="yes"/>
			<point x="430.786" y="445"/>
			<point x="500" y="373.222"/>
			<point x="500" y="277" type="curve" smooth="yes"/>
			<point x="500" y="181.953"/>
			<point x="430.955" y="109"/>
		</contour>
	</outline>
	<anchor name="Anchor-0" x="328" y="805"/>
</glyph>
<glyph name="ydieresis" format="2">
	<unicode hex="00FF"/>
	<advance width="568"/>
	<outline>
		<contour>
			<point x="102" y="-185" type="line"/>
			<point x="245" y="-185" type="line"/>
			<point x="565" y="554" type="line"/>
			<point x="412" y="554" type="line"/>
			<point x="278" y="195" type="line"/>
			<point x="155" y="554" type="line"/>
			<point x="3" y="554" type="line"/>
			<point x="206" y="52" type="line"/>
		</contour>
		<contour>
			<point x="113" y="630" type="line"/>
			<point x="246" y="630" type="line"/>
			<point x="246" y="763" type="line"/>
			<point x="113" y="763" type="line"/>
		</contour>
		<contour>
			<point x="323" y="630" type="line"/>
			<point x="456" y="630" type="line"/>
			<point x="456" y="763" type="line"/>
			<point x="323" y="763" type="line"/>
		</contour>
	</outline>
	<anchor name="Anchor-0" x="284" y="840"/>
</glyph>
<glyph name="Lslash" format="2">
	<unicode hex="0141"/>
	<advance width="484"/>
	<outline>
		<contour>
			<point x="113" y="0" type="line"/>
			<point x="476" y="0" type="line"/>
			<point x="476" y="128" type="line"/>
			<point x="250" y="128" type="line"/>
			<point x="250" y="350" type="line"/>
			<point x="392" y="461" type="line"/>
			<point x="392" y="584" type="line"/>
			<point x="250" y="474" type="line"/>
			<point x="250" y="739" type="line"/>
			<point x="113" y="739" type="line"/>
			<point x="113" y="397" type="line"/>
			<point x="17" y="318" type="line"/>
			<point x="17" y="194" type="line"/>
			<point x="113" y="273" type="line"/>
		</contour>
	</outline>
	<anchor name="Anchor-0" x="181" y="805"/>
</glyph>
<glyph name="OE" format="2">
	<unicode hex="0152"/>
	<advance width="1058"/>
	<outline>
		<contour>
			<point x="416" y="-13" type="curve" smooth="yes"/>
			<point x="509.303" y="-13"/>
			<point x="590.178" y="20.198"/>
			<point x="645" y="81" type="curve"/>
			<point x="645" y="0" type="line"/>
			<point x="1002" y="0" type="line"/>
			<point x="1002" y="131" type="line"/>
			<point x="784" y="131" type="line"/>
			<point x="784" y="303" type="line"/>
			<point x="991" y="303" type="line"/>
			<point x="991" y="434" type="line"/>
			<point x="784" y="434" type="line"/>
			<point x="784" y="608" type="line"/>
			<point x="1002" y="608" type="line"/>
			<point x="1002" y="739" type="line"/>
			<point x="645" y="739" type="line"/>
			<point x="645" y="657" type="line"/>
			<point x="589.177" y="720.798"/>
			<point x="512.321" y="752"/>
			<point x="411" y="752" type="curve" smooth="yes"/>
			<point x="196.078" y="752"/>
			<point x="36" y="588.08"/>
			<point x="36" y="368" type="curve" smooth="yes"/>
			<point x="36" y="150.714"/>
			<point x="199.285" y="-13"/>
		</contour>
		<contour>
			<point x="414" y="119" type="curve" smooth="yes"/>
			<point x="277.498" y="119"/>
			<point x="174" y="225.517"/>
			<point x="174" y="366" type="curve" smooth="yes"/>
			<point x="174" y="508.903"/>
			<point x="275.911" y="620"/>
			<point x="407" y="620" type="curve" smooth="yes"/>
			<point x="549.857" y="620"/>
			<point x="650" y="516.148"/>
			<point x="650" y="368" type="curve" smooth="yes"/>
			<point x="650" y="223.727"/>
			<point x="550.741" y="119"/>
		</contour>
	</outline>
	<anchor name="Anchor-0" x="569" y="805"/>
</glyph>
<glyph name="oe" format="2">
	<unicode hex="0153"/>
	<advance width="1074"/>
	<outline>
		<contour>
			<point x="886" y="163" type="line"/>
			<point x="859.631" y="130.546"/>
			<point x="811.352" y="109"/>
			<point x="765" y="109" type="curve" smooth="yes"/>
			<point x="692.477" y="109"/>
			<point x="634.146" y="150.556"/>
			<point x="612" y="218" type="curve"/>
			<point x="1041" y="218" type="line"/>
			<point x="1044.78" y="243.535"/>
			<point x="1046" y="259.6"/>
			<point x="1046" y="284" type="curve" smooth="yes"/>
			<point x="1046" y="448.375"/>
			<point x="926.117" y="567"/>
			<point x="760" y="567" type="curve" smooth="yes"/>
			<point x="670.054" y="567"/>
			<point x="605.038" y="534.047"/>
			<point x="541" y="456" type="curve"/>
			<point x="475.615" y="535.007"/>
			<point x="411.341" y="567"/>
			<point x="318" y="567" type="curve" smooth="yes"/>
			<point x="156" y="567"/>
			<point x="28" y="439"/>
			<point x="28" y="277" type="curve" smooth="yes"/>
			<point x="28" y="111.143"/>
			<point x="153.855" y="-13"/>
			<point x="322" y="-13" type="curve" smooth="yes"/>
			<point x="417.615" y="-13"/>
			<point x="486.782" y="22.689"/>
			<point x="541" y="100" type="curve"/>
			<point x="591.904" y="27.137"/>
			<point x="671.823" y="-13"/>
			<point x="766" y="-13" type="curve" smooth="yes"/>
			<point x="886.142" y="-13"/>
			<point x="989.046" y="56.126"/>
			<point x="1028" y="163" type="curve"/>
		</contour>
		<contour>
			<point x="327" y="109" type="curve" smooth="yes"/>
			<point x="233.136" y="109"/>
			<point x="162" y="181.861"/>
			<point x="162" y="278" type="curve" smooth="yes"/>
			<point x="162" y="371.006"/>
			<point x="232.006" y="445"/>
			<point x="320" y="445" type="curve" smooth="yes"/>
			<point x="414.565" y="445"/>
			<point x="484" y="373.448"/>
			<point x="484" y="276" type="curve" smooth="yes"/>
			<point x="484" y="181.166"/>
			<point x="416.156" y="109"/>
		</contour>
		<contour>
			<point x="606" y="335" type="line"/>
			<point x="631.021" y="408.061"/>
			<point x="682.064" y="445"/>
			<point x="758" y="445" type="curve" smooth="yes"/>
			<point x="836.773" y="445"/>
			<point x="886.939" y="408.211"/>
			<point x="908" y="335" type="curve"/>
		</contour>
	</outline>
	<anchor name="Anchor-0" x="537" y="630"/>
</glyph>
<glyph name="Scaron" format="2">
	<unicode hex="0160"/>
	<advance width="524"/>
	<outline>
		<component base="S"/>
		<contour>
			<point x="62" y="943" type="line"/>
			<point x="209" y="805" type="line"/>
			<point x="316" y="805" type="line"/>
			<point x="461" y="943" type="line"/>
			<point x="316" y="943" type="line"/>
			<point x="263" y="879" type="line"/>
			<point x="209" y="943" type="line"/>
		</contour>
	</outline>
	<anchor name="Anchor-0" x="261" y="1015"/>
</glyph>
<glyph name="scaron" format="2">
	<unicode hex="0161"/>
	<advance width="438"/>
	<outline>
		<component base="s"/>
		<contour>
			<point x="20" y="768" type="line"/>
			<point x="167" y="630" type="line"/>
			<point x="274" y="630" type="line"/>
			<point x="419" y="768" type="line"/>
			<point x="274" y="768" type="line"/>
			<point x="221" y="704" type="line"/>
			<point x="167" y="768" type="line"/>
		</contour>
	</outline>
	<anchor name="Anchor-0" x="220" y="840"/>
</glyph>
<glyph name="Zcaron" format="2">
	<unicode hex="017D"/>
	<advance width="522"/>
	<outline>
		<contour>
			<point x="30" y="0" type="line"/>
			<point x="492" y="0" type="line"/>
			<point x="492" y="131" type="line"/>
			<point x="195" y="131" type="line"/>
			<point x="473" y="616" type="line"/>
			<point x="473" y="739" type="line"/>
			<point x="45" y="739" type="line"/>
			<point x="45" y="608" type="line"/>
			<point x="310" y="608" type="line"/>
			<point x="30" y="116" type="line"/>
		</contour>
		<contour>
			<point x="62" y="943" type="line"/>
			<point x="209" y="805" type="line"/>
			<point x="316" y="805" type="line"/>
			<point x="461" y="943" type="line"/>
			<point x="316" y="943" type="line"/>
			<point x="263" y="879" type="line"/>
			<point x="209" y="943" type="line"/>
		</contour>
	</outline>
	<anchor name="Anchor-0" x="259" y="1015"/>
</glyph>
<glyph name="zcaron" format="2">
	<unicode hex="017E"/>
	<advance width="482"/>
	<outline>
		<contour>
			<point x="30" y="0" type="line"/>
			<point x="452" y="0" type="line"/>
			<point x="452" y="119" type="line"/>
			<point x="189" y="119" type="line"/>
			<point x="433" y="435" type="line"/>
			<point x="433" y="554" type="line"/>
			<point x="58" y="554" type="line"/>
			<point x="58" y="435" type="line"/>
			<point x="274" y="435" type="line"/>
			<point x="30" y="119" type="line"/>
		</contour>
		<contour>
			<point x="48" y="768" type="line"/>
			<point x="195" y="630" type="line"/>
			<point x="302" y="630" type="line"/>
			<point x="447" y="768" type="line"/>
			<point x="302" y="768" type="line"/>
			<point x="249" y="704" type="line"/>
			<point x="195" y="768" type="line"/>
		</contour>
	</outline>
	<anchor name="Anchor-0" x="246" y="840"/>
</glyph>
<glyph name="florin" format="2">
	<unicode hex="0192"/>
	<advance width="560"/>
	<outline>
		<contour>
			<point x="3" y="-142" type="line"/>
			<point x="25.419" y="-147.338"/>
			<point x="39.429" y="-149"/>
			<point x="62" y="-149" type="curve" smooth="yes"/>
			<point x="204.068" y="-149"/>
			<point x="270.608" y="-78.301"/>
			<point x="302" y="106" type="curve" smooth="yes"/>
			<point x="364" y="470" type="line"/>
			<point x="457" y="470" type="line"/>
			<point x="476" y="585" type="line"/>
			<point x="384" y="585" type="line"/>
			<point x="386.721" y="599.222" type="line" smooth="yes"/>
			<point x="401.046" y="674.108"/>
			<point x="428.58" y="705"/>
			<point x="481" y="705" type="curve" smooth="yes"/>
			<point x="485.955" y="705"/>
			<point x="491.869" y="704.09"/>
			<point x="494" y="703" type="curve"/>
			<point x="514" y="820" type="line"/>
			<point x="500.58" y="822.44"/>
			<point x="495.167" y="823"/>
			<point x="485" y="823" type="curve" smooth="yes"/>
			<point x="361.706" y="823"/>
			<point x="289.584" y="754.435"/>
			<point x="262" y="611" type="curve" smooth="yes"/>
			<point x="257" y="585" type="line"/>
			<point x="163" y="585" type="line"/>
			<point x="144" y="470" type="line"/>
			<point x="238" y="470" type="line"/>
			<point x="178" y="128" type="line" smooth="yes"/>
			<point x="158.048" y="14.272"/>
			<point x="123.863" y="-30"/>
			<point x="56" y="-30" type="curve" smooth="yes"/>
			<point x="45.125" y="-30"/>
			<point x="37.163" y="-29.035"/>
			<point x="23" y="-26" type="curve"/>
		</contour>
	</outline>
	<anchor name="Anchor-0" x="402" y="890"/>
</glyph>
<glyph name="dotlessj" format="2">
	<unicode hex="0237"/>
	<advance width="255"/>
	<outline>
		<contour>
			<point x="13" y="-185" type="line"/>
			<point x="63.251" y="-185"/>
			<point x="108.294" y="-168.24"/>
			<point x="142" y="-137" type="curve" smooth="yes"/>
			<point x="183.021" y="-98.981"/>
			<point x="201" y="-45.958"/>
			<point x="201" y="37" type="curve" smooth="yes"/>
			<point x="201" y="554" type="line"/>
			<point x="68" y="554" type="line"/>
			<point x="68" y="40" type="line" smooth="yes"/>
			<point x="68" y="-38.136"/>
			<point x="62.913" y="-47.016"/>
			<point x="13" y="-56" type="curve"/>
		</contour>
	</outline>
	<anchor name="Anchor-0" x="134" y="630"/>
</glyph>
<glyph name="circumflex" format="2">
	<unicode hex="02C6"/>
	<advance width="527"/>
	<outline>
		<contour>
			<point x="64" y="630" type="line"/>
			<point x="211" y="630" type="line"/>
			<point x="265" y="694" type="line"/>
			<point x="318" y="630" type="line"/>
			<point x="463" y="630" type="line"/>
			<point x="318" y="768" type="line"/>
			<point x="211" y="768" type="line"/>
		</contour>
	</outline>
</glyph>
<glyph name="breve" format="2">
	<unicode hex="02D8"/>
	<advance width="458"/>
	<outline>
		<contour>
			<point x="64" y="769" type="line"/>
			<point x="69.997" y="681.042"/>
			<point x="130.953" y="630"/>
			<point x="230" y="630" type="curve" smooth="yes"/>
			<point x="325.554" y="630"/>
			<point x="391.017" y="685.484"/>
			<point x="394" y="769" type="curve"/>
			<point x="292" y="769" type="line"/>
			<point x="287.026" y="741.147"/>
			<point x="265.186" y="726"/>
			<point x="230" y="726" type="curve" smooth="yes"/>
			<point x="196.07" y="726"/>
			<point x="174.025" y="739.94"/>
			<point x="162" y="769" type="curve"/>
		</contour>
	</outline>
</glyph>
<glyph name="ogonek" format="2">
	<unicode hex="02DB"/>
	<advance width="310"/>
	<outline>
		<contour>
			<point x="246" y="-113" type="line"/>
			<point x="228.239" y="-120.478"/>
			<point x="217.9" y="-123"/>
			<point x="205" y="-123" type="curve" smooth="yes"/>
			<point x="176.214" y="-123"/>
			<point x="155" y="-105.18"/>
			<point x="155" y="-81" type="curve" smooth="yes"/>
			<point x="155" y="-53.723"/>
			<point x="169.513" y="-35.638"/>
			<point x="220" y="0" type="curve"/>
			<point x="150" y="0" type="line"/>
			<point x="92.728" y="-27.129"/>
			<point x="64" y="-62.203"/>
			<point x="64" y="-105" type="curve" smooth="yes"/>
			<point x="64" y="-163.944"/>
			<point x="110.934" y="-204"/>
			<point x="180" y="-204" type="curve" smooth="yes"/>
			<point x="203.071" y="-204"/>
			<point x="224.021" y="-199.556"/>
			<point x="246" y="-190" type="curve"/>
		</contour>
	</outline>
</glyph>
<glyph name="tilde" format="2">
	<unicode hex="02DC"/>
	<advance width="459"/>
	<outline>
		<contour>
			<point x="118" y="636" type="line"/>
			<point x="155.712" y="658.826"/>
			<point x="161.8" y="661"/>
			<point x="188" y="661" type="curve" smooth="yes"/>
			<point x="204.126" y="661"/>
			<point x="213.084" y="659.009"/>
			<point x="242" y="649" type="curve" smooth="yes"/>
			<point x="268.135" y="639.953"/>
			<point x="286.077" y="636"/>
			<point x="301" y="636" type="curve" smooth="yes"/>
			<point x="335.827" y="636"/>
			<point x="362.841" y="651.806"/>
			<point x="395" y="691" type="curve"/>
			<point x="341" y="772" type="line"/>
			<point x="320.117" y="748.134"/>
			<point x="300.147" y="738"/>
			<point x="274" y="738" type="curve" smooth="yes"/>
			<point x="259.36" y="738"/>
			<point x="246.062" y="741.112"/>
			<point x="227" y="749" type="curve" smooth="yes"/>
			<point x="198.277" y="760.885"/>
			<point x="189.214" y="763"/>
			<point x="167" y="763" type="curve" smooth="yes"/>
			<point x="125.149" y="763"/>
			<point x="99.125" y="751.125"/>
			<point x="64" y="716" type="curve"/>
		</contour>
	</outline>
</glyph>
<glyph name="hungarumlaut" format="2">
	<unicode hex="02DD"/>
	<advance width="683"/>
	<outline>
		<contour>
			<point x="114" y="613" type="line"/>
			<point x="336" y="745" type="line"/>
			<point x="274" y="825" type="line"/>
			<point x="64" y="682" type="line"/>
		</contour>
		<contour>
			<point x="398" y="613" type="line"/>
			<point x="619" y="745" type="line"/>
			<point x="558" y="825" type="line"/>
			<point x="347" y="682" type="line"/>
		</contour>
	</outline>
</glyph>
<glyph name="gravecomb" format="2">
	<unicode hex="0300"/>
	<outline>
		<contour>
			<point x="-495" y="737" type="line"/>
			<point x="-269" y="613" type="line"/>
			<point x="-216" y="692" type="line"/>
			<point x="-438" y="825" type="line"/>
		</contour>
	</outline>
	<anchor name="Anchor-1" x="-323" y="840"/>
	<anchor name="_Anchor-1" x="-323" y="630"/>
	<anchor name="_Anchor-0" x="-323" y="630"/>
</glyph>
<glyph name="acutecomb" format="2">
	<unicode hex="0301"/>
	<outline>
		<contour>
			<point x="-377" y="613" type="line"/>
			<point x="-150" y="733" type="line"/>
			<point x="-204" y="825" type="line"/>
			<point x="-428" y="691" type="line"/>
		</contour>
	</outline>
	<anchor name="Anchor-1" x="-323" y="840"/>
	<anchor name="_Anchor-1" x="-323" y="630"/>
	<anchor name="_Anchor-0" x="-323" y="630"/>
</glyph>
<glyph name="macroncomb" format="2">
	<unicode hex="0304"/>
	<outline>
		<contour>
			<point x="-461" y="648" type="line"/>
			<point x="-184" y="648" type="line"/>
			<point x="-184" y="748" type="line"/>
			<point x="-461" y="748" type="line"/>
		</contour>
	</outline>
	<anchor name="Anchor-1" x="-323" y="840"/>
	<anchor name="_Anchor-1" x="-323" y="630"/>
	<anchor name="_Anchor-0" x="-323" y="630"/>
</glyph>
<glyph name="dotaccentcomb" format="2">
	<unicode hex="0307"/>
	<outline>
		<contour>
			<point x="-389" y="630" type="line"/>
			<point x="-256" y="630" type="line"/>
			<point x="-256" y="763" type="line"/>
			<point x="-389" y="763" type="line"/>
		</contour>
	</outline>
	<anchor name="Anchor-1" x="-323" y="840"/>
	<anchor name="_Anchor-1" x="-323" y="630"/>
	<anchor name="_Anchor-0" x="-323" y="630"/>
</glyph>
<glyph name="dieresiscomb" format="2">
	<unicode hex="0308"/>
	<outline>
		<contour>
			<point x="-494" y="630" type="line"/>
			<point x="-361" y="630" type="line"/>
			<point x="-361" y="763" type="line"/>
			<point x="-494" y="763" type="line"/>
		</contour>
		<contour>
			<point x="-284" y="630" type="line"/>
			<point x="-151" y="630" type="line"/>
			<point x="-151" y="763" type="line"/>
			<point x="-284" y="763" type="line"/>
		</contour>
	</outline>
	<anchor name="Anchor-1" x="-323" y="840"/>
	<anchor name="_Anchor-1" x="-323" y="630"/>
	<anchor name="_Anchor-0" x="-323" y="630"/>
</glyph>
<glyph name="ringcomb" format="2">
	<unicode hex="030A"/>
	<outline>
		<contour>
			<point x="-323" y="610" type="curve" smooth="yes"/>
			<point x="-266" y="610"/>
			<point x="-220" y="656"/>
			<point x="-220" y="713" type="curve" smooth="yes"/>
			<point x="-220" y="769.275"/>
			<point x="-266.272" y="816"/>
			<point x="-322" y="816" type="curve" smooth="yes"/>
			<point x="-379.777" y="816"/>
			<point x="-426" y="770.221"/>
			<point x="-426" y="713" type="curve" smooth="yes"/>
			<point x="-426" y="656"/>
			<point x="-380" y="610"/>
		</contour>
		<contour>
			<point x="-359" y="713" type="curve" smooth="yes"/>
			<point x="-359" y="732.771"/>
			<point x="-343.222" y="749"/>
			<point x="-324" y="749" type="curve" smooth="yes"/>
			<point x="-303.222" y="749"/>
			<point x="-287" y="733.216"/>
			<point x="-287" y="713" type="curve" smooth="yes"/>
			<point x="-287" y="693"/>
			<point x="-303" y="677"/>
			<point x="-323" y="677" type="curve" smooth="yes"/>
			<point x="-343" y="677"/>
			<point x="-359" y="693"/>
		</contour>
	</outline>
	<anchor name="Anchor-1" x="-323" y="840"/>
	<anchor name="_Anchor-1" x="-323" y="630"/>
	<anchor name="_Anchor-0" x="-323" y="630"/>
</glyph>
<glyph name="hungarumlautcomb" format="2">
	<unicode hex="030B"/>
	<outline>
		<contour>
			<point x="-533" y="613" type="line"/>
			<point x="-311" y="745" type="line"/>
			<point x="-373" y="825" type="line"/>
			<point x="-583" y="682" type="line"/>
		</contour>
		<contour>
			<point x="-249" y="613" type="line"/>
			<point x="-28" y="745" type="line"/>
			<point x="-89" y="825" type="line"/>
			<point x="-300" y="682" type="line"/>
		</contour>
	</outline>
	<anchor name="Anchor-1" x="-323" y="840"/>
	<anchor name="_Anchor-1" x="-323" y="630"/>
	<anchor name="_Anchor-0" x="-323" y="630"/>
</glyph>
<glyph name="caroncomb" format="2">
	<unicode hex="030C"/>
	<outline>
		<contour>
			<point x="-522" y="768" type="line"/>
			<point x="-375" y="630" type="line"/>
			<point x="-268" y="630" type="line"/>
			<point x="-123" y="768" type="line"/>
			<point x="-268" y="768" type="line"/>
			<point x="-321" y="704" type="line"/>
			<point x="-375" y="768" type="line"/>
		</contour>
	</outline>
	<anchor name="Anchor-1" x="-323" y="840"/>
	<anchor name="_Anchor-1" x="-323" y="630"/>
	<anchor name="_Anchor-0" x="-323" y="630"/>
</glyph>
<glyph name="Djecyr" format="2">
	<unicode hex="0402"/>
	<advance width="693"/>
	<outline>
		<contour>
			<point x="154" y="0" type="line"/>
			<point x="291" y="0" type="line"/>
			<point x="291" y="319" type="line"/>
			<point x="349" y="319" type="line" smooth="yes"/>
			<point x="474.826" y="319"/>
			<point x="528" y="291.67"/>
			<point x="528" y="227" type="curve" smooth="yes"/>
			<point x="528" y="165.953"/>
			<point x="471.688" y="118"/>
			<point x="400" y="118" type="curve"/>
			<point x="400" y="-13" type="line"/>
			<point x="558.544" y="-13"/>
			<point x="666" y="82.741"/>
			<point x="666" y="224" type="curve" smooth="yes"/>
			<point x="666" y="381.231"/>
			<point x="566.803" y="450"/>
			<point x="340" y="450" type="curve" smooth="yes"/>
			<point x="291" y="450" type="line"/>
			<point x="291" y="608" type="line"/>
			<point x="468" y="608" type="line"/>
			<point x="468" y="739" type="line"/>
			<point x="7" y="739" type="line"/>
			<point x="7" y="608" type="line"/>
			<point x="154" y="608" type="line"/>
		</contour>
	</outline>
	<anchor name="Anchor-0" x="230" y="805"/>
</glyph>
<glyph name="Gjecyr" format="2">
	<unicode hex="0403"/>
	<advance width="467"/>
	<outline>
		<contour>
			<point x="211" y="788" type="line"/>
			<point x="438" y="908" type="line"/>
			<point x="384" y="1000" type="line"/>
			<point x="160" y="866" type="line"/>
		</contour>
		<contour>
			<point x="71" y="0" type="line"/>
			<point x="208" y="0" type="line"/>
			<point x="208" y="608" type="line"/>
			<point x="460" y="608" type="line"/>
			<point x="460" y="739" type="line"/>
			<point x="71" y="739" type="line"/>
		</contour>
	</outline>
	<anchor name="Anchor-0" x="265" y="1015"/>
</glyph>
<glyph name="Yukrcyr" format="2">
	<unicode hex="0407"/>
	<advance width="279"/>
	<outline>
		<contour>
			<point x="71" y="0" type="line"/>
			<point x="208" y="0" type="line"/>
			<point x="208" y="739" type="line"/>
			<point x="71" y="739" type="line"/>
		</contour>
		<contour>
			<point x="-32" y="805" type="line"/>
			<point x="101" y="805" type="line"/>
			<point x="101" y="938" type="line"/>
			<point x="-32" y="938" type="line"/>
		</contour>
		<contour>
			<point x="178" y="805" type="line"/>
			<point x="311" y="805" type="line"/>
			<point x="311" y="938" type="line"/>
			<point x="178" y="938" type="line"/>
		</contour>
	</outline>
	<anchor name="Anchor-0" x="139" y="1015"/>
</glyph>
<glyph name="Ljecyr" format="2">
	<unicode hex="0409"/>
	<advance width="1012"/>
	<outline>
		<contour>
			<point x="2" y="0" type="line"/>
			<point x="167" y="0" type="line"/>
			<point x="473" y="513" type="line"/>
			<point x="473" y="0" type="line"/>
			<point x="661" y="0" type="line" smooth="yes"/>
			<point x="880.312" y="0"/>
			<point x="985" y="72.377"/>
			<point x="985" y="224" type="curve" smooth="yes"/>
			<point x="985" y="381.231"/>
			<point x="885.803" y="450"/>
			<point x="659" y="450" type="curve" smooth="yes"/>
			<point x="610" y="450" type="line"/>
			<point x="610" y="739" type="line"/>
			<point x="473" y="739" type="line"/>
		</contour>
		<contour>
			<point x="610" y="131" type="line"/>
			<point x="610" y="319" type="line"/>
			<point x="658" y="319" type="line" smooth="yes"/>
			<point x="783.471" y="319"/>
			<point x="847" y="288.076"/>
			<point x="847" y="227" type="curve" smooth="yes"/>
			<point x="847" y="158.735"/>
			<point x="794.42" y="131"/>
			<point x="665" y="131" type="curve" smooth="yes"/>
		</contour>
	</outline>
	<anchor name="Anchor-0" x="540" y="805"/>
</glyph>
<glyph name="Njecyr" format="2">
	<unicode hex="040A"/>
	<advance width="1004"/>
	<outline>
		<contour>
			<point x="71" y="0" type="line"/>
			<point x="208" y="0" type="line"/>
			<point x="208" y="319" type="line"/>
			<point x="465" y="319" type="line"/>
			<point x="465" y="0" type="line"/>
			<point x="653" y="0" type="line" smooth="yes"/>
			<point x="872.312" y="0"/>
			<point x="977" y="72.377"/>
			<point x="977" y="224" type="curve" smooth="yes"/>
			<point x="977" y="381.231"/>
			<point x="877.803" y="450"/>
			<point x="651" y="450" type="curve" smooth="yes"/>
			<point x="602" y="450" type="line"/>
			<point x="602" y="739" type="line"/>
			<point x="465" y="739" type="line"/>
			<point x="465" y="450" type="line"/>
			<point x="208" y="450" type="line"/>
			<point x="208" y="739" type="line"/>
			<point x="71" y="739" type="line"/>
		</contour>
		<contour>
			<point x="602" y="131" type="line"/>
			<point x="602" y="319" type="line"/>
			<point x="650" y="319" type="line" smooth="yes"/>
			<point x="775.471" y="319"/>
			<point x="839" y="288.076"/>
			<point x="839" y="227" type="curve" smooth="yes"/>
			<point x="839" y="154.109"/>
			<point x="795.189" y="131"/>
			<point x="657" y="131" type="curve" smooth="yes"/>
		</contour>
	</outline>
	<anchor name="Anchor-0" x="531" y="805"/>
</glyph>
<glyph name="Tshecyr" format="2">
	<unicode hex="040B"/>
	<advance width="702"/>
	<outline>
		<contour>
			<point x="154" y="0" type="line"/>
			<point x="291" y="0" type="line"/>
			<point x="291" y="317" type="line"/>
			<point x="309.114" y="319.588"/>
			<point x="339.125" y="321"/>
			<point x="376" y="321" type="curve" smooth="yes"/>
			<point x="473.17" y="321"/>
			<point x="513" y="292.799"/>
			<point x="513" y="224" type="curve" smooth="yes"/>
			<point x="513" y="0" type="line"/>
			<point x="651" y="0" type="line"/>
			<point x="651" y="224" type="line" smooth="yes"/>
			<point x="651" y="359.372"/>
			<point x="555.934" y="452"/>
			<point x="417" y="452" type="curve" smooth="yes"/>
			<point x="322" y="452"/>
			<point x="291" y="448"/>
			<point x="291" y="448" type="curve"/>
			<point x="291" y="608" type="line"/>
			<point x="468" y="608" type="line"/>
			<point x="468" y="739" type="line"/>
			<point x="7" y="739" type="line"/>
			<point x="7" y="608" type="line"/>
			<point x="154" y="608" type="line"/>
		</contour>
	</outline>
	<anchor name="Anchor-0" x="235" y="805"/>
</glyph>
<glyph name="Igravecyr" format="2">
	<unicode hex="040D"/>
	<advance width="738"/>
	<outline>
		<contour>
			<point x="197" y="912" type="line"/>
			<point x="423" y="788" type="line"/>
			<point x="476" y="867" type="line"/>
			<point x="254" y="1000" type="line"/>
		</contour>
		<contour>
			<point x="71" y="0" type="line"/>
			<point x="210" y="0" type="line"/>
			<point x="531" y="512" type="line"/>
			<point x="531" y="0" type="line"/>
			<point x="667" y="0" type="line"/>
			<point x="667" y="739" type="line"/>
			<point x="528" y="739" type="line"/>
			<point x="207" y="227" type="line"/>
			<point x="207" y="739" type="line"/>
			<point x="71" y="739" type="line"/>
		</contour>
	</outline>
	<anchor name="Anchor-0" x="369" y="1015"/>
</glyph>
<glyph name="Ushortcyr" format="2">
	<unicode hex="040E"/>
	<advance width="599"/>
	<outline>
		<contour>
			<point x="122" y="937" type="line"/>
			<point x="136.973" y="848.098"/>
			<point x="202.372" y="796"/>
			<point x="299" y="796" type="curve" smooth="yes"/>
			<point x="395.628" y="796"/>
			<point x="461.027" y="848.098"/>
			<point x="476" y="937" type="curve"/>
			<point x="361" y="937" type="line"/>
			<point x="361" y="884.371"/>
			<point x="341.934" y="861"/>
			<point x="299" y="861" type="curve" smooth="yes"/>
			<point x="256.066" y="861"/>
			<point x="237" y="884.371"/>
			<point x="237" y="937" type="curve"/>
		</contour>
		<contour>
			<point x="155" y="0" type="line"/>
			<point x="285" y="0" type="line"/>
			<point x="595" y="739" type="line"/>
			<point x="447" y="739" type="line"/>
			<point x="298" y="363" type="line"/>
			<point x="152" y="739" type="line"/>
			<point x="4" y="739" type="line"/>
			<point x="231" y="194" type="line"/>
		</contour>
	</outline>
	<anchor name="Anchor-0" x="299" y="1015"/>
</glyph>
<glyph name="Dzhecyr" format="2">
	<unicode hex="040F"/>
	<advance width="666"/>
	<outline>
		<contour>
			<point x="71" y="0" type="line"/>
			<point x="261" y="0" type="line"/>
			<point x="287" y="-145" type="line"/>
			<point x="379" y="-145" type="line"/>
			<point x="405" y="0" type="line"/>
			<point x="595" y="0" type="line"/>
			<point x="595" y="739" type="line"/>
			<point x="458" y="739" type="line"/>
			<point x="458" y="131" type="line"/>
			<point x="208" y="131" type="line"/>
			<point x="208" y="739" type="line"/>
			<point x="71" y="739" type="line"/>
		</contour>
	</outline>
	<anchor name="Anchor-0" x="333" y="805"/>
</glyph>
<glyph name="Zecyr" format="2">
	<unicode hex="0417"/>
	<advance width="554"/>
	<outline>
		<contour>
			<point x="30" y="225" type="line"/>
			<point x="30" y="93.66"/>
			<point x="139.349" y="-13"/>
			<point x="274" y="-13" type="curve" smooth="yes"/>
			<point x="408.651" y="-13"/>
			<point x="518" y="93.66"/>
			<point x="518" y="225" type="curve" smooth="yes"/>
			<point x="518" y="296.111"/>
			<point x="466.15" y="371.006"/>
			<point x="401" y="394" type="curve"/>
			<point x="457.869" y="412.054"/>
			<point x="495" y="467.75"/>
			<point x="495" y="535" type="curve" smooth="yes"/>
			<point x="495" y="655.387"/>
			<point x="396.606" y="752"/>
			<point x="274" y="752" type="curve" smooth="yes"/>
			<point x="151.394" y="752"/>
			<point x="53" y="655.387"/>
			<point x="53" y="535" type="curve"/>
			<point x="186" y="535" type="line"/>
			<point x="186" y="582.443"/>
			<point x="225.453" y="621"/>
			<point x="274" y="621" type="curve" smooth="yes"/>
			<point x="322.547" y="621"/>
			<point x="362" y="582.443"/>
			<point x="362" y="535" type="curve" smooth="yes"/>
			<point x="362" y="479.442"/>
			<point x="314.2" y="450"/>
			<point x="224" y="450" type="curve"/>
			<point x="224" y="330" type="line"/>
			<point x="334.186" y="330"/>
			<point x="380" y="299.163"/>
			<point x="380" y="225" type="curve" smooth="yes"/>
			<point x="380" y="166"/>
			<point x="333" y="119"/>
			<point x="274" y="119" type="curve" smooth="yes"/>
			<point x="215" y="119"/>
			<point x="168" y="166"/>
			<point x="168" y="225" type="curve"/>
		</contour>
	</outline>
	<anchor name="Anchor-0" x="276" y="805"/>
</glyph>
<glyph name="Icyr" format="2">
	<unicode hex="0418"/>
	<advance width="738"/>
	<outline>
		<contour>
			<point x="71" y="0" type="line"/>
			<point x="210" y="0" type="line"/>
			<point x="531" y="512" type="line"/>
			<point x="531" y="0" type="line"/>
			<point x="667" y="0" type="line"/>
			<point x="667" y="739" type="line"/>
			<point x="528" y="739" type="line"/>
			<point x="207" y="227" type="line"/>
			<point x="207" y="739" type="line"/>
			<point x="71" y="739" type="line"/>
		</contour>
	</outline>
	<anchor name="Anchor-0" x="369" y="805"/>
</glyph>
<glyph name="Ishortcyr" format="2">
	<unicode hex="0419"/>
	<advance width="738"/>
	<outline>
		<contour>
			<point x="192" y="937" type="line"/>
			<point x="206.973" y="848.098"/>
			<point x="272.372" y="796"/>
			<point x="369" y="796" type="curve" smooth="yes"/>
			<point x="465.628" y="796"/>
			<point x="531.027" y="848.098"/>
			<point x="546" y="937" type="curve"/>
			<point x="431" y="937" type="line"/>
			<point x="431" y="884.371"/>
			<point x="411.934" y="861"/>
			<point x="369" y="861" type="curve" smooth="yes"/>
			<point x="326.066" y="861"/>
			<point x="307" y="884.371"/>
			<point x="307" y="937" type="curve"/>
		</contour>
		<contour>
			<point x="71" y="0" type="line"/>
			<point x="210" y="0" type="line"/>
			<point x="531" y="512" type="line"/>
			<point x="531" y="0" type="line"/>
			<point x="667" y="0" type="line"/>
			<point x="667" y="739" type="line"/>
			<point x="528" y="739" type="line"/>
			<point x="207" y="227" type="line"/>
			<point x="207" y="739" type="line"/>
			<point x="71" y="739" type="line"/>
		</contour>
	</outline>
	<anchor name="Anchor-0" x="369" y="1015"/>
</glyph>
<glyph name="Ucyr" format="2">
	<unicode hex="0423"/>
	<advance width="599"/>
	<outline>
		<contour>
			<point x="155" y="0" type="line"/>
			<point x="285" y="0" type="line"/>
			<point x="595" y="739" type="line"/>
			<point x="447" y="739" type="line"/>
			<point x="298" y="363" type="line"/>
			<point x="152" y="739" type="line"/>
			<point x="4" y="739" type="line"/>
			<point x="231" y="194" type="line"/>
		</contour>
	</outline>
	<anchor name="Anchor-0" x="299" y="805"/>
</glyph>
<glyph name="Efcyr" format="2">
	<unicode hex="0424"/>
	<advance width="811"/>
	<outline>
		<contour>
			<point x="337" y="0" type="line"/>
			<point x="474" y="0" type="line"/>
			<point x="474" y="57" type="line"/>
			<point x="653.866" y="84.437"/>
			<point x="781" y="216.541"/>
			<point x="781" y="376" type="curve" smooth="yes"/>
			<point x="781" y="535.459"/>
			<point x="653.866" y="667.563"/>
			<point x="474" y="695" type="curve"/>
			<point x="474" y="739" type="line"/>
			<point x="337" y="739" type="line"/>
			<point x="337" y="695" type="line"/>
			<point x="157.545" y="667.47"/>
			<point x="30" y="534.94"/>
			<point x="30" y="376" type="curve" smooth="yes"/>
			<point x="30" y="217.06"/>
			<point x="157.545" y="84.53"/>
			<point x="337" y="57" type="curve"/>
		</contour>
		<contour>
			<point x="337" y="191" type="line"/>
			<point x="235.536" y="214.337"/>
			<point x="168" y="288.266"/>
			<point x="168" y="376" type="curve" smooth="yes"/>
			<point x="168" y="463.438"/>
			<point x="235.181" y="536.582"/>
			<point x="337" y="560" type="curve"/>
		</contour>
		<contour>
			<point x="474" y="561" type="line"/>
			<point x="575.464" y="537.663"/>
			<point x="643" y="463.734"/>
			<point x="643" y="376" type="curve" smooth="yes"/>
			<point x="643" y="288.266"/>
			<point x="575.464" y="214.337"/>
			<point x="474" y="191" type="curve"/>
		</contour>
	</outline>
	<anchor name="Anchor-0" x="405" y="805"/>
</glyph>
<glyph name="Tsecyr" format="2">
	<unicode hex="0426"/>
	<advance width="717"/>
	<outline>
		<contour>
			<point x="71" y="0" type="line"/>
			<point x="571" y="0" type="line"/>
			<point x="599" y="-145" type="line"/>
			<point x="695" y="-145" type="line"/>
			<point x="695" y="131" type="line"/>
			<point x="585" y="131" type="line"/>
			<point x="585" y="739" type="line"/>
			<point x="448" y="739" type="line"/>
			<point x="448" y="131" type="line"/>
			<point x="208" y="131" type="line"/>
			<point x="208" y="739" type="line"/>
			<point x="71" y="739" type="line"/>
		</contour>
	</outline>
	<anchor name="Anchor-0" x="328" y="805"/>
</glyph>
<glyph name="Checyr" format="2">
	<unicode hex="0427"/>
	<advance width="627"/>
	<outline>
		<contour>
			<point x="419" y="0" type="line"/>
			<point x="556" y="0" type="line"/>
			<point x="556" y="739" type="line"/>
			<point x="419" y="739" type="line"/>
			<point x="419" y="409" type="line"/>
			<point x="382.16" y="401.035"/>
			<point x="348.227" y="398"/>
			<point x="296" y="398" type="curve" smooth="yes"/>
			<point x="216.949" y="398"/>
			<point x="187" y="432.894"/>
			<point x="187" y="525" type="curve" smooth="yes"/>
			<point x="187" y="739" type="line"/>
			<point x="50" y="739" type="line"/>
			<point x="50" y="490" type="line" smooth="yes"/>
			<point x="50" y="339.718"/>
			<point x="122.392" y="267"/>
			<point x="272" y="267" type="curve" smooth="yes"/>
			<point x="311.344" y="267"/>
			<point x="355.678" y="271.825"/>
			<point x="419" y="283" type="curve"/>
		</contour>
	</outline>
	<anchor name="Anchor-0" x="311" y="805"/>
</glyph>
<glyph name="Shchacyr" format="2">
	<unicode hex="0429"/>
	<advance width="956"/>
	<outline>
		<contour>
			<point x="71" y="0" type="line"/>
			<point x="810" y="0" type="line"/>
			<point x="838" y="-145" type="line"/>
			<point x="934" y="-145" type="line"/>
			<point x="934" y="131" type="line"/>
			<point x="824" y="131" type="line"/>
			<point x="824" y="739" type="line"/>
			<point x="687" y="739" type="line"/>
			<point x="687" y="131" type="line"/>
			<point x="516" y="131" type="line"/>
			<point x="516" y="739" type="line"/>
			<point x="379" y="739" type="line"/>
			<point x="379" y="131" type="line"/>
			<point x="208" y="131" type="line"/>
			<point x="208" y="739" type="line"/>
			<point x="71" y="739" type="line"/>
		</contour>
	</outline>
	<anchor name="Anchor-0" x="447" y="805"/>
</glyph>
<glyph name="Hardcyr" format="2">
	<unicode hex="042A"/>
	<advance width="711"/>
	<outline>
		<contour>
			<point x="309" y="131" type="line"/>
			<point x="309" y="319" type="line"/>
			<point x="357" y="319" type="line" smooth="yes"/>
			<point x="403.48" y="319"/>
			<point x="441.739" y="315.614"/>
			<point x="470" y="309" type="curve" smooth="yes"/>
			<point x="517.171" y="297.96"/>
			<point x="546" y="266.855"/>
			<point x="546" y="227" type="curve" smooth="yes"/>
			<point x="546" y="182.26"/>
			<point x="517.28" y="149.064"/>
			<point x="469" y="138" type="curve"/>
			<point x="441.673" y="132.745"/>
			<point x="415.5" y="131"/>
			<point x="364" y="131" type="curve" smooth="yes"/>
		</contour>
		<contour>
			<point x="172" y="0" type="line"/>
			<point x="360" y="0" type="line" smooth="yes"/>
			<point x="474.361" y="0"/>
			<point x="530.48" y="9.481"/>
			<point x="579" y="37" type="curve" smooth="yes"/>
			<point x="646.279" y="75.158"/>
			<point x="684" y="142.338"/>
			<point x="684" y="224" type="curve" smooth="yes"/>
			<point x="684" y="311.023"/>
			<point x="640.089" y="386.246"/>
			<point x="569" y="421" type="curve" smooth="yes"/>
			<point x="524.405" y="442.802"/>
			<point x="472.034" y="450"/>
			<point x="358" y="450" type="curve" smooth="yes"/>
			<point x="309" y="450" type="line"/>
			<point x="309" y="739" type="line"/>
			<point x="7" y="739" type="line"/>
			<point x="7" y="608" type="line"/>
			<point x="172" y="608" type="line"/>
		</contour>
	</outline>
	<anchor name="Anchor-0" x="240" y="805"/>
</glyph>
<glyph name="Ylongcyr" format="2">
	<unicode hex="042B"/>
	<advance width="865"/>
	<outline>
		<contour>
			<point x="71" y="0" type="line"/>
			<point x="259" y="0" type="line" smooth="yes"/>
			<point x="478.312" y="0"/>
			<point x="583" y="72.377"/>
			<point x="583" y="224" type="curve" smooth="yes"/>
			<point x="583" y="381.231"/>
			<point x="483.803" y="450"/>
			<point x="257" y="450" type="curve" smooth="yes"/>
			<point x="208" y="450" type="line"/>
			<point x="208" y="739" type="line"/>
			<point x="71" y="739" type="line"/>
		</contour>
		<contour>
			<point x="208" y="131" type="line"/>
			<point x="208" y="319" type="line"/>
			<point x="256" y="319" type="line" smooth="yes"/>
			<point x="381.471" y="319"/>
			<point x="445" y="288.076"/>
			<point x="445" y="227" type="curve" smooth="yes"/>
			<point x="445" y="154.646"/>
			<point x="400.171" y="131"/>
			<point x="263" y="131" type="curve" smooth="yes"/>
		</contour>
		<contour>
			<point x="657" y="0" type="line"/>
			<point x="794" y="0" type="line"/>
			<point x="794" y="739" type="line"/>
			<point x="657" y="739" type="line"/>
		</contour>
	</outline>
	<anchor name="Anchor-0" x="432" y="805"/>
</glyph>
<glyph name="Ereversedcyr" format="2">
	<unicode hex="042D"/>
	<advance width="802"/>
	<outline>
		<contour>
			<point x="36" y="206" type="line"/>
			<point x="93.961" y="71.091"/>
			<point x="224.897" y="-13"/>
			<point x="377" y="-13" type="curve" smooth="yes"/>
			<point x="593.112" y="-13"/>
			<point x="766" y="158.111"/>
			<point x="766" y="372" type="curve" smooth="yes"/>
			<point x="766" y="581"/>
			<point x="595" y="752"/>
			<point x="386" y="752" type="curve" smooth="yes"/>
			<point x="229.253" y="752"/>
			<point x="100.124" y="668.988"/>
			<point x="36" y="527" type="curve"/>
			<point x="189" y="527" type="line"/>
			<point x="239.119" y="592.155"/>
			<point x="297.204" y="620"/>
			<point x="383" y="620" type="curve" smooth="yes"/>
			<point x="499.256" y="620"/>
			<point x="589.399" y="550.483"/>
			<point x="619" y="438" type="curve"/>
			<point x="256" y="438" type="line"/>
			<point x="256" y="307" type="line"/>
			<point x="620" y="307" type="line"/>
			<point x="591.347" y="196.48"/>
			<point x="492.436" y="119"/>
			<point x="380" y="119" type="curve" smooth="yes"/>
			<point x="308.741" y="119"/>
			<point x="257.779" y="143.228"/>
			<point x="197" y="206" type="curve"/>
		</contour>
	</outline>
	<anchor name="Anchor-0" x="382" y="805"/>
</glyph>
<glyph name="vecyr" format="2">
	<unicode hex="0432"/>
	<advance width="541"/>
	<outline>
		<contour>
			<point x="54" y="0" type="line"/>
			<point x="317" y="0" type="line" smooth="yes"/>
			<point x="427.059" y="0"/>
			<point x="509" y="76.393"/>
			<point x="509" y="179" type="curve" smooth="yes"/>
			<point x="509" y="227.265"/>
			<point x="477.441" y="268.709"/>
			<point x="426" y="288" type="curve"/>
			<point x="463.654" y="303.505"/>
			<point x="491" y="343.892"/>
			<point x="491" y="384" type="curve" smooth="yes"/>
			<point x="491" y="490.211"/>
			<point x="412.576" y="554"/>
			<point x="282" y="554" type="curve" smooth="yes"/>
			<point x="54" y="554" type="line"/>
		</contour>
		<contour>
			<point x="187" y="334" type="line"/>
			<point x="187" y="433" type="line"/>
			<point x="281" y="433" type="line" smooth="yes"/>
			<point x="333.908" y="433"/>
			<point x="364" y="415.235"/>
			<point x="364" y="384" type="curve" smooth="yes"/>
			<point x="364" y="352.133"/>
			<point x="333.9" y="334"/>
			<point x="281" y="334" type="curve" smooth="yes"/>
		</contour>
		<contour>
			<point x="187" y="121" type="line"/>
			<point x="187" y="237" type="line"/>
			<point x="308" y="237" type="line" smooth="yes"/>
			<point x="348.216" y="237"/>
			<point x="375" y="213.813"/>
			<point x="375" y="179" type="curve" smooth="yes"/>
			<point x="375" y="144.187"/>
			<point x="348.216" y="121"/>
			<point x="308" y="121" type="curve" smooth="yes"/>
		</contour>
	</outline>
	<anchor name="Anchor-0" x="254" y="630"/>
</glyph>
<glyph name="gecyr" format="2">
	<unicode hex="0433"/>
	<advance width="386"/>
	<outline>
		<contour>
			<point x="54" y="0" type="line"/>
			<point x="187" y="0" type="line"/>
			<point x="187" y="433" type="line"/>
			<point x="368" y="433" type="line"/>
			<point x="368" y="554" type="line"/>
			<point x="54" y="554" type="line"/>
		</contour>
	</outline>
	<anchor name="Anchor-0" x="211" y="630"/>
</glyph>
<glyph name="decyr" format="2">
	<unicode hex="0434"/>
	<advance width="676"/>
	<outline>
		<contour>
			<point x="10" y="-132" type="line"/>
			<point x="106" y="-132" type="line"/>
			<point x="134" y="0" type="line"/>
			<point x="543" y="0" type="line"/>
			<point x="571" y="-132" type="line"/>
			<point x="666" y="-132" type="line"/>
			<point x="666" y="121" type="line"/>
			<point x="581" y="121" type="line"/>
			<point x="396" y="554" type="line"/>
			<point x="280" y="554" type="line"/>
			<point x="95" y="121" type="line"/>
			<point x="10" y="121" type="line"/>
		</contour>
		<contour>
			<point x="233" y="121" type="line"/>
			<point x="338" y="371" type="line"/>
			<point x="443" y="121" type="line"/>
		</contour>
	</outline>
	<anchor name="Anchor-0" x="338" y="630"/>
</glyph>
<glyph name="zecyr" format="2">
	<unicode hex="0437"/>
	<advance width="478"/>
	<outline>
		<contour>
			<point x="24" y="175" type="line"/>
			<point x="31.277" y="68.957"/>
			<point x="123.261" y="-13"/>
			<point x="235" y="-13" type="curve" smooth="yes"/>
			<point x="351.362" y="-13"/>
			<point x="446" y="71.322"/>
			<point x="446" y="175" type="curve" smooth="yes"/>
			<point x="446" y="225.944"/>
			<point x="403.164" y="275.704"/>
			<point x="347" y="290" type="curve"/>
			<point x="347" y="293" type="line"/>
			<point x="392.627" y="303.243"/>
			<point x="426" y="345.487"/>
			<point x="426" y="393" type="curve" smooth="yes"/>
			<point x="426" y="490.06"/>
			<point x="340.934" y="568"/>
			<point x="235" y="568" type="curve" smooth="yes"/>
			<point x="130.909" y="568"/>
			<point x="49.131" y="493.849"/>
			<point x="42" y="393" type="curve"/>
			<point x="167" y="393" type="line"/>
			<point x="173.587" y="425.937"/>
			<point x="200.111" y="447"/>
			<point x="235" y="447" type="curve" smooth="yes"/>
			<point x="269.148" y="447"/>
			<point x="297" y="422.742"/>
			<point x="297" y="393" type="curve" smooth="yes"/>
			<point x="297" y="348.833"/>
			<point x="268.524" y="331"/>
			<point x="198" y="331" type="curve"/>
			<point x="198" y="243" type="line"/>
			<point x="281.798" y="243"/>
			<point x="312" y="224.985"/>
			<point x="312" y="175" type="curve" smooth="yes"/>
			<point x="312" y="138.071"/>
			<point x="278.083" y="109"/>
			<point x="235" y="109" type="curve" smooth="yes"/>
			<point x="192.758" y="109"/>
			<point x="160.073" y="136.306"/>
			<point x="156" y="175" type="curve"/>
		</contour>
	</outline>
	<anchor name="Anchor-0" x="235" y="630"/>
</glyph>
<glyph name="icyr" format="2">
	<unicode hex="0438"/>
	<advance width="623"/>
	<outline>
		<contour>
			<point x="54" y="0" type="line"/>
			<point x="189" y="0" type="line"/>
			<point x="437" y="366" type="line"/>
			<point x="437" y="0" type="line"/>
			<point x="569" y="0" type="line"/>
			<point x="569" y="554" type="line"/>
			<point x="434" y="554" type="line"/>
			<point x="186" y="188" type="line"/>
			<point x="186" y="554" type="line"/>
			<point x="54" y="554" type="line"/>
		</contour>
	</outline>
	<anchor name="Anchor-0" x="311" y="630"/>
</glyph>
<glyph name="ishortcyr" format="2">
	<unicode hex="0439"/>
	<advance width="623"/>
	<outline>
		<contour>
			<point x="147" y="746" type="line"/>
			<point x="161.378" y="659.733"/>
			<point x="216.885" y="616"/>
			<point x="312" y="616" type="curve" smooth="yes"/>
			<point x="407.115" y="616"/>
			<point x="462.622" y="659.733"/>
			<point x="477" y="746" type="curve"/>
			<point x="376" y="746" type="line"/>
			<point x="376" y="696.039"/>
			<point x="357.035" y="675"/>
			<point x="312" y="675" type="curve" smooth="yes"/>
			<point x="266.965" y="675"/>
			<point x="248" y="696.039"/>
			<point x="248" y="746" type="curve"/>
		</contour>
		<contour>
			<point x="54" y="0" type="line"/>
			<point x="189" y="0" type="line"/>
			<point x="437" y="366" type="line"/>
			<point x="437" y="0" type="line"/>
			<point x="569" y="0" type="line"/>
			<point x="569" y="554" type="line"/>
			<point x="434" y="554" type="line"/>
			<point x="186" y="188" type="line"/>
			<point x="186" y="554" type="line"/>
			<point x="54" y="554" type="line"/>
		</contour>
	</outline>
	<anchor name="Anchor-0" x="311" y="840"/>
</glyph>
<glyph name="kacyr" format="2">
	<unicode hex="043A"/>
	<advance width="554"/>
	<outline>
		<contour>
			<point x="54" y="0" type="line"/>
			<point x="187" y="0" type="line"/>
			<point x="187" y="255" type="line"/>
			<point x="379" y="0" type="line"/>
			<point x="552" y="0" type="line"/>
			<point x="319" y="279" type="line"/>
			<point x="540" y="554" type="line"/>
			<point x="379" y="554" type="line"/>
			<point x="187" y="299" type="line"/>
			<point x="187" y="554" type="line"/>
			<point x="54" y="554" type="line"/>
		</contour>
	</outline>
	<anchor name="Anchor-0" x="305" y="630"/>
</glyph>
<glyph name="emcyr" format="2">
	<unicode hex="043C"/>
	<advance width="746"/>
	<outline>
		<contour>
			<point x="54" y="0" type="line"/>
			<point x="187" y="0" type="line"/>
			<point x="187" y="366" type="line"/>
			<point x="334" y="115" type="line"/>
			<point x="412" y="115" type="line"/>
			<point x="559" y="366" type="line"/>
			<point x="559" y="0" type="line"/>
			<point x="692" y="0" type="line"/>
			<point x="692" y="554" type="line"/>
			<point x="540" y="554" type="line"/>
			<point x="373" y="270" type="line"/>
			<point x="206" y="554" type="line"/>
			<point x="54" y="554" type="line"/>
		</contour>
	</outline>
	<anchor name="Anchor-0" x="373" y="630"/>
</glyph>
<glyph name="encyr" format="2">
	<unicode hex="043D"/>
	<advance width="618"/>
	<outline>
		<contour>
			<point x="54" y="0" type="line"/>
			<point x="187" y="0" type="line"/>
			<point x="187" y="219" type="line"/>
			<point x="431" y="219" type="line"/>
			<point x="431" y="0" type="line"/>
			<point x="564" y="0" type="line"/>
			<point x="564" y="554" type="line"/>
			<point x="431" y="554" type="line"/>
			<point x="431" y="340" type="line"/>
			<point x="187" y="340" type="line"/>
			<point x="187" y="554" type="line"/>
			<point x="54" y="554" type="line"/>
		</contour>
	</outline>
	<anchor name="Anchor-0" x="309" y="630"/>
</glyph>
<glyph name="tecyr" format="2">
	<unicode hex="0442"/>
	<advance width="427"/>
	<outline>
		<contour>
			<point x="147" y="0" type="line"/>
			<point x="280" y="0" type="line"/>
			<point x="280" y="433" type="line"/>
			<point x="409" y="433" type="line"/>
			<point x="409" y="554" type="line"/>
			<point x="18" y="554" type="line"/>
			<point x="18" y="433" type="line"/>
			<point x="147" y="433" type="line"/>
		</contour>
	</outline>
	<anchor name="Anchor-0" x="213" y="630"/>
</glyph>
<glyph name="efcyr" format="2">
	<unicode hex="0444"/>
	<advance width="779"/>
	<outline>
		<contour>
			<point x="323" y="-185" type="line"/>
			<point x="456" y="-185" type="line"/>
			<point x="456" y="-10" type="line"/>
			<point x="652.412" y="6.13"/>
			<point x="746" y="98.428"/>
			<point x="746" y="276" type="curve" smooth="yes"/>
			<point x="746" y="454.286"/>
			<point x="651.709" y="547.927"/>
			<point x="456" y="564" type="curve"/>
			<point x="456" y="739" type="line"/>
			<point x="323" y="739" type="line"/>
			<point x="323" y="564" type="line"/>
			<point x="127.257" y="546.896"/>
			<point x="33" y="453.29"/>
			<point x="33" y="276" type="curve" smooth="yes"/>
			<point x="33" y="98.921"/>
			<point x="127.047" y="6.171"/>
			<point x="323" y="-10" type="curve"/>
		</contour>
		<contour>
			<point x="323" y="113" type="line"/>
			<point x="216.343" y="126.452"/>
			<point x="167" y="178.01"/>
			<point x="167" y="276" type="curve" smooth="yes"/>
			<point x="167" y="374.202"/>
			<point x="216.555" y="426.615"/>
			<point x="323" y="441" type="curve"/>
		</contour>
		<contour>
			<point x="456" y="441" type="line"/>
			<point x="562.879" y="426.686"/>
			<point x="612" y="374.731"/>
			<point x="612" y="276" type="curve" smooth="yes"/>
			<point x="612" y="177.487"/>
			<point x="563.094" y="126.387"/>
			<point x="456" y="113" type="curve"/>
		</contour>
	</outline>
	<anchor name="Anchor-0" x="389" y="805"/>
</glyph>
<glyph name="tsecyr" format="2">
	<unicode hex="0446"/>
	<advance width="662"/>
	<outline>
		<contour>
			<point x="54" y="0" type="line"/>
			<point x="525" y="0" type="line"/>
			<point x="553" y="-132" type="line"/>
			<point x="649" y="-132" type="line"/>
			<point x="649" y="121" type="line"/>
			<point x="543" y="121" type="line"/>
			<point x="543" y="554" type="line"/>
			<point x="410" y="554" type="line"/>
			<point x="410" y="121" type="line"/>
			<point x="187" y="121" type="line"/>
			<point x="187" y="554" type="line"/>
			<point x="54" y="554" type="line"/>
		</contour>
	</outline>
	<anchor name="Anchor-0" x="298" y="630"/>
</glyph>
<glyph name="checyr" format="2">
	<unicode hex="0447"/>
	<advance width="534"/>
	<outline>
		<contour>
			<point x="347" y="0" type="line"/>
			<point x="480" y="0" type="line"/>
			<point x="480" y="554" type="line"/>
			<point x="347" y="554" type="line"/>
			<point x="347" y="316" type="line"/>
			<point x="318.067" y="309.8"/>
			<point x="291" y="307"/>
			<point x="260" y="307" type="curve" smooth="yes"/>
			<point x="188.163" y="307"/>
			<point x="168" y="325.848"/>
			<point x="168" y="393" type="curve" smooth="yes"/>
			<point x="168" y="554" type="line"/>
			<point x="35" y="554" type="line"/>
			<point x="35" y="393" type="line" smooth="yes"/>
			<point x="35" y="262.676"/>
			<point x="105.379" y="186"/>
			<point x="225" y="186" type="curve" smooth="yes"/>
			<point x="265.923" y="186"/>
			<point x="296.147" y="189.221"/>
			<point x="347" y="199" type="curve"/>
		</contour>
	</outline>
	<anchor name="Anchor-0" x="256" y="630"/>
</glyph>
<glyph name="shchacyr" format="2">
	<unicode hex="0449"/>
	<advance width="898"/>
	<outline>
		<contour>
			<point x="54" y="0" type="line"/>
			<point x="761" y="0" type="line"/>
			<point x="789" y="-132" type="line"/>
			<point x="885" y="-132" type="line"/>
			<point x="885" y="121" type="line"/>
			<point x="779" y="121" type="line"/>
			<point x="779" y="554" type="line"/>
			<point x="646" y="554" type="line"/>
			<point x="646" y="121" type="line"/>
			<point x="483" y="121" type="line"/>
			<point x="483" y="554" type="line"/>
			<point x="350" y="554" type="line"/>
			<point x="350" y="121" type="line"/>
			<point x="187" y="121" type="line"/>
			<point x="187" y="554" type="line"/>
			<point x="54" y="554" type="line"/>
		</contour>
	</outline>
	<anchor name="Anchor-0" x="416" y="630"/>
</glyph>
<glyph name="hardcyr" format="2">
	<unicode hex="044A"/>
	<advance width="620"/>
	<outline>
		<contour>
			<point x="162" y="0" type="line"/>
			<point x="406" y="0" type="line" smooth="yes"/>
			<point x="515.192" y="0"/>
			<point x="598" y="78.495"/>
			<point x="598" y="182" type="curve" smooth="yes"/>
			<point x="598" y="285.505"/>
			<point x="515.192" y="364"/>
			<point x="406" y="364" type="curve" smooth="yes"/>
			<point x="295" y="364" type="line"/>
			<point x="295" y="554" type="line"/>
			<point x="18" y="554" type="line"/>
			<point x="18" y="433" type="line"/>
			<point x="162" y="433" type="line"/>
		</contour>
		<contour>
			<point x="295" y="121" type="line"/>
			<point x="295" y="243" type="line"/>
			<point x="397" y="243" type="line" smooth="yes"/>
			<point x="436.221" y="243"/>
			<point x="464" y="217.709"/>
			<point x="464" y="182" type="curve" smooth="yes"/>
			<point x="464" y="146.291"/>
			<point x="436.221" y="121"/>
			<point x="397" y="121" type="curve" smooth="yes"/>
		</contour>
	</outline>
	<anchor name="Anchor-0" x="228" y="630"/>
</glyph>
<glyph name="ylongcyr" format="2">
	<unicode hex="044B"/>
	<advance width="727"/>
	<outline>
		<contour>
			<point x="187" y="121" type="line"/>
			<point x="187" y="243" type="line"/>
			<point x="289" y="243" type="line" smooth="yes"/>
			<point x="328.221" y="243"/>
			<point x="356" y="217.709"/>
			<point x="356" y="182" type="curve" smooth="yes"/>
			<point x="356" y="146.291"/>
			<point x="328.221" y="121"/>
			<point x="289" y="121" type="curve" smooth="yes"/>
		</contour>
		<contour>
			<point x="54" y="0" type="line"/>
			<point x="298" y="0" type="line" smooth="yes"/>
			<point x="407.192" y="0"/>
			<point x="490" y="78.495"/>
			<point x="490" y="182" type="curve" smooth="yes"/>
			<point x="490" y="285.505"/>
			<point x="407.192" y="364"/>
			<point x="298" y="364" type="curve" smooth="yes"/>
			<point x="187" y="364" type="line"/>
			<point x="187" y="554" type="line"/>
			<point x="54" y="554" type="line"/>
		</contour>
		<contour>
			<point x="540" y="0" type="line"/>
			<point x="673" y="0" type="line"/>
			<point x="673" y="554" type="line"/>
			<point x="540" y="554" type="line"/>
		</contour>
	</outline>
	<anchor name="Anchor-0" x="363" y="630"/>
</glyph>
<glyph name="softcyr" format="2">
	<unicode hex="044C"/>
	<advance width="512"/>
	<outline>
		<contour>
			<point x="187" y="121" type="line"/>
			<point x="187" y="243" type="line"/>
			<point x="289" y="243" type="line" smooth="yes"/>
			<point x="328.221" y="243"/>
			<point x="356" y="217.709"/>
			<point x="356" y="182" type="curve" smooth="yes"/>
			<point x="356" y="146.291"/>
			<point x="328.221" y="121"/>
			<point x="289" y="121" type="curve" smooth="yes"/>
		</contour>
		<contour>
			<point x="54" y="0" type="line"/>
			<point x="298" y="0" type="line" smooth="yes"/>
			<point x="407.192" y="0"/>
			<point x="490" y="78.495"/>
			<point x="490" y="182" type="curve" smooth="yes"/>
			<point x="490" y="285.505"/>
			<point x="407.192" y="364"/>
			<point x="298" y="364" type="curve" smooth="yes"/>
			<point x="187" y="364" type="line"/>
			<point x="187" y="554" type="line"/>
			<point x="54" y="554" type="line"/>
		</contour>
	</outline>
	<anchor name="Anchor-0" x="120" y="630"/>
</glyph>
<glyph name="ereversedcyr" format="2">
	<unicode hex="044D"/>
	<advance width="619"/>
	<outline>
		<contour>
			<point x="26" y="167" type="line"/>
			<point x="74.221" y="51.471"/>
			<point x="170.569" y="-13"/>
			<point x="295" y="-13" type="curve" smooth="yes"/>
			<point x="459.166" y="-13"/>
			<point x="591" y="116.162"/>
			<point x="591" y="277" type="curve" smooth="yes"/>
			<point x="591" y="439.938"/>
			<point x="463.062" y="567"/>
			<point x="299" y="567" type="curve" smooth="yes"/>
			<point x="175.189" y="567"/>
			<point x="73.116" y="498.578"/>
			<point x="26" y="384" type="curve"/>
			<point x="179" y="384" type="line"/>
			<point x="205.606" y="425.387"/>
			<point x="244.189" y="445"/>
			<point x="299" y="445" type="curve" smooth="yes"/>
			<point x="371.333" y="445"/>
			<point x="428.814" y="403.614"/>
			<point x="449" y="337" type="curve"/>
			<point x="214" y="337" type="line"/>
			<point x="214" y="220" type="line"/>
			<point x="448" y="220" type="line"/>
			<point x="425.417" y="152.252"/>
			<point x="366.189" y="109"/>
			<point x="296" y="109" type="curve" smooth="yes"/>
			<point x="247.345" y="109"/>
			<point x="212.221" y="126.714"/>
			<point x="181" y="167" type="curve"/>
		</contour>
	</outline>
	<anchor name="Anchor-0" x="298" y="630"/>
</glyph>
<glyph name="yucyr" format="2">
	<unicode hex="044E"/>
	<advance width="871"/>
	<outline>
		<contour>
			<point x="544" y="105" type="curve" smooth="yes"/>
			<point x="453.709" y="105"/>
			<point x="380" y="182.305"/>
			<point x="380" y="277" type="curve" smooth="yes"/>
			<point x="380" y="370.716"/>
			<point x="453.733" y="449"/>
			<point x="542" y="449" type="curve" smooth="yes"/>
			<point x="635.318" y="449"/>
			<point x="709" y="372.671"/>
			<point x="709" y="276" type="curve" smooth="yes"/>
			<point x="709" y="181.845"/>
			<point x="634.851" y="105"/>
		</contour>
		<contour>
			<point x="54" y="0" type="line"/>
			<point x="187" y="0" type="line"/>
			<point x="187" y="219" type="line"/>
			<point x="252" y="219" type="line"/>
			<point x="279.546" y="82.291"/>
			<point x="402.818" y="-17"/>
			<point x="545" y="-17" type="curve" smooth="yes"/>
			<point x="708.874" y="-17"/>
			<point x="843" y="114.876"/>
			<point x="843" y="276" type="curve" smooth="yes"/>
			<point x="843" y="438.225"/>
			<point x="709.775" y="571"/>
			<point x="547" y="571" type="curve" smooth="yes"/>
			<point x="404.364" y="571"/>
			<point x="282.489" y="475.241"/>
			<point x="253" y="340" type="curve"/>
			<point x="187" y="340" type="line"/>
			<point x="187" y="554" type="line"/>
			<point x="54" y="554" type="line"/>
		</contour>
	</outline>
	<anchor name="Anchor-0" x="470" y="630"/>
</glyph>
<glyph name="yacyr" format="2">
	<unicode hex="044F"/>
	<advance width="513"/>
	<outline>
		<contour>
			<point x="326" y="313" type="line"/>
			<point x="239" y="313" type="line" smooth="yes"/>
			<point x="199.458" y="313"/>
			<point x="172" y="337.59"/>
			<point x="172" y="373" type="curve" smooth="yes"/>
			<point x="172" y="408.41"/>
			<point x="199.458" y="433"/>
			<point x="239" y="433" type="curve" smooth="yes"/>
			<point x="326" y="433" type="line"/>
		</contour>
		<contour>
			<point x="17" y="0" type="line"/>
			<point x="177" y="0" type="line"/>
			<point x="294" y="192" type="line"/>
			<point x="326" y="192" type="line"/>
			<point x="326" y="0" type="line"/>
			<point x="459" y="0" type="line"/>
			<point x="459" y="554" type="line"/>
			<point x="230" y="554" type="line" smooth="yes"/>
			<point x="120.522" y="554"/>
			<point x="38" y="476.206"/>
			<point x="38" y="373" type="curve" smooth="yes"/>
			<point x="38" y="297.164"/>
			<point x="84.796" y="230.706"/>
			<point x="157" y="204" type="curve"/>
		</contour>
	</outline>
	<anchor name="Anchor-0" x="257" y="630"/>
</glyph>
<glyph name="iegravecyr" format="2">
	<unicode hex="0450"/>
	<advance width="634"/>
	<outline>
		<component base="e"/>
		<contour>
			<point x="141" y="737" type="line"/>
			<point x="367" y="613" type="line"/>
			<point x="420" y="692" type="line"/>
			<point x="198" y="825" type="line"/>
		</contour>
	</outline>
	<anchor name="Anchor-0" x="324" y="840"/>
</glyph>
<glyph name="djecyr" format="2">
	<unicode hex="0452"/>
	<advance width="675"/>
	<outline>
		<contour>
			<point x="132" y="0" type="line"/>
			<point x="265" y="0" type="line"/>
			<point x="265" y="183" type="line" smooth="yes"/>
			<point x="265" y="294.784"/>
			<point x="302.251" y="347"/>
			<point x="382" y="347" type="curve" smooth="yes"/>
			<point x="460" y="347"/>
			<point x="490" y="302"/>
			<point x="490" y="185" type="curve" smooth="yes"/>
			<point x="490" y="13" type="line" smooth="yes"/>
			<point x="490" y="-32.817"/>
			<point x="453.552" y="-64"/>
			<point x="400" y="-64" type="curve"/>
			<point x="400" y="-185" type="line"/>
			<point x="517.886" y="-185"/>
			<point x="623" y="-97.798"/>
			<point x="623" y="0" type="curve" smooth="yes"/>
			<point x="623" y="215" type="line" smooth="yes"/>
			<point x="623" y="383.828"/>
			<point x="549.67" y="470"/>
			<point x="406" y="470" type="curve" smooth="yes"/>
			<point x="348.192" y="470"/>
			<point x="305.134" y="454.12"/>
			<point x="265" y="418" type="curve"/>
			<point x="265" y="554" type="line"/>
			<point x="405" y="554" type="line"/>
			<point x="405" y="671" type="line"/>
			<point x="265" y="671" type="line"/>
			<point x="265" y="739" type="line"/>
			<point x="132" y="739" type="line"/>
			<point x="132" y="671" type="line"/>
			<point x="13" y="671" type="line"/>
			<point x="13" y="554" type="line"/>
			<point x="132" y="554" type="line"/>
		</contour>
	</outline>
	<anchor name="Anchor-0" x="368" y="805"/>
</glyph>
<glyph name="gjecyr" format="2">
	<unicode hex="0453"/>
	<advance width="386"/>
	<outline>
		<contour>
			<point x="157" y="613" type="line"/>
			<point x="384" y="733" type="line"/>
			<point x="330" y="825" type="line"/>
			<point x="106" y="691" type="line"/>
		</contour>
		<contour>
			<point x="54" y="0" type="line"/>
			<point x="187" y="0" type="line"/>
			<point x="187" y="433" type="line"/>
			<point x="368" y="433" type="line"/>
			<point x="368" y="554" type="line"/>
			<point x="54" y="554" type="line"/>
		</contour>
	</outline>
	<anchor name="Anchor-0" x="211" y="840"/>
</glyph>
<glyph name="eukrcyr" format="2">
	<unicode hex="0454"/>
	<advance width="619"/>
	<outline>
		<contour>
			<point x="168" y="337" type="line"/>
			<point x="188.186" y="403.614"/>
			<point x="245.667" y="445"/>
			<point x="318" y="445" type="curve" smooth="yes"/>
			<point x="372.811" y="445"/>
			<point x="411.394" y="425.387"/>
			<point x="438" y="384" type="curve"/>
			<point x="591" y="384" type="line"/>
			<point x="543.884" y="498.578"/>
			<point x="441.811" y="567"/>
			<point x="318" y="567" type="curve" smooth="yes"/>
			<point x="153.938" y="567"/>
			<point x="26" y="439.938"/>
			<point x="26" y="277" type="curve" smooth="yes"/>
			<point x="26" y="116.162"/>
			<point x="157.834" y="-13"/>
			<point x="322" y="-13" type="curve" smooth="yes"/>
			<point x="446.431" y="-13"/>
			<point x="542.779" y="51.471"/>
			<point x="591" y="167" type="curve"/>
			<point x="436" y="167" type="line"/>
			<point x="404.779" y="126.714"/>
			<point x="369.655" y="109"/>
			<point x="321" y="109" type="curve" smooth="yes"/>
			<point x="250.811" y="109"/>
			<point x="191.583" y="152.252"/>
			<point x="169" y="220" type="curve"/>
			<point x="403" y="220" type="line"/>
			<point x="403" y="337" type="line"/>
		</contour>
	</outline>
	<anchor name="Anchor-0" x="321" y="630"/>
</glyph>
<glyph name="ljecyr" format="2">
	<unicode hex="0459"/>
	<advance width="813"/>
	<outline>
		<contour>
			<point x="2" y="0" type="line"/>
			<point x="154" y="0" type="line"/>
			<point x="355" y="334" type="line"/>
			<point x="355" y="0" type="line"/>
			<point x="599" y="0" type="line" smooth="yes"/>
			<point x="708.192" y="0"/>
			<point x="791" y="78.495"/>
			<point x="791" y="182" type="curve" smooth="yes"/>
			<point x="791" y="285.505"/>
			<point x="708.192" y="364"/>
			<point x="599" y="364" type="curve" smooth="yes"/>
			<point x="488" y="364" type="line"/>
			<point x="488" y="554" type="line"/>
			<point x="355" y="554" type="line"/>
		</contour>
		<contour>
			<point x="488" y="121" type="line"/>
			<point x="488" y="243" type="line"/>
			<point x="590" y="243" type="line" smooth="yes"/>
			<point x="629.221" y="243"/>
			<point x="657" y="217.709"/>
			<point x="657" y="182" type="curve" smooth="yes"/>
			<point x="657" y="146.291"/>
			<point x="629.221" y="121"/>
			<point x="590" y="121" type="curve" smooth="yes"/>
		</contour>
	</outline>
	<anchor name="Anchor-0" x="419" y="630"/>
</glyph>
<glyph name="njecyr" format="2">
	<unicode hex="045A"/>
	<advance width="877"/>
	<outline>
		<contour>
			<point x="54" y="0" type="line"/>
			<point x="187" y="0" type="line"/>
			<point x="187" y="219" type="line"/>
			<point x="419" y="219" type="line"/>
			<point x="419" y="0" type="line"/>
			<point x="663" y="0" type="line" smooth="yes"/>
			<point x="772.192" y="0"/>
			<point x="855" y="78.495"/>
			<point x="855" y="182" type="curve" smooth="yes"/>
			<point x="855" y="285.505"/>
			<point x="772.192" y="364"/>
			<point x="663" y="364" type="curve" smooth="yes"/>
			<point x="552" y="364" type="line"/>
			<point x="552" y="554" type="line"/>
			<point x="419" y="554" type="line"/>
			<point x="419" y="340" type="line"/>
			<point x="187" y="340" type="line"/>
			<point x="187" y="554" type="line"/>
			<point x="54" y="554" type="line"/>
		</contour>
		<contour>
			<point x="552" y="121" type="line"/>
			<point x="552" y="243" type="line"/>
			<point x="654" y="243" type="line" smooth="yes"/>
			<point x="693.221" y="243"/>
			<point x="721" y="217.709"/>
			<point x="721" y="182" type="curve" smooth="yes"/>
			<point x="721" y="146.291"/>
			<point x="693.221" y="121"/>
			<point x="654" y="121" type="curve" smooth="yes"/>
		</contour>
	</outline>
	<anchor name="Anchor-0" x="476" y="630"/>
</glyph>
<glyph name="tshecyr" format="2">
	<unicode hex="045B"/>
	<advance width="675"/>
	<outline>
		<contour>
			<point x="13" y="671" type="line"/>
			<point x="13" y="554" type="line"/>
			<point x="405" y="554" type="line"/>
			<point x="405" y="671" type="line"/>
		</contour>
		<contour>
			<point x="131" y="0" type="line"/>
			<point x="264" y="0" type="line"/>
			<point x="264" y="182.902" type="line" smooth="yes"/>
			<point x="264" y="294.686"/>
			<point x="301.251" y="346.902"/>
			<point x="381" y="346.902" type="curve" smooth="yes"/>
			<point x="459" y="346.902"/>
			<point x="489" y="301.902"/>
			<point x="489" y="184.902" type="curve" smooth="yes"/>
			<point x="489" y="0" type="line"/>
			<point x="622" y="0" type="line"/>
			<point x="622" y="214.902" type="line" smooth="yes"/>
			<point x="622" y="383.73"/>
			<point x="548.67" y="469.902"/>
			<point x="405" y="469.902" type="curve" smooth="yes"/>
			<point x="347.192" y="469.902"/>
			<point x="304.134" y="454.022"/>
			<point x="264" y="417.902" type="curve"/>
			<point x="264" y="739" type="line"/>
			<point x="131" y="739" type="line"/>
		</contour>
	</outline>
	<anchor name="Anchor-0" x="368" y="805"/>
</glyph>
<glyph name="kjecyr" format="2">
	<unicode hex="045C"/>
	<advance width="554"/>
	<outline>
		<contour>
			<point x="251" y="613" type="line"/>
			<point x="478" y="733" type="line"/>
			<point x="424" y="825" type="line"/>
			<point x="200" y="691" type="line"/>
		</contour>
		<contour>
			<point x="54" y="0" type="line"/>
			<point x="187" y="0" type="line"/>
			<point x="187" y="255" type="line"/>
			<point x="379" y="0" type="line"/>
			<point x="552" y="0" type="line"/>
			<point x="319" y="279" type="line"/>
			<point x="540" y="554" type="line"/>
			<point x="379" y="554" type="line"/>
			<point x="187" y="299" type="line"/>
			<point x="187" y="554" type="line"/>
			<point x="54" y="554" type="line"/>
		</contour>
	</outline>
	<anchor name="Anchor-0" x="305" y="840"/>
</glyph>
<glyph name="igravecyr" format="2">
	<unicode hex="045D"/>
	<advance width="623"/>
	<outline>
		<contour>
			<point x="139" y="737" type="line"/>
			<point x="365" y="613" type="line"/>
			<point x="418" y="692" type="line"/>
			<point x="196" y="825" type="line"/>
		</contour>
		<contour>
			<point x="54" y="0" type="line"/>
			<point x="189" y="0" type="line"/>
			<point x="437" y="366" type="line"/>
			<point x="437" y="0" type="line"/>
			<point x="569" y="0" type="line"/>
			<point x="569" y="554" type="line"/>
			<point x="434" y="554" type="line"/>
			<point x="186" y="188" type="line"/>
			<point x="186" y="554" type="line"/>
			<point x="54" y="554" type="line"/>
		</contour>
	</outline>
	<anchor name="Anchor-0" x="311" y="840"/>
</glyph>
<glyph name="ushortcyr" format="2">
	<unicode hex="045E"/>
	<advance width="568"/>
	<outline>
		<contour>
			<point x="119" y="746" type="line"/>
			<point x="133.378" y="659.733"/>
			<point x="188.885" y="616"/>
			<point x="284" y="616" type="curve" smooth="yes"/>
			<point x="379.115" y="616"/>
			<point x="434.622" y="659.733"/>
			<point x="449" y="746" type="curve"/>
			<point x="348" y="746" type="line"/>
			<point x="348" y="696.039"/>
			<point x="329.035" y="675"/>
			<point x="284" y="675" type="curve" smooth="yes"/>
			<point x="238.965" y="675"/>
			<point x="220" y="696.039"/>
			<point x="220" y="746" type="curve"/>
		</contour>
		<contour>
			<point x="102" y="-185" type="line"/>
			<point x="245" y="-185" type="line"/>
			<point x="565" y="554" type="line"/>
			<point x="412" y="554" type="line"/>
			<point x="278" y="195" type="line"/>
			<point x="155" y="554" type="line"/>
			<point x="3" y="554" type="line"/>
			<point x="206" y="52" type="line"/>
		</contour>
	</outline>
	<anchor name="Anchor-0" x="284" y="840"/>
</glyph>
<glyph name="dzhecyr" format="2">
	<unicode hex="045F"/>
	<advance width="618"/>
	<outline>
		<contour>
			<point x="54" y="0" type="line"/>
			<point x="236" y="0" type="line"/>
			<point x="263" y="-139" type="line"/>
			<point x="355" y="-139" type="line"/>
			<point x="382" y="0" type="line"/>
			<point x="564" y="0" type="line"/>
			<point x="564" y="554" type="line"/>
			<point x="431" y="554" type="line"/>
			<point x="431" y="121" type="line"/>
			<point x="187" y="121" type="line"/>
			<point x="187" y="554" type="line"/>
			<point x="54" y="554" type="line"/>
		</contour>
	</outline>
	<anchor name="Anchor-0" x="309" y="630"/>
</glyph>
<glyph name="Omegacyr" format="2">
	<unicode hex="0460"/>
	<advance width="916"/>
	<outline>
		<contour>
			<point x="60" y="739" type="line"/>
			<point x="60" y="357" type="line" smooth="yes"/>
			<point x="60" y="215.506"/>
			<point x="107.791" y="110.253"/>
			<point x="228" y="-13" type="curve"/>
			<point x="311.704" y="18.283"/>
			<point x="400.633" y="90.043"/>
			<point x="430" y="150" type="curve"/>
			<point x="446.267" y="107.526"/>
			<point x="505.532" y="45.202"/>
			<point x="585" y="-13" type="curve"/>
			<point x="745.457" y="50.743"/>
			<point x="861" y="205.638"/>
			<point x="861" y="357" type="curve" smooth="yes"/>
			<point x="861" y="739" type="line"/>
			<point x="724" y="739" type="line"/>
			<point x="724" y="357" type="line" smooth="yes"/>
			<point x="724" y="267.551"/>
			<point x="695.105" y="201.32"/>
			<point x="635" y="153" type="curve"/>
			<point x="580.847" y="189.102"/>
			<point x="530" y="280.143"/>
			<point x="530" y="341" type="curve" smooth="yes"/>
			<point x="530" y="739" type="line"/>
			<point x="528" y="739" type="line"/>
			<point x="395" y="739" type="line"/>
			<point x="393" y="739" type="line"/>
			<point x="393" y="341" type="line" smooth="yes"/>
			<point x="393" y="272.543"/>
			<point x="349.157" y="200.869"/>
			<point x="278" y="153" type="curve"/>
			<point x="235.506" y="177.466"/>
			<point x="197" y="274.444"/>
			<point x="197" y="357" type="curve" smooth="yes"/>
			<point x="197" y="739" type="line"/>
		</contour>
	</outline>
</glyph>
<glyph name="Yatcyr" format="2">
	<unicode hex="0462"/>
	<advance width="671"/>
	<outline>
		<contour>
			<point x="269" y="131" type="line"/>
			<point x="269" y="309" type="line"/>
			<point x="317" y="309" type="line" smooth="yes"/>
			<point x="363.48" y="309"/>
			<point x="401.739" y="305.614"/>
			<point x="430" y="299" type="curve" smooth="yes"/>
			<point x="479.17" y="287.492"/>
			<point x="506" y="260.309"/>
			<point x="506" y="222" type="curve" smooth="yes"/>
			<point x="506" y="178.818"/>
			<point x="479.11" y="149.484"/>
			<point x="429" y="138" type="curve"/>
			<point x="401.673" y="132.745"/>
			<point x="375.5" y="131"/>
			<point x="324" y="131" type="curve" smooth="yes"/>
		</contour>
		<contour>
			<point x="132" y="0" type="line"/>
			<point x="320" y="0" type="line" smooth="yes"/>
			<point x="434.361" y="0"/>
			<point x="490.48" y="9.481"/>
			<point x="539" y="37" type="curve" smooth="yes"/>
			<point x="607.658" y="75.94"/>
			<point x="644" y="138.933"/>
			<point x="644" y="219" type="curve" smooth="yes"/>
			<point x="644" y="304.457"/>
			<point x="601.38" y="375.614"/>
			<point x="529" y="411" type="curve" smooth="yes"/>
			<point x="484.405" y="432.802"/>
			<point x="432.034" y="440"/>
			<point x="318" y="440" type="curve" smooth="yes"/>
			<point x="269" y="440" type="line"/>
			<point x="269" y="527" type="line"/>
			<point x="413" y="527" type="line"/>
			<point x="413" y="658" type="line"/>
			<point x="269" y="658" type="line"/>
			<point x="269" y="739" type="line"/>
			<point x="132" y="739" type="line"/>
			<point x="132" y="658" type="line"/>
			<point x="7" y="658" type="line"/>
			<point x="7" y="527" type="line"/>
			<point x="132" y="527" type="line"/>
		</contour>
	</outline>
	<anchor name="Anchor-0" x="200" y="805"/>
</glyph>
<glyph name="yatcyr" format="2">
	<unicode hex="0463"/>
	<advance width="592"/>
	<outline>
		<contour>
			<point x="134" y="0" type="line"/>
			<point x="378" y="0" type="line" smooth="yes"/>
			<point x="488.059" y="0"/>
			<point x="570" y="76.393"/>
			<point x="570" y="179" type="curve" smooth="yes"/>
			<point x="570" y="281.307"/>
			<point x="488.354" y="357"/>
			<point x="378" y="357" type="curve" smooth="yes"/>
			<point x="267" y="357" type="line"/>
			<point x="267" y="453" type="line"/>
			<point x="393" y="453" type="line"/>
			<point x="393" y="574" type="line"/>
			<point x="267" y="574" type="line"/>
			<point x="267" y="739" type="line"/>
			<point x="134" y="739" type="line"/>
			<point x="134" y="574" type="line"/>
			<point x="18" y="574" type="line"/>
			<point x="18" y="453" type="line"/>
			<point x="134" y="453" type="line"/>
		</contour>
		<contour>
			<point x="267" y="121" type="line"/>
			<point x="267" y="236" type="line"/>
			<point x="369" y="236" type="line" smooth="yes"/>
			<point x="409.57" y="236"/>
			<point x="436" y="213.515"/>
			<point x="436" y="179" type="curve" smooth="yes"/>
			<point x="436" y="144.187"/>
			<point x="409.216" y="121"/>
			<point x="369" y="121" type="curve" smooth="yes"/>
		</contour>
	</outline>
	<anchor name="Anchor-0" x="200" y="805"/>
</glyph>
<glyph name="eiotifiedcyr" format="2">
	<unicode hex="0465"/>
	<advance width="853"/>
	<outline>
		<contour>
			<point x="50" y="0" type="line"/>
			<point x="183" y="0" type="line"/>
			<point x="183" y="220" type="line"/>
			<point x="257" y="220" type="line"/>
			<point x="283.416" y="84.873"/>
			<point x="405.232" y="-13"/>
			<point x="547" y="-13" type="curve" smooth="yes"/>
			<point x="671.431" y="-13"/>
			<point x="767.779" y="51.471"/>
			<point x="816" y="167" type="curve"/>
			<point x="661" y="167" type="line"/>
			<point x="629.779" y="126.714"/>
			<point x="594.655" y="109"/>
			<point x="546" y="109" type="curve" smooth="yes"/>
			<point x="475.811" y="109"/>
			<point x="416.583" y="152.252"/>
			<point x="394" y="220" type="curve"/>
			<point x="628" y="220" type="line"/>
			<point x="628" y="337" type="line"/>
			<point x="393" y="337" type="line"/>
			<point x="413.186" y="403.614"/>
			<point x="470.667" y="445"/>
			<point x="543" y="445" type="curve" smooth="yes"/>
			<point x="597.811" y="445"/>
			<point x="636.394" y="425.387"/>
			<point x="663" y="384" type="curve"/>
			<point x="816" y="384" type="line"/>
			<point x="768.884" y="498.578"/>
			<point x="666.811" y="567"/>
			<point x="543" y="567" type="curve" smooth="yes"/>
			<point x="402.309" y="567"/>
			<point x="284.45" y="472.219"/>
			<point x="257" y="337" type="curve"/>
			<point x="183" y="337" type="line"/>
			<point x="183" y="554" type="line"/>
			<point x="50" y="554" type="line"/>
		</contour>
	</outline>
</glyph>
<glyph name="yuslittlecyr" format="2">
	<unicode hex="0467"/>
	<advance width="606"/>
	<outline>
		<contour>
			<point x="20" y="0" type="line"/>
			<point x="162" y="0" type="line"/>
			<point x="197.809" y="93.458" type="line"/>
			<point x="236" y="72.597" type="line"/>
			<point x="236" y="0" type="line"/>
			<point x="369" y="0" type="line"/>
			<point x="369" y="70.32" type="line"/>
			<point x="409.072" y="91.158" type="line"/>
			<point x="444" y="0" type="line"/>
			<point x="586" y="0" type="line"/>
			<point x="355" y="554" type="line"/>
			<point x="251" y="554" type="line"/>
		</contour>
		<contour>
			<point x="236.146" y="193.517" type="line"/>
			<point x="303" y="368" type="line"/>
			<point x="370.414" y="192.055" type="line"/>
			<point x="303" y="157" type="line"/>
		</contour>
	</outline>
	<anchor name="Anchor-0" x="299" y="623"/>
</glyph>
<glyph name="Yusbigcyr" format="2">
	<unicode hex="046A"/>
	<advance width="883"/>
	<outline>
		<contour>
			<point x="184" y="0" type="line"/>
			<point x="184" y="147.399"/>
			<point x="269.821" y="270"/>
			<point x="373" y="270" type="curve"/>
			<point x="373" y="0" type="line"/>
			<point x="510" y="0" type="line"/>
			<point x="510" y="270" type="line"/>
			<point x="613.179" y="270"/>
			<point x="699" y="147.399"/>
			<point x="699" y="0" type="curve"/>
			<point x="863" y="0" type="line"/>
			<point x="863" y="212"/>
			<point x="751.917" y="384"/>
			<point x="615" y="384" type="curve"/>
			<point x="744" y="604" type="line"/>
			<point x="744" y="739" type="line"/>
			<point x="139" y="739" type="line"/>
			<point x="139" y="604" type="line"/>
			<point x="272" y="384" type="line"/>
			<point x="132.875" y="384"/>
			<point x="20" y="212"/>
			<point x="20" y="0" type="curve"/>
		</contour>
		<contour>
			<point x="435" y="405" type="line"/>
			<point x="311" y="604" type="line"/>
			<point x="559" y="604" type="line"/>
		</contour>
	</outline>
	<anchor name="Anchor-0" x="410" y="805"/>
</glyph>
<glyph name="yusbigcyr" format="2">
	<unicode hex="046B"/>
	<advance width="753"/>
	<outline>
		<contour>
			<point x="174" y="0" type="line"/>
			<point x="174" y="81.072"/>
			<point x="245.897" y="172"/>
			<point x="310" y="172" type="curve"/>
			<point x="310" y="0" type="line"/>
			<point x="443" y="0" type="line"/>
			<point x="443" y="172" type="line"/>
			<point x="510.166" y="172"/>
			<point x="579" y="84.945"/>
			<point x="579" y="0" type="curve"/>
			<point x="723" y="0" type="line"/>
			<point x="723" y="141.341"/>
			<point x="616.641" y="281"/>
			<point x="509" y="281" type="curve"/>
			<point x="628" y="446" type="line"/>
			<point x="628" y="554" type="line"/>
			<point x="122" y="554" type="line"/>
			<point x="122" y="446" type="line"/>
			<point x="243" y="281" type="line"/>
			<point x="141.586" y="281"/>
			<point x="30" y="133.79"/>
			<point x="30" y="0" type="curve"/>
		</contour>
		<contour>
			<point x="385" y="299" type="line"/>
			<point x="294" y="434" type="line"/>
			<point x="482" y="434" type="line"/>
		</contour>
	</outline>
	<anchor name="Anchor-0" x="347" y="623"/>
</glyph>
<glyph name="Yusbigiotifiedcyr" format="2">
	<unicode hex="046C"/>
	<advance width="1132"/>
	<outline>
		<contour>
			<point x="60" y="0" type="line"/>
			<point x="197" y="0" type="line"/>
			<point x="197" y="310" type="line"/>
			<point x="395.814" y="310" type="line"/>
			<point x="291.737" y="250.768"/>
			<point x="229" y="134.181"/>
			<point x="229" y="0" type="curve"/>
			<point x="393" y="0" type="line"/>
			<point x="393" y="147.399"/>
			<point x="478.821" y="270"/>
			<point x="582" y="270" type="curve"/>
			<point x="582" y="0" type="line"/>
			<point x="719" y="0" type="line"/>
			<point x="719" y="270" type="line"/>
			<point x="822.179" y="270"/>
			<point x="908" y="147.399"/>
			<point x="908" y="0" type="curve"/>
			<point x="1072" y="0" type="line"/>
			<point x="1072" y="212"/>
			<point x="960.917" y="384"/>
			<point x="824" y="384" type="curve"/>
			<point x="953" y="604" type="line"/>
			<point x="953" y="739" type="line"/>
			<point x="348" y="739" type="line"/>
			<point x="348" y="604" type="line"/>
			<point x="446.541" y="441" type="line"/>
			<point x="197" y="441" type="line"/>
			<point x="197" y="739" type="line"/>
			<point x="60" y="739" type="line"/>
		</contour>
		<contour>
			<point x="644" y="405" type="line"/>
			<point x="520" y="604" type="line"/>
			<point x="768" y="604" type="line"/>
		</contour>
	</outline>
	<anchor name="Anchor-0" x="587" y="805"/>
</glyph>
<glyph name="ksicyr" format="2">
	<unicode hex="046F"/>
	<advance width="531"/>
	<outline>
		<contour>
			<point x="260" y="-169" type="line"/>
			<point x="218.06" y="-133.176"/>
			<point x="197" y="-96.405"/>
			<point x="197" y="-59" type="curve" smooth="yes"/>
			<point x="197" y="-30.05"/>
			<point x="211.826" y="-13"/>
			<point x="237" y="-13" type="curve" smooth="yes"/>
			<point x="310" y="-13" type="line" smooth="yes"/>
			<point x="404.112" y="-13"/>
			<point x="481" y="67.035"/>
			<point x="481" y="165" type="curve" smooth="yes"/>
			<point x="481" y="224.727"/>
			<point x="448.271" y="273.059"/>
			<point x="395" y="292" type="curve"/>
			<point x="425.495" y="307.74"/>
			<point x="447" y="356.125"/>
			<point x="447" y="409" type="curve" smooth="yes"/>
			<point x="447" y="486.692"/>
			<point x="385.243" y="557"/>
			<point x="317" y="557" type="curve"/>
			<point x="430" y="686" type="line"/>
			<point x="319" y="686" type="line"/>
			<point x="264" y="627" type="line"/>
			<point x="215" y="686" type="line"/>
			<point x="86" y="686" type="line"/>
			<point x="203" y="560" type="line"/>
			<point x="118" y="560" type="line"/>
			<point x="118" y="438" type="line"/>
			<point x="256" y="438" type="line" smooth="yes"/>
			<point x="290.082" y="438"/>
			<point x="318" y="415.935"/>
			<point x="318" y="389" type="curve" smooth="yes"/>
			<point x="318" y="351.81"/>
			<point x="295.95" y="329"/>
			<point x="260" y="329" type="curve" smooth="yes"/>
			<point x="184" y="329" type="line"/>
			<point x="184" y="241" type="line"/>
			<point x="260" y="241" type="line" smooth="yes"/>
			<point x="311.25" y="241"/>
			<point x="347" y="215.523"/>
			<point x="347" y="179" type="curve" smooth="yes"/>
			<point x="347" y="139.955"/>
			<point x="312.95" y="109"/>
			<point x="270" y="109" type="curve" smooth="yes"/>
			<point x="169" y="109" type="line" smooth="yes"/>
			<point x="113.744" y="109"/>
			<point x="68" y="49.668"/>
			<point x="68" y="-22" type="curve" smooth="yes"/>
			<point x="68" y="-72.455"/>
			<point x="86.245" y="-121.219"/>
			<point x="123" y="-169" type="curve"/>
		</contour>
	</outline>
</glyph>
<glyph name="Psicyr" format="2">
	<unicode hex="0470"/>
	<advance width="703"/>
	<outline>
		<contour>
			<point x="283" y="0" type="line"/>
			<point x="420" y="0" type="line"/>
			<point x="420" y="247" type="line"/>
			<point x="583.795" y="260.65"/>
			<point x="673" y="362.547"/>
			<point x="673" y="536" type="curve" smooth="yes"/>
			<point x="673" y="739" type="line"/>
			<point x="536" y="739" type="line"/>
			<point x="536" y="536" type="line" smooth="yes"/>
			<point x="536" y="440.655"/>
			<point x="496.884" y="387.376"/>
			<point x="420" y="378" type="curve"/>
			<point x="420" y="739" type="line"/>
			<point x="283" y="739" type="line"/>
			<point x="283" y="378" type="line"/>
			<point x="199.9" y="386.403"/>
			<point x="157" y="440.198"/>
			<point x="157" y="536" type="curve" smooth="yes"/>
			<point x="157" y="739" type="line"/>
			<point x="20" y="739" type="line"/>
			<point x="20" y="536" type="line" smooth="yes"/>
			<point x="20" y="361.568"/>
			<point x="113.311" y="258.678"/>
			<point x="283" y="246" type="curve"/>
		</contour>
	</outline>
</glyph>
<glyph name="psicyr" format="2">
	<unicode hex="0471"/>
	<advance width="722"/>
	<outline>
		<contour>
			<point x="290" y="-192" type="line"/>
			<point x="423" y="-192" type="line"/>
			<point x="423" y="-12" type="line"/>
			<point x="610.383" y="0.754"/>
			<point x="692" y="96.024"/>
			<point x="692" y="302" type="curve" smooth="yes"/>
			<point x="692" y="378.462"/>
			<point x="661.325" y="494.082"/>
			<point x="627" y="547" type="curve"/>
			<point x="489" y="547" type="line"/>
			<point x="526.319" y="495.133"/>
			<point x="559" y="380.75"/>
			<point x="559" y="302" type="curve" smooth="yes"/>
			<point x="559" y="177.353"/>
			<point x="517.789" y="119.173"/>
			<point x="423" y="110" type="curve"/>
			<point x="423" y="547" type="line"/>
			<point x="290" y="547" type="line"/>
			<point x="290" y="110" type="line"/>
			<point x="205.139" y="117.628"/>
			<point x="163" y="164.744"/>
			<point x="163" y="252" type="curve" smooth="yes"/>
			<point x="163" y="547" type="line"/>
			<point x="30" y="547" type="line"/>
			<point x="30" y="252" type="line" smooth="yes"/>
			<point x="30" y="88.662"/>
			<point x="119.485" y="-2.2"/>
			<point x="290" y="-12" type="curve"/>
		</contour>
	</outline>
</glyph>
<glyph name="Fitacyr" format="2">
	<unicode hex="0472"/>
	<advance width="842"/>
	<outline>
		<contour>
			<point x="36" y="369" type="curve" smooth="yes"/>
			<point x="36" y="155.452"/>
			<point x="207.539" y="-13"/>
			<point x="425" y="-13" type="curve" smooth="yes"/>
			<point x="639.936" y="-13"/>
			<point x="806" y="153.936"/>
			<point x="806" y="370" type="curve" smooth="yes"/>
			<point x="806" y="581.331"/>
			<point x="636.671" y="752"/>
			<point x="427" y="752" type="curve" smooth="yes"/>
			<point x="206.244" y="752"/>
			<point x="36" y="585.239"/>
		</contour>
		<contour>
			<point x="662" y="310" type="line"/>
			<point x="637.672" y="195.455"/>
			<point x="542.403" y="119"/>
			<point x="424" y="119" type="curve" smooth="yes"/>
			<point x="306.89" y="119"/>
			<point x="207.426" y="197.179"/>
			<point x="181" y="310" type="curve"/>
		</contour>
		<contour>
			<point x="184" y="441" type="line"/>
			<point x="214.714" y="547.476"/>
			<point x="309.522" y="620"/>
			<point x="418" y="620" type="curve" smooth="yes"/>
			<point x="534.732" y="620"/>
			<point x="628.425" y="550.12"/>
			<point x="658" y="441" type="curve"/>
		</contour>
	</outline>
</glyph>
<glyph name="fitacyr" format="2">
	<unicode hex="0473"/>
	<advance width="645"/>
	<outline>
		<contour>
			<point x="28" y="276" type="curve" smooth="yes"/>
			<point x="28" y="116.658"/>
			<point x="160.349" y="-13"/>
			<point x="323" y="-13" type="curve" smooth="yes"/>
			<point x="484.875" y="-13"/>
			<point x="617" y="116.878"/>
			<point x="617" y="276" type="curve" smooth="yes"/>
			<point x="617" y="436.224"/>
			<point x="485.775" y="567"/>
			<point x="325" y="567" type="curve" smooth="yes"/>
			<point x="159.33" y="567"/>
			<point x="28" y="438.323"/>
		</contour>
		<contour>
			<point x="174" y="340" type="line"/>
			<point x="198.825" y="403.097"/>
			<point x="257.09" y="445"/>
			<point x="320" y="445" type="curve" smooth="yes"/>
			<point x="387.081" y="445"/>
			<point x="446.293" y="403.826"/>
			<point x="471" y="340" type="curve"/>
		</contour>
		<contour>
			<point x="473" y="219" type="line"/>
			<point x="450.308" y="152.986"/>
			<point x="389.927" y="109"/>
			<point x="322" y="109" type="curve" smooth="yes"/>
			<point x="254.864" y="109"/>
			<point x="194.628" y="153.173"/>
			<point x="172" y="219" type="curve"/>
		</contour>
	</outline>
</glyph>
<glyph name="izhitsacyr" format="2">
	<unicode hex="0475"/>
	<advance width="582"/>
	<outline>
		<contour>
			<point x="226" y="0" type="line"/>
			<point x="332" y="0" type="line"/>
			<point x="484.961" y="380" type="line" smooth="yes"/>
			<point x="498.953" y="414.761"/>
			<point x="523.744" y="433"/>
			<point x="557" y="433" type="curve" smooth="yes"/>
			<point x="574" y="433" type="line"/>
			<point x="574" y="554" type="line"/>
			<point x="522" y="554" type="line" smooth="yes"/>
			<point x="437.904" y="554"/>
			<point x="392.448" y="517.441"/>
			<point x="360.368" y="424" type="curve" smooth="yes"/>
			<point x="279" y="187" type="line"/>
			<point x="151" y="554" type="line"/>
			<point x="3" y="554" type="line"/>
		</contour>
	</outline>
	<anchor name="Anchor-0" x="299" y="623"/>
</glyph>
<glyph name="izhitsagravedblcyr" format="2">
	<unicode hex="0477"/>
	<advance width="697"/>
	<outline>
		<contour>
			<point x="18" y="751" type="line"/>
			<point x="244" y="627" type="line"/>
			<point x="297" y="706" type="line"/>
			<point x="75" y="839" type="line"/>
		</contour>
		<contour>
			<point x="288" y="751" type="line"/>
			<point x="514" y="627" type="line"/>
			<point x="567" y="706" type="line"/>
			<point x="345" y="839" type="line"/>
		</contour>
		<contour>
			<point x="316" y="0" type="line"/>
			<point x="422" y="0" type="line"/>
			<point x="575" y="380" type="line" smooth="yes"/>
			<point x="588.985" y="414.734"/>
			<point x="613.799" y="433"/>
			<point x="647" y="433" type="curve" smooth="yes"/>
			<point x="664" y="433" type="line"/>
			<point x="664" y="554" type="line"/>
			<point x="612" y="554" type="line" smooth="yes"/>
			<point x="527.675" y="554"/>
			<point x="481.867" y="517.241"/>
			<point x="450" y="424" type="curve" smooth="yes"/>
			<point x="369" y="187" type="line"/>
			<point x="241" y="554" type="line"/>
			<point x="93" y="554" type="line"/>
		</contour>
	</outline>
</glyph>
<glyph name="Omegaroundcyr" format="2">
	<unicode hex="047A"/>
	<advance width="842"/>
	<outline>
		<contour>
			<point x="273" y="16" type="curve"/>
			<point x="293.683" y="-46.048"/>
			<point x="350.141" y="-87"/>
			<point x="415" y="-87" type="curve" smooth="yes"/>
			<point x="477.766" y="-87"/>
			<point x="532.579" y="-49.143"/>
			<point x="554" y="9" type="curve"/>
			<point x="706.463" y="61.185"/>
			<point x="806" y="203.776"/>
			<point x="806" y="370" type="curve" smooth="yes"/>
			<point x="806" y="530.45"/>
			<point x="707.232" y="673.424"/>
			<point x="558" y="729" type="curve"/>
			<point x="538.473" y="791.693"/>
			<point x="483.264" y="833"/>
			<point x="419" y="833" type="curve" smooth="yes"/>
			<point x="348.545" y="833"/>
			<point x="288.675" y="788.399"/>
			<point x="270" y="722" type="curve"/>
			<point x="126.733" y="662.22"/>
			<point x="36" y="525.344"/>
			<point x="36" y="369" type="curve" smooth="yes"/>
			<point x="36" y="213.238"/>
			<point x="128.128" y="76.018"/>
		</contour>
		<contour>
			<point x="293" y="155" type="curve"/>
			<point x="218.526" y="200.512"/>
			<point x="174" y="280.958"/>
			<point x="174" y="370" type="curve" smooth="yes"/>
			<point x="174" y="459.922"/>
			<point x="220.413" y="542.476"/>
			<point x="296" y="587" type="curve"/>
			<point x="323.762" y="548.956"/>
			<point x="367.308" y="527"/>
			<point x="415" y="527" type="curve" smooth="yes"/>
			<point x="465.346" y="527"/>
			<point x="510.083" y="550.641"/>
			<point x="538" y="592" type="curve"/>
			<point x="619.025" y="549.949"/>
			<point x="668" y="465.562"/>
			<point x="668" y="368" type="curve" smooth="yes"/>
			<point x="668" y="272.62"/>
			<point x="621.147" y="190.158"/>
			<point x="543" y="148" type="curve"/>
			<point x="515.967" y="192.708"/>
			<point x="470.049" y="219"/>
			<point x="419" y="219" type="curve" smooth="yes"/>
			<point x="367.609" y="219"/>
			<point x="320.873" y="195.261"/>
		</contour>
	</outline>
</glyph>
